<svg xmlns="http://www.w3.org/2000/svg" width="100" height="100" viewBox="0 0 100 100">
    <g fill="none" fill-rule="nonzero">
        <path fill="#86B3FE" d="M87.496 55.721V44.28L80.758 42.6l-3.778-9.116 3.576-5.95-8.092-8.093-5.95 3.577-6.968-2.887-6.967 2.887-5.95-3.577-8.092 8.093 3.576 5.95-3.778 9.116-6.738 1.679V55.72l6.738 1.679 3.778 9.116-3.576 5.95 8.092 8.092 5.95-3.576 6.967 2.887 6.968-2.887 5.95 3.576 8.092-8.092-3.576-5.95 3.778-9.116z"/>
        <circle cx="49.998" cy="50" r="23.046" fill="#FFF"/>
        <path fill="#243265" d="M82.23 71.46l-3.069-5.106 3.024-7.297 5.784-1.441a1.953 1.953 0 0 0 1.48-1.895v-3.768h8.594a1.953 1.953 0 0 0 0-3.906H89.45v-3.768c0-.897-.61-1.678-1.481-1.895l-5.784-1.441-3.024-7.297 3.07-5.106a1.953 1.953 0 0 0-.293-2.387l-8.093-8.093a1.953 1.953 0 0 0-2.387-.293l-5.106 3.07-7.297-3.024-1.44-5.784a1.953 1.953 0 0 0-1.896-1.481H51.95V1.955a1.953 1.953 0 1 0-3.906 0v8.593h-3.768c-.897 0-1.678.611-1.895 1.481l-1.441 5.784-7.297 3.024-5.106-3.07a1.953 1.953 0 0 0-2.387.294l-8.093 8.092a1.953 1.953 0 0 0-.293 2.387l3.07 5.106-3.024 7.297-5.784 1.441a1.953 1.953 0 0 0-1.481 1.895v3.768H1.953a1.953 1.953 0 1 0 0 3.906h8.593v3.768c0 .897.611 1.679 1.482 1.895l5.783 1.441 3.024 7.297-3.07 5.106a1.953 1.953 0 0 0 .294 2.387l8.092 8.093a1.954 1.954 0 0 0 2.388.293l5.105-3.07 7.297 3.024 1.441 5.784c.217.87.998 1.48 1.895 1.48h3.768v8.594a1.953 1.953 0 0 0 3.906 0v-8.593h3.768c.897 0 1.679-.611 1.896-1.481l1.44-5.784 7.297-3.024 5.106 3.07a1.954 1.954 0 0 0 2.388-.293l8.092-8.093a1.955 1.955 0 0 0 .292-2.387zm-6.924-3.938l2.79 4.642-5.934 5.934-4.642-2.79a1.952 1.952 0 0 0-1.754-.13l-9.116 3.778a1.953 1.953 0 0 0-1.147 1.332l-1.31 5.258h-8.39l-1.31-5.258a1.953 1.953 0 0 0-1.147-1.332l-9.117-3.778a1.952 1.952 0 0 0-1.754.13l-4.641 2.79-5.935-5.934 2.79-4.642c.32-.53.368-1.182.13-1.754l-3.777-9.116a1.954 1.954 0 0 0-1.332-1.147l-5.258-1.31v-8.39l5.258-1.31c.6-.15 1.095-.575 1.332-1.148l3.778-9.116a1.954 1.954 0 0 0-.13-1.753l-2.79-4.642 5.934-5.934 4.642 2.79c.53.319 1.181.367 1.753.13l9.117-3.778a1.954 1.954 0 0 0 1.147-1.332l1.31-5.258h8.39l1.31 5.258c.15.6.575 1.095 1.147 1.332l9.116 3.778a1.954 1.954 0 0 0 1.754-.13l4.642-2.79 5.934 5.934-2.79 4.642a1.953 1.953 0 0 0-.13 1.753l3.777 9.116c.237.573.732.998 1.333 1.148l5.258 1.31v8.39l-5.258 1.31c-.601.15-1.096.575-1.333 1.147l-3.777 9.116a1.953 1.953 0 0 0 .13 1.754z"/>
        <path fill="#243265" d="M58.611 26.525a1.953 1.953 0 0 0-1.346 3.667C65.535 33.227 71.091 41.187 71.091 50c0 11.631-9.462 21.093-21.093 21.093-11.63 0-21.093-9.462-21.093-21.093 0-8.34 4.927-15.912 12.553-19.293a1.953 1.953 0 1 0-1.584-3.57A25.03 25.03 0 0 0 25 50c0 13.784 11.214 24.999 24.999 24.999 13.785 0 25-11.215 25-24.999 0-10.444-6.586-19.878-16.387-23.475z"/>
        <path fill="#243265" d="M49.998 28.907h.098a1.953 1.953 0 0 0 .006-3.906h-.104a1.953 1.953 0 1 0 0 3.906zM65.557 55.567V44.184a1.953 1.953 0 1 0-3.906 0v11.383a1.953 1.953 0 0 0 3.906 0zM48.156 44.184v11.383a1.953 1.953 0 0 0 3.906 0v-2.872h2.071a4.947 4.947 0 0 0 4.941-4.941v-.582a4.947 4.947 0 0 0-4.941-4.941h-4.024a1.953 1.953 0 0 0-1.953 1.953zm3.906 1.953h2.071c.57 0 1.035.464 1.035 1.035v.582c0 .57-.464 1.035-1.035 1.035h-2.07v-2.652zM39.256 42.23c-.78 0-1.487.466-1.795 1.184l-5.013 11.682a1.953 1.953 0 1 0 3.59 1.54l3.218-7.5 3.218 7.5a1.954 1.954 0 1 0 3.59-1.54L41.05 43.414a1.952 1.952 0 0 0-1.795-1.183zM81.4 20.551c.5 0 1-.19 1.381-.572l7.471-7.471a6.599 6.599 0 0 0 3.108.775 6.648 6.648 0 0 0 6.64-6.64A6.648 6.648 0 0 0 93.36.001a6.648 6.648 0 0 0-6.64 6.64c0 1.12.279 2.176.771 3.103l-7.472 7.472a1.953 1.953 0 0 0 1.381 3.334zM93.36 3.908a2.737 2.737 0 0 1 2.734 2.734 2.737 2.737 0 0 1-2.734 2.734 2.737 2.737 0 0 1-2.735-2.734 2.737 2.737 0 0 1 2.735-2.734zM17.215 80.02l-7.47 7.47a6.598 6.598 0 0 0-3.104-.773A6.648 6.648 0 0 0 0 93.357a6.648 6.648 0 0 0 6.64 6.641 6.648 6.648 0 0 0 6.64-6.64c0-1.122-.28-2.178-.772-3.105l7.47-7.47a1.953 1.953 0 0 0-2.763-2.762zM6.64 96.093a2.737 2.737 0 0 1-2.734-2.734 2.737 2.737 0 0 1 2.734-2.734 2.737 2.737 0 0 1 2.735 2.734 2.737 2.737 0 0 1-2.735 2.734zM81.4 79.448c-.514 0-1.018.209-1.382.572a1.967 1.967 0 0 0-.572 1.381c0 .514.21 1.018.572 1.38.364.364.868.573 1.381.573.516 0 1.018-.209 1.383-.572.363-.363.57-.865.57-1.38 0-.515-.207-1.019-.57-1.382a1.976 1.976 0 0 0-1.383-.572zM93.36 86.717c-1.123 0-2.18.281-3.108.775l-3.3-3.3a1.953 1.953 0 0 0-2.762 2.762l3.301 3.301a6.6 6.6 0 0 0-.772 3.103 6.648 6.648 0 0 0 6.64 6.64 6.648 6.648 0 0 0 6.641-6.64 6.648 6.648 0 0 0-6.64-6.64zm0 9.375a2.737 2.737 0 0 1-2.735-2.734 2.737 2.737 0 0 1 2.735-2.734 2.737 2.737 0 0 1 2.734 2.734 2.737 2.737 0 0 1-2.734 2.734zM6.64 13.283c1.122 0 2.178-.28 3.106-.774l7.47 7.47c.38.381.88.572 1.38.572a1.953 1.953 0 0 0 1.381-3.334l-7.47-7.47a6.598 6.598 0 0 0 .774-3.105A6.648 6.648 0 0 0 6.64.002 6.648 6.648 0 0 0 0 6.642a6.648 6.648 0 0 0 6.64 6.64zm0-9.375a2.737 2.737 0 0 1 2.735 2.734A2.737 2.737 0 0 1 6.64 9.376a2.737 2.737 0 0 1-2.734-2.734A2.737 2.737 0 0 1 6.64 3.908z"/>
    </g>
</svg>
