<svg xmlns="http://www.w3.org/2000/svg" width="153" height="29" viewBox="0 0 153 29">
    <g fill="none" fill-rule="evenodd">
        <path d="M-17-25h181v78H-17z"/>
        <path fill="#CED3D9" fill-rule="nonzero" d="M13.1 0c1.3 0 2.5.101 3.6.4 1.1.2 2 .6 2.8 1.1.8.5 1.4 1.2 1.8 2.101.4.899.6 2 .6 3.2 0 1.399-.3 2.6-1 3.5-.6.899-1.6 1.699-2.8 2.299 1.7.5 3 1.399 3.8 2.6.8 1.2 1.3 2.7 1.3 4.4 0 1.399-.3 2.6-.8 3.6s-1.3 1.9-2.2 2.5c-.9.601-2 1.101-3.2 1.4-1.2.299-2.4.5-3.6.5H0V0h13.1zm-.8 11.2c1.1 0 2-.3 2.7-.8.7-.5 1-1.4 1-2.5 0-.6-.1-1.2-.3-1.6-.2-.4-.5-.7-.9-1-.4-.2-.8-.4-1.3-.5-.5-.1-1-.1-1.6-.1H6.1v6.5h6.2zm.3 11.8c.6 0 1.2-.1 1.7-.199.5-.101 1-.301 1.4-.601.4-.3.7-.6 1-1.1.2-.5.4-1.101.4-1.8 0-1.4-.4-2.4-1.2-3.101-.8-.6-1.9-.899-3.2-.899H6.1V23h6.5zm19.3-.1c.8.8 2 1.2 3.6 1.2 1.1 0 2.1-.3 2.9-.8.8-.601 1.3-1.2 1.5-1.801h4.9c-.8 2.4-2 4.101-3.6 5.2-1.6 1-3.5 1.601-5.8 1.601-1.6 0-3-.301-4.3-.801-1.3-.5-2.3-1.199-3.2-2.199-.9-.9-1.6-2-2-3.301-.5-1.3-.7-2.699-.7-4.3 0-1.5.2-2.899.7-4.2.5-1.3 1.2-2.399 2.1-3.399.9-.9 2-1.7 3.2-2.2 1.3-.5 2.6-.8 4.2-.8 1.7 0 3.2.3 4.5 1 1.3.7 2.3 1.5 3.1 2.7.8 1.1 1.4 2.399 1.8 3.8.2 1.4.3 2.8.2 4.4H30.5c0 1.6.6 3.1 1.4 3.9zm6.3-10.5c-.7-.7-1.8-1.1-3.1-1.1-.9 0-1.6.199-2.2.5-.6.3-1 .699-1.4 1.1-.4.401-.6.9-.7 1.4-.1.5-.2.899-.2 1.3h9c-.2-1.5-.7-2.5-1.4-3.2zM52.8 0v10.4h.1c.7-1.2 1.6-2 2.7-2.5s2.1-.8 3.2-.8c1.5 0 2.7.2 3.6.6.9.4 1.7 1 2.2 1.7.5.7.9 1.6 1.1 2.6.2 1 .3 2.101.3 3.4v12.3h-5.5V16.4c0-1.7-.3-2.9-.8-3.7-.5-.8-1.4-1.2-2.7-1.2-1.5 0-2.6.5-3.2 1.301-.7.899-1 2.399-1 4.399v10.5h-5.5V0h5.5zM70 10.6c.6-.9 1.3-1.5 2.2-2.101.9-.5 1.9-.899 3-1.1 1.1-.2 2.199-.3 3.3-.3 1 0 2 .1 3.101.2 1 .1 2 .399 2.799.8.9.399 1.5 1 2.101 1.7.499.701.799 1.701.799 2.901v10.5c0 .9.1 1.8.2 2.601.101.8.399 1.5.7 1.899h-5.6c-.201-.2-.301-.6-.4-.899-.1-.301-.1-.7-.1-1-.9.899-1.9 1.5-3.1 1.899-1.2.4-2.4.5-3.6.5-1 0-1.8-.1-2.7-.399-.8-.2-1.5-.601-2.2-1.101-.6-.5-1.1-1.1-1.5-1.899-.3-.801-.5-1.601-.5-2.701 0-1.101.2-2.101.6-2.8.4-.7.9-1.3 1.5-1.8.6-.399 1.4-.8 2.2-1 .8-.199 1.6-.399 2.5-.5l2.4-.3c.8-.1 1.5-.2 2.1-.3.6-.2 1.1-.4 1.5-.7.4-.3.5-.7.5-1.3 0-.6-.1-1.1-.3-1.4-.2-.3-.5-.6-.8-.8-.301-.2-.7-.3-1.1-.399-.4-.101-.9-.101-1.4-.101-1.1 0-1.9.2-2.5.7-.6.5-1 1.3-1.1 2.3h-5.5c0-1.2.4-2.3.9-3.1zm10.899 7.8c-.299.1-.699.2-1.1.3-.4.101-.8.101-1.3.2-.399.1-.899.1-1.3.2l-1.2.3c-.4.1-.8.3-1 .5-.3.2-.5.5-.7.8C74 21.1 74 21.5 74 22s.1.9.3 1.2c.2.3.4.601.7.8.3.2.7.301 1.1.4.4.099.799.1 1.299.1 1.101 0 1.9-.199 2.5-.5.601-.399 1-.8 1.301-1.3.3-.5.5-1 .5-1.5.1-.5.1-.899.1-1.2v-2.1c-.3.2-.6.401-.901.5zM95.601 7.6v2.8h.1c.699-1.2 1.6-2 2.699-2.5 1.101-.5 2.301-.8 3.4-.8 1.5 0 2.7.2 3.6.6 1 .4 1.701 1 2.201 1.7S108.5 11 108.8 12c.2 1 .301 2.101.301 3.4v12.3h-5.5V16.4c0-1.7-.301-2.9-.801-3.7-.5-.8-1.4-1.3-2.8-1.3-1.5 0-2.601.6-3.3 1.5-.7.9-1 2.4-1 4.4v10.5h-5.5V7.6h5.401zm25.798 3.6c-.899 0-1.6.2-2.199.601-.6.399-1.1.899-1.5 1.6-.4.6-.6 1.3-.801 2.1-.199.801-.199 1.5-.199 2.301 0 .699.1 1.5.199 2.199.201.801.4 1.4.801 2 .4.601.8 1.101 1.4 1.5.6.4 1.299.601 2.199.601 1.301 0 2.301-.4 3.1-1.101.701-.699 1.201-1.699 1.301-3h5.3c-.399 2.7-1.399 4.7-3.101 6.101-1.699 1.399-3.899 2.1-6.6 2.1-1.5 0-2.9-.3-4.1-.8-1.301-.5-2.301-1.2-3.2-2.1-.899-.9-1.601-2-2.101-3.2-.5-1.3-.699-2.601-.699-4.101 0-1.6.199-3 .699-4.3.5-1.3 1.101-2.5 2-3.5.9-1 2-1.7 3.201-2.3 1.299-.5 2.699-.8 4.299-.8 1.201 0 2.301.2 3.4.5 1.099.3 2.1.8 2.9 1.399.9.601 1.6 1.4 2.1 2.4.5.9.801 2.1.9 3.4h-5.4c-.197-2.4-1.498-3.6-3.899-3.6zM29.4 1.9h11.2v2.7H29.4V1.9zm109.9 21c.801.8 2.1 1.2 3.6 1.2 1.101 0 2.101-.3 2.9-.8.801-.601 1.301-1.2 1.5-1.801h4.801c-.801 2.4-2 4.101-3.601 5.2-1.601 1-3.5 1.601-5.8 1.601-1.6 0-3-.301-4.301-.801A7.991 7.991 0 0 1 135.2 25.3c-.9-.9-1.6-2-2-3.301-.5-1.3-.7-2.699-.7-4.3 0-1.5.2-2.899.7-4.2a10.76 10.76 0 0 1 2.1-3.399c.9-.9 2-1.7 3.2-2.2 1.3-.5 2.7-.8 4.2-.8 1.699 0 3.199.3 4.4 1 1.299.7 2.299 1.5 3.1 2.7.8 1.1 1.4 2.399 1.8 3.8.399 1.399.5 2.899.399 4.5h-14.5c0 1.5.601 3 1.401 3.8zm6.4-10.5c-.7-.7-1.801-1.1-3.1-1.1-.9 0-1.601.199-2.201.5-.6.3-1.1.699-1.399 1.1-.299.401-.601.9-.7 1.4-.099.5-.199.899-.199 1.3h9c-.301-1.5-.801-2.5-1.401-3.2z"/>
    </g>
</svg>
