<svg xmlns="http://www.w3.org/2000/svg" width="93" height="72" viewBox="0 0 93 72">
    <path fill="#4F86E5" fill-rule="evenodd" d="M61.056 36.864c-4.8-3.264-7.2-8.16-7.2-14.688 0-6.336 2.016-11.616 6.048-15.84S68.928 0 74.88 0c4.992 0 9.168 1.584 12.528 4.752 3.36 3.168 5.04 7.536 5.04 13.104 0 3.264-.576 6.336-1.728 9.216-1.152 2.88-2.784 5.952-4.896 9.216L64.8 71.136H45.792l15.264-34.272zm-45.792 0c-4.8-3.264-7.2-8.16-7.2-14.688 0-6.336 2.016-11.616 6.048-15.84S23.136 0 29.088 0c4.992 0 9.168 1.584 12.528 4.752 3.36 3.168 5.04 7.536 5.04 13.104 0 3.264-.576 6.336-1.728 9.216-1.152 2.88-2.784 5.952-4.896 9.216L19.008 71.136H0l15.264-34.272z" opacity=".536"/>
</svg>
