<svg xmlns="http://www.w3.org/2000/svg" width="100" height="100" viewBox="0 0 100 100">
    <g fill="none" fill-rule="nonzero">
        <g fill="#86B3FE">
            <path d="M83.974 16.025a5.276 5.276 0 0 0-1.093-.84 5.274 5.274 0 0 0 0 9.136 5.274 5.274 0 0 0 1.093-8.297zM23.483 16.025a5.276 5.276 0 0 0-1.093-.84 5.274 5.274 0 0 0 0 9.136 5.273 5.273 0 0 0 1.093-8.297z"/>
        </g>
        <path fill="#243265" d="M73.597 69.53a5.85 5.85 0 0 0-2.42.523 5.893 5.893 0 0 0-5.443-3.65 5.86 5.86 0 0 0-3.931 1.51 5.86 5.86 0 0 0-5.91-1.167V57.44a5.891 5.891 0 0 0-5.884-5.885 5.891 5.891 0 0 0-5.885 5.885V82.04L43.001 80.2a6.043 6.043 0 0 0-8.231-2.1c-2.743 1.582-3.812 5.056-2.435 7.908l6.222 12.888a1.954 1.954 0 1 0 3.517-1.698l-6.222-12.888a2.182 2.182 0 0 1 .871-2.828 2.16 2.16 0 0 1 2.943.751l4.743 7.784a1.954 1.954 0 0 0 3.621-1.017V57.44a1.98 1.98 0 0 1 1.979-1.979 1.98 1.98 0 0 1 1.978 1.979v24.376a1.953 1.953 0 1 0 3.906 0v-9.528a1.98 1.98 0 0 1 1.978-1.978 1.98 1.98 0 0 1 1.979 1.978v9.528a1.953 1.953 0 1 0 3.906 0v-9.528a1.98 1.98 0 0 1 1.978-1.978 1.98 1.98 0 0 1 1.979 1.978v9.528a1.953 1.953 0 1 0 3.906 0v-6.401a1.98 1.98 0 0 1 1.978-1.978 1.98 1.98 0 0 1 1.979 1.978v22.632a1.953 1.953 0 1 0 3.906 0V75.414a5.891 5.891 0 0 0-5.885-5.884z"/>
        <path fill="#243265" d="M50.008 44.92c-6.902 0-12.518 5.616-12.518 12.519a1.953 1.953 0 1 0 3.907 0c0-4.749 3.863-8.612 8.612-8.612 4.748 0 8.611 3.863 8.611 8.612a1.953 1.953 0 1 0 3.907 0c0-6.903-5.616-12.518-12.519-12.518z"/>
        <path fill="#243265" d="M34.365 57.439c0-8.626 7.018-15.643 15.644-15.643a15.616 15.616 0 0 1 14.432 9.596 1.953 1.953 0 1 0 3.602-1.511 19.513 19.513 0 0 0-18.034-11.992c-10.78 0-19.55 8.77-19.55 19.55a1.953 1.953 0 1 0 3.906 0zM67.605 55.419h-.009a1.953 1.953 0 0 0-1.944 1.961v.059a1.953 1.953 0 1 0 3.906 0v-.076a1.953 1.953 0 0 0-1.953-1.944zM48.044 14.183v10.844a1.953 1.953 0 1 0 3.907 0V14.183c3.038-.854 5.273-3.648 5.273-6.956 0-3.985-3.242-7.226-7.227-7.226-3.984 0-7.226 3.241-7.226 7.226 0 3.308 2.235 6.102 5.273 6.956zm1.953-10.276c1.831 0 3.32 1.49 3.32 3.32 0 1.831-1.489 3.32-3.32 3.32-1.83 0-3.32-1.489-3.32-3.32 0-1.83 1.49-3.32 3.32-3.32zM92.773 42.772c-3.308 0-6.101 2.235-6.956 5.274H74.972a1.953 1.953 0 1 0 0 3.906h10.845c.855 3.038 3.648 5.273 6.956 5.273 3.985 0 7.227-3.241 7.227-7.226s-3.242-7.227-7.227-7.227zm0 10.547c-1.83 0-3.32-1.49-3.32-3.32 0-1.831 1.49-3.32 3.32-3.32 1.831 0 3.32 1.489 3.32 3.32 0 1.83-1.489 3.32-3.32 3.32zM19.755 26.98c1.26 0 2.47-.323 3.54-.925l10.38 10.38c.38.381.88.572 1.38.572a1.953 1.953 0 0 0 1.381-3.334l-10.38-10.38a7.185 7.185 0 0 0 .925-3.54 7.18 7.18 0 0 0-2.117-5.11 7.179 7.179 0 0 0-5.11-2.116 7.18 7.18 0 0 0-5.11 2.116c-2.817 2.818-2.817 7.403 0 10.22a7.18 7.18 0 0 0 5.11 2.117zm-2.348-9.574a3.298 3.298 0 0 1 2.348-.973c.887 0 1.72.346 2.348.973.627.627.972 1.46.972 2.348 0 .886-.345 1.72-.972 2.347a3.299 3.299 0 0 1-2.348.973c-.887 0-1.72-.345-2.348-.973a3.324 3.324 0 0 1 0-4.695zM49.998 29.296c-.516 0-1.018.209-1.38.572a1.96 1.96 0 0 0-.573 1.38c0 .514.207 1.018.572 1.382.363.363.867.572 1.381.572s1.018-.209 1.38-.572c.364-.364.573-.868.573-1.381 0-.514-.209-1.018-.572-1.381a1.968 1.968 0 0 0-1.381-.572zM63.477 38.475c.5 0 1-.19 1.38-.572l11.849-11.848a7.183 7.183 0 0 0 3.54.925 7.18 7.18 0 0 0 5.11-2.117c2.817-2.817 2.817-7.402 0-10.22a7.179 7.179 0 0 0-5.11-2.116 7.18 7.18 0 0 0-5.11 2.116 7.179 7.179 0 0 0-2.117 5.11c0 1.26.322 2.471.925 3.54L62.095 35.14a1.953 1.953 0 0 0 1.382 3.334zm14.42-21.07a3.298 3.298 0 0 1 2.349-.972c.887 0 1.72.345 2.347.972a3.324 3.324 0 0 1 0 4.696 3.298 3.298 0 0 1-2.347.973c-.887 0-1.72-.345-2.348-.972V22.1a3.299 3.299 0 0 1-.973-2.347c0-.888.346-1.721.973-2.349zM25 48.046H14.183c-.855-3.039-3.648-5.274-6.956-5.274C3.242 42.772 0 46.014 0 50c0 3.985 3.242 7.226 7.227 7.226 3.308 0 6.101-2.235 6.956-5.273H25a1.953 1.953 0 1 0 0-3.906zM7.227 53.319c-1.831 0-3.32-1.49-3.32-3.32 0-1.831 1.489-3.32 3.32-3.32 1.83 0 3.32 1.489 3.32 3.32 0 1.83-1.49 3.32-3.32 3.32z"/>
    </g>
</svg>
