<svg xmlns="http://www.w3.org/2000/svg" width="149" height="31" viewBox="0 0 149 31">
    <g fill="none" fill-rule="evenodd">
        <path d="M-20-21h181v78H-20z"/>
        <path d="M-20-20h182v69H-20z"/>
        <path fill="#CED3D9" fill-rule="nonzero" d="M76.918 15.216c-1.225 0-2.108.412-3.004.832v9.502c.858.083 1.35.083 2.163.083 2.94 0 3.343-1.381 3.343-3.31v-4.538c0-1.425-.46-2.569-2.502-2.569zm-19.527-.518c-2.04 0-2.505 1.149-2.505 2.572v.8h5.008v-.8c0-1.423-.466-2.572-2.503-2.572zm-37.827 9.89c0 1.125.518 1.71 1.66 1.71 1.226 0 1.952-.41 2.847-.831v-2.254h-2.68c-1.27 0-1.827.242-1.827 1.374zm76.348-9.372c-2.043 0-2.751 1.144-2.751 2.569v5.199c0 1.428.708 2.575 2.751 2.575 2.038 0 2.751-1.147 2.751-2.575v-5.2c0-1.424-.714-2.568-2.75-2.568zM9.55 30.416H3.544V15.5H.542v-5.14h3.002V7.27c0-4.194 1.694-6.688 6.509-6.688h4.009v5.142h-2.506c-1.874 0-1.998.719-1.998 2.06l-.008 2.573h4.54l-.532 5.14H9.55v14.919zm20.529.04h-5.006l-.217-1.3c-2.286 1.3-4.326 1.51-5.671 1.51-3.672 0-5.626-2.517-5.626-5.997 0-4.106 2.28-5.572 6.36-5.572h4.152v-.887c0-2.096-.234-2.711-3.376-2.711H15.56l.502-5.14h5.614c6.892 0 8.404 2.233 8.404 7.892v12.204zm17.024-14.58c-3.116-.549-4.01-.67-5.51-.67-2.692 0-3.505.61-3.505 2.956V22.6c0 2.347.813 2.959 3.506 2.959 1.499 0 2.393-.123 5.509-.673V29.9c-2.73.628-4.507.793-6.01.793-6.448 0-9.011-3.48-9.011-8.507v-3.6c0-5.032 2.563-8.518 9.012-8.518 1.502 0 3.28.166 6.009.796v5.012zm18.797 6.31H54.885v.414c0 2.347.814 2.959 3.506 2.959 2.42 0 3.896-.123 7.006-.673V29.9c-2.999.628-4.562.793-7.504.793-6.45 0-9.014-3.48-9.014-8.507V18.07c0-4.399 1.903-8.001 8.511-8.001 6.61 0 8.51 3.56 8.51 8v4.118zm19.526.095c0 4.859-1.354 8.403-9.552 8.403-2.96 0-4.697-.267-7.965-.783V2.128L73.914 1.1v9.715c1.297-.495 2.977-.746 4.505-.746 6.006 0 7.006 2.762 7.006 7.202v5.01zm19.248.106c0 4.191-1.686 8.256-8.742 8.256-7.06 0-8.777-4.065-8.777-8.256V18.34c0-4.193 1.718-8.26 8.777-8.26 7.056 0 8.742 4.067 8.742 8.26v4.047zm19.236 0c0 4.191-1.689 8.256-8.743 8.256-7.06 0-8.778-4.065-8.778-8.256V18.34c0-4.193 1.718-8.26 8.778-8.26 7.054 0 8.743 4.067 8.743 8.26v4.047zm19.74 8.03h-6.509l-5.505-9.43v9.43h-6.006V2.127l6.006-1.028v18.212l5.505-8.953h6.509l-6.01 9.77 6.01 10.289zm-28.504-15.2c-2.04 0-2.748 1.143-2.748 2.568v5.199c0 1.428.708 2.575 2.748 2.575 2.037 0 2.758-1.147 2.758-2.575v-5.2c0-1.424-.72-2.568-2.758-2.568zm31.932 11.681c1.012 0 1.817.846 1.817 1.903 0 1.073-.806 1.91-1.824 1.91-1.014 0-1.836-.837-1.836-1.91 0-1.057.822-1.903 1.836-1.903h.007zm-.007.296c-.815 0-1.482.72-1.482 1.607 0 .904.667 1.614 1.49 1.614.822.009 1.479-.71 1.479-1.605 0-.896-.657-1.616-1.48-1.616h-.007zm-.346 2.715h-.33v-2.124c.174-.024.338-.05.586-.05.313 0 .517.068.643.16.122.094.187.238.187.44 0 .28-.18.448-.402.517v.016c.18.035.304.202.345.514.049.33.099.457.13.526h-.344c-.05-.07-.1-.263-.14-.543-.049-.27-.182-.37-.445-.37h-.23v.914zm0-1.176h.24c.27 0 .5-.102.5-.364 0-.186-.13-.372-.5-.372-.109 0-.184.009-.24.016v.72z"/>
    </g>
</svg>
