<svg xmlns="http://www.w3.org/2000/svg" width="145" height="47" viewBox="0 0 145 47">
    <g fill="none" fill-rule="evenodd">
        <path d="M-18-16h181v78H-18z"/>
        <path fill="#CED3D9" fill-rule="nonzero" d="M62 25c0 6.909-5.163 12-11.5 12S39 31.909 39 25c0-6.958 5.163-12 11.5-12S62 18.042 62 25zm-5.034 0c0-4.317-2.993-7.271-6.466-7.271-3.473 0-6.466 2.954-6.466 7.271 0 4.274 2.993 7.271 6.466 7.271 3.473 0 6.466-3.002 6.466-7.271zM86 25c0 6.909-5.163 12-11.5 12S63 31.909 63 25c0-6.952 5.163-12 11.5-12S86 18.042 86 25zm-5.034 0c0-4.317-2.993-7.271-6.466-7.271-3.473 0-6.466 2.954-6.466 7.271 0 4.274 2.993 7.271 6.466 7.271 3.473 0 6.466-3.002 6.466-7.271zM112 13.71v21.078C112 43.458 106.775 47 100.597 47c-5.815 0-9.314-3.806-10.634-6.919l4.587-1.868c.817 1.91 2.818 4.166 6.042 4.166 3.954 0 6.404-2.388 6.404-6.882V33.81h-.183c-1.18 1.424-3.452 2.668-6.318 2.668-6 0-11.495-5.114-11.495-11.694C89 18.156 94.496 13 100.495 13c2.861 0 5.133 1.244 6.318 2.626h.183v-1.911H112v-.006zm-4.63 11.073c0-4.134-2.818-7.157-6.405-7.157-3.635 0-6.68 3.023-6.68 7.157 0 4.092 3.045 7.072 6.68 7.072 3.587 0 6.405-2.98 6.405-7.072zM120 1v35h-5V1h5zm20.709 27.955l4.065 2.727C143.462 33.635 140.3 37 134.836 37 128.06 37 123 31.73 123 25c0-7.136 5.103-12 11.25-12 6.19 0 9.217 4.956 10.207 7.634l.543 1.363-15.945 6.644c1.221 2.408 3.12 3.636 5.781 3.636 2.668 0 4.517-1.32 5.873-3.322zm-12.514-4.317l10.658-4.453c-.586-1.499-2.35-2.543-4.425-2.543-2.662 0-6.368 2.364-6.233 6.996zM18.738 21.992v-5.055h17.01c.166.88.252 1.923.252 3.051 0 3.792-1.035 8.482-4.372 11.823C28.383 35.195 24.236 37 18.743 37 8.561 37 0 28.695 0 18.5S8.561 0 18.743 0c5.633 0 9.645 2.213 12.66 5.098L27.84 8.664c-2.162-2.03-5.09-3.61-9.103-3.61-7.435 0-13.25 6-13.25 13.446 0 7.445 5.815 13.445 13.25 13.445 4.822 0 7.569-1.939 9.328-3.7 1.427-1.43 2.366-3.47 2.736-6.259l-12.064.006z"/>
    </g>
</svg>
