<svg xmlns="http://www.w3.org/2000/svg" width="35" height="35" viewBox="0 0 35 35">
    <g fill="#115EE1" fill-rule="nonzero">
        <path d="M17.5 0C11.484 0 6.59 4.894 6.59 10.91c0 3.463 1.632 6.693 4.393 8.75v.912a3.215 3.215 0 0 0-.23 4.616 3.21 3.21 0 0 0-.868 2.197c0 1.445.956 2.671 2.27 3.078A5.426 5.426 0 0 0 17.5 35a5.427 5.427 0 0 0 5.346-4.537 3.228 3.228 0 0 0 2.27-3.078c0-.848-.33-1.621-.868-2.197a3.215 3.215 0 0 0-.23-4.617v-.91a10.897 10.897 0 0 0 4.392-8.75C28.41 4.893 23.516 0 17.5 0zm4.393 21.82c.646 0 1.172.526 1.172 1.171 0 .646-.526 1.172-1.172 1.172h-8.786a1.173 1.173 0 0 1-1.172-1.172c0-.645.526-1.17 1.172-1.17h8.786zM17.5 32.95c-1.5 0-2.773-.986-3.208-2.343h6.416a3.374 3.374 0 0 1-3.208 2.342zm4.393-4.394h-8.786a1.173 1.173 0 0 1-1.172-1.171c0-.646.526-1.171 1.172-1.171h8.786c.646 0 1.172.525 1.172 1.17 0 .647-.526 1.172-1.172 1.172zm.528-10.278c-.284.19-.455.51-.455.852v.641l-.073-.002h-1.171v-4.04l1.472-1.473a1.025 1.025 0 1 0-1.45-1.45l-1.772 1.772c-.193.193-.3.453-.3.725v4.466h-2.343v-4.466c0-.271-.108-.532-.3-.725l-1.773-1.772a1.026 1.026 0 0 0-1.45 1.45l1.472 1.472v4.042h-1.171l-.073.001v-.641c0-.342-.171-.662-.455-.852A8.853 8.853 0 0 1 8.64 10.91c0-4.885 3.974-8.86 8.859-8.86s8.86 3.975 8.86 8.86a8.853 8.853 0 0 1-3.939 7.368zM4.247 10.91c0-.566-.459-1.025-1.025-1.025H1.025a1.025 1.025 0 1 0 0 2.05h2.197c.566 0 1.025-.459 1.025-1.025zM33.975 9.885h-2.197a1.025 1.025 0 0 0 0 2.05h2.197a1.025 1.025 0 0 0 0-2.05zM4.622 17.161L2.72 18.26a1.026 1.026 0 0 0 1.025 1.776l1.902-1.098a1.026 1.026 0 0 0-1.025-1.776zM29.866 4.797c.174 0 .35-.044.512-.138l1.902-1.098a1.025 1.025 0 1 0-1.025-1.776l-1.903 1.098a1.025 1.025 0 0 0 .514 1.914zM32.28 18.26l-1.902-1.099a1.026 1.026 0 0 0-1.026 1.776l1.903 1.098a1.025 1.025 0 0 0 1.025-1.776zM5.648 2.883L3.745 1.785A1.025 1.025 0 1 0 2.72 3.561L4.622 4.66a1.025 1.025 0 0 0 1.025-1.776z"/>
    </g>
</svg>
