<svg xmlns="http://www.w3.org/2000/svg" width="100" height="100" viewBox="0 0 100 100">
    <g fill="none" fill-rule="nonzero">
        <path fill="#86B3FE" d="M86.226 22.97l3.528-5.87-7.037-7.037-5.87 3.529a33.556 33.556 0 0 0-7.369-3.697 33.55 33.55 0 0 0-7.368 3.697l-5.87-3.529-7.037 7.037 3.528 5.87a33.485 33.485 0 0 0-4.985 12.028l-6.645 1.655v9.95l6.645 1.656a33.486 33.486 0 0 0 4.985 12.027l-3.528 5.87 7.037 7.038 5.87-3.53a33.556 33.556 0 0 0 7.369 3.698 33.556 33.556 0 0 0 7.368-3.697l5.87 3.529 7.037-7.037-3.528-5.87a33.485 33.485 0 0 0 4.985-12.028l6.646-1.656v-9.95l-6.646-1.656a33.489 33.489 0 0 0-4.985-12.027z"/>
        <circle cx="58.188" cy="41.629" r="23.139" fill="#FFF"/>
        <path fill="#FFF" d="M74.545 47.759L68.068 35.87v-5.047c0-1.107-.558-2.14-1.484-2.748-2.114-1.387-1.935-4.542.322-5.682l2.257-1.14A23.004 23.004 0 0 0 65.1 19.54l-5.654 2.855c-2.257 1.14-2.435 4.295-.322 5.682a3.287 3.287 0 0 1 1.484 2.748v5.047l6.477 11.887a6.562 6.562 0 0 1 6.183 4.364l1.566 4.406 1.57-.63a23.12 23.12 0 0 0 3.27-5.665 6.56 6.56 0 0 0-5.13-2.474z"/>
        <path fill="#86B3FE" d="M65.87 91.607c0 3.445-1.949 6.237-4.353 6.237h-35.92c-2.406 0-4.355-2.792-4.355-6.237v-49.5c0-3.444 1.95-6.236 4.354-6.236h35.92c2.405 0 4.354 2.792 4.354 6.236v49.5z"/>
        <path fill="#FFF" d="M65.87 49.902v40.146a7.795 7.795 0 0 1-7.795 7.796H9.745a7.795 7.795 0 0 1-7.796-7.796V49.902H65.87z"/>
        <path fill="#231F20" d="M3.535 49.902h61.566"/>
        <path fill="#243265" d="M98.327 34.762l-5.47-1.362a35.228 35.228 0 0 0-4.337-10.463l2.905-4.833c.46-.767.34-1.75-.293-2.382l-7.036-7.037a1.95 1.95 0 0 0-2.383-.292l-4.832 2.905A35.223 35.223 0 0 0 66.418 6.96l-1.363-5.47a1.949 1.949 0 0 0-1.89-1.479h-9.951c-.895 0-1.675.61-1.891 1.478L49.96 6.96a35.228 35.228 0 0 0-10.463 4.338l-4.832-2.905a1.949 1.949 0 0 0-2.382.292l-7.037 7.037a1.95 1.95 0 0 0-.292 2.382l2.904 4.833a35.55 35.55 0 0 0-3.034 6.184 1.949 1.949 0 1 0 3.65 1.369 31.669 31.669 0 0 1 3.3-6.439c.418-.627.437-1.439.049-2.085l-2.744-4.565 4.883-4.883 4.565 2.744a1.95 1.95 0 0 0 2.085-.049 31.408 31.408 0 0 1 11.328-4.695 1.949 1.949 0 0 0 1.51-1.44l1.287-5.168h6.904l1.288 5.168c.182.731.77 1.292 1.509 1.44 4.06.81 7.872 2.39 11.328 4.695.627.418 1.44.437 2.085.049l4.565-2.744 4.883 4.883-2.743 4.565a1.948 1.948 0 0 0 .048 2.085A31.408 31.408 0 0 1 89.3 35.38c.147.74.708 1.328 1.44 1.51l5.168 1.287v6.904l-5.168 1.288a1.949 1.949 0 0 0-1.44 1.509 31.408 31.408 0 0 1-4.696 11.328 1.949 1.949 0 0 0-.048 2.085l2.743 4.565-4.883 4.883-4.565-2.743a1.948 1.948 0 0 0-2.085.048 31.462 31.462 0 0 1-7.947 3.82v-7.069c9.3-3.867 15.458-13.003 15.458-23.166 0-11.186-7.36-20.686-17.493-23.911a25.001 25.001 0 0 0-7.596-1.176c-10.955 0-20.565 7.073-23.88 17.38H8.186C3.672 33.923 0 37.595 0 42.108v49.5c0 4.514 3.672 8.186 8.185 8.186h51.45c4.513 0 8.185-3.672 8.185-8.186V75.931a35.3 35.3 0 0 0 9.061-3.972l4.832 2.905c.768.461 1.75.34 2.383-.293l7.037-7.036a1.95 1.95 0 0 0 .292-2.383L88.52 60.32a35.223 35.223 0 0 0 4.337-10.463l5.47-1.363a1.949 1.949 0 0 0 1.478-1.89v-9.951c0-.895-.61-1.675-1.478-1.89zM67.82 49.767a4.623 4.623 0 0 1 3.613 3.008l1.461 4.108a21.12 21.12 0 0 1-5.074 3.621V49.767zm11.56-8.139c0 4.293-1.303 8.368-3.585 11.78l-.69-1.939a8.529 8.529 0 0 0-7.285-5.627v-3.735c0-3.484-2.188-6.464-5.261-7.643v-3.64a5.22 5.22 0 0 0-2.363-4.377 1.315 1.315 0 0 1-.602-1.194c.013-.232.11-.805.733-1.119l4.922-2.486c8.224 2.914 14.131 10.77 14.131 19.98zM58.967 20.454l-.398.201a5.183 5.183 0 0 0-2.867 4.378 5.183 5.183 0 0 0 2.355 4.673c.378.248.603.666.603 1.118v3.098h-7.09a4.903 4.903 0 0 0 .93-3.441 4.913 4.913 0 0 0-2.456-3.788 1.067 1.067 0 0 1-.511-.707l-.7-3.378a21.175 21.175 0 0 1 10.134-2.154zm-13.66 4.343l.409 1.98a4.97 4.97 0 0 0 2.379 3.292c.41.236.506.61.527.813.02.202.004.589-.35.904l-2.387 2.136h-7.44a21.124 21.124 0 0 1 6.861-9.125zM8.184 37.82h51.45a4.292 4.292 0 0 1 4.287 4.287v5.847H3.898v-5.847a4.292 4.292 0 0 1 4.287-4.287zm51.45 58.075H8.184a4.292 4.292 0 0 1-4.287-4.288V51.851h60.024v39.756a4.292 4.292 0 0 1-4.288 4.288z"/>
        <path fill="#243265" d="M34.318 44.835H57.49a1.949 1.949 0 0 0 0-3.897H34.318a1.95 1.95 0 0 0 0 3.897zM17.144 44.835c.514 0 1.015-.208 1.38-.57.362-.363.569-.864.569-1.378 0-.513-.207-1.016-.57-1.378a1.964 1.964 0 0 0-1.38-.571c-.512 0-1.015.208-1.377.571a1.964 1.964 0 0 0-.57 1.378c0 .512.208 1.015.57 1.377.364.363.865.571 1.378.571zM9.735 44.835c.512 0 1.015-.208 1.377-.57.363-.363.571-.866.571-1.378 0-.513-.208-1.016-.57-1.378a1.963 1.963 0 0 0-1.378-.571c-.513 0-1.016.208-1.378.571a1.964 1.964 0 0 0-.571 1.378c0 .512.208 1.015.57 1.377.363.363.866.571 1.379.571zM24.555 44.835c.513 0 1.016-.208 1.378-.57.363-.363.571-.866.571-1.378 0-.513-.208-1.016-.571-1.378a1.963 1.963 0 0 0-1.378-.571c-.512 0-1.015.208-1.377.571a1.964 1.964 0 0 0-.571 1.378c0 .512.208 1.015.57 1.377.363.363.866.571 1.378.571zM37.028 64.324h13.19a1.95 1.95 0 0 0 0-3.898h-13.19a1.95 1.95 0 0 0 0 3.898zM58.55 79.135c-.512 0-1.015.208-1.377.57a1.963 1.963 0 0 0-.571 1.379c0 .512.208 1.015.57 1.377.363.365.866.571 1.378.571.513 0 1.016-.206 1.378-.57.363-.363.571-.866.571-1.378 0-.513-.208-1.016-.57-1.378a1.96 1.96 0 0 0-1.379-.571zM50.8 79.135H37.028a1.95 1.95 0 0 0 0 3.898H50.8a1.949 1.949 0 0 0 0-3.898zM58.55 69.78H37.029a1.95 1.95 0 0 0 0 3.898H58.55a1.95 1.95 0 0 0 0-3.898zM28.444 60.426H9.734a1.95 1.95 0 0 0-1.948 1.949v18.71a1.95 1.95 0 0 0 1.949 1.948h18.71a1.95 1.95 0 0 0 1.948-1.949v-18.71a1.95 1.95 0 0 0-1.949-1.948zm-1.949 18.71H11.683V64.323h14.812v14.811zM90.036 74.783a1.949 1.949 0 0 0-1.949 1.949V88.1h-8.491a1.948 1.948 0 0 0-3.163-2.158l-2.976 2.976a1.949 1.949 0 0 0 0 2.756l2.976 2.976c.38.38.88.57 1.378.57a1.948 1.948 0 0 0 1.472-3.223h10.753a1.95 1.95 0 0 0 1.95-1.948V76.73a1.95 1.95 0 0 0-1.95-1.948zM9.744 23.274a1.95 1.95 0 0 0 1.95-1.948v-9.62h6.901a1.949 1.949 0 0 0 3.033 2.404l2.976-2.975a1.949 1.949 0 0 0 0-2.756l-2.976-2.976a1.95 1.95 0 0 0-3.033 2.405h-8.85a1.95 1.95 0 0 0-1.95 1.949v11.569a1.95 1.95 0 0 0 1.95 1.948zM9.744 30.469c.513 0 1.016-.207 1.378-.57.362-.364.571-.864.571-1.377 0-.515-.209-1.015-.571-1.38a1.963 1.963 0 0 0-1.378-.57c-.512 0-1.015.208-1.378.57a1.964 1.964 0 0 0-.57 1.38c0 .513.208 1.013.57 1.378.363.362.866.569 1.378.569z"/>
    </g>
</svg>
