<svg xmlns="http://www.w3.org/2000/svg" xmlns:xlink="http://www.w3.org/1999/xlink" width="700" height="603" viewBox="0 0 700 603">
    <defs>
        <path id="a" d="M19.51 5.996c-1.911 5.595 2.452 11.873-.437 17.222-.937 1.745-3.067 4.142-4.733 5.167-1.739 1.078-3.96.674-6.169.27-1.28-.236-2.555-.47-3.726-.418-.71.033-1.484.13-1.981.637-.367.376-.519.91-.616 1.426-.753 3.89.65 8.123 3.58 10.79 3.308 3.01 9.048 4.545 10.453 9.263.874 2.928.495 10.226-4.166 9.488-1.748-.279-2.916-2.005-4.597-2.573-2.072-.704-4.45.674-5.376 2.658-.932 1.985-.656 4.348.151 6.387 1.278 3.214 3.739 5.793 6.139 8.28 4.942 5.129 8.186 10.014 14.707 13.227.167.085.336.167.503.246 5.247 2.506 8.032 2.088 13.139-.267 4.706-2.176 9.27-4.755 13.168-8.199 4.937-4.357 8.763-10.252 9.561-16.788.182-1.469.17-3.077-.7-4.266-1.196-1.642-3.648-1.884-5.541-1.153-1.894.731-3.38 2.206-4.888 3.568-.64.577-1.323 1.153-2.155 1.38-.834.225-1.85-.012-2.278-.761-.683-1.195.482-2.58 1.544-3.456 2.449-2.045 4.749-3.225 7.319-5.037 3.225-2.27 6.217-5.049 7.986-8.575 1.769-3.525 2.17-7.904.324-11.39-.558-1.062-1.332-2.036-2.345-2.68-1.8-1.131-4.112-1.077-6.193-.63-2.082.449-4.09 1.24-6.211 1.459-5.004.522-6.97-3-6.873-7.607.07-3.089 1.065-6.093 1.244-9.179.313-5.428-2.366-11.214-7.285-13.538C31.741.325 30.282.03 28.82.03c-3.996 0-8.02 2.2-9.309 5.966"/>
        <path id="c" d="M40.374 2.12c-6.882 3.25-10.626 11.34-10.19 18.932.253 4.314 1.645 8.51 1.74 12.828.139 6.445-2.61 11.37-9.613 10.642-2.962-.31-5.774-1.417-8.684-2.04-2.907-.625-6.142-.703-8.66.883-1.417.896-2.497 2.258-3.28 3.742-2.576 4.882-2.024 11.002.455 15.93 2.476 4.933 6.654 8.814 11.17 11.997 3.595 2.527 6.808 4.181 10.234 7.036 1.48 1.232 3.113 3.162 2.16 4.837-.598 1.05-2.02 1.377-3.189 1.062-1.162-.313-2.115-1.126-3.01-1.93-2.109-1.902-4.19-3.963-6.836-4.985-2.649-1.026-6.078-.686-7.75 1.605-1.22 1.669-1.231 3.917-.98 5.968 1.114 9.14 6.47 17.384 13.37 23.48 5.452 4.818 11.836 8.425 18.414 11.463 7.146 3.298 11.042 3.884 18.373.376.236-.112.47-.228.704-.343 9.117-4.494 13.657-11.327 20.572-18.497 3.359-3.483 6.793-7.085 8.58-11.581 1.126-2.85 1.512-6.157.216-8.933-1.302-2.774-4.624-4.7-7.525-3.717-2.345.795-3.984 3.21-6.426 3.601-6.518 1.035-7.049-9.178-5.826-13.271 1.966-6.594 9.992-8.742 14.619-12.957 4.096-3.726 6.06-9.645 5.003-15.083-.14-.725-.346-1.468-.858-1.993-.698-.71-1.775-.85-2.77-.892-1.642-.076-3.423.251-5.217.58-3.085.567-6.192 1.134-8.623-.371-2.327-1.441-5.304-4.794-6.62-7.23-4.04-7.474 2.066-16.255-.61-24.08C57.516 3.91 51.891.834 46.308.834c-2.048 0-4.09.413-5.935 1.287"/>
        <path id="e" d="M60.727 4.372l-10.583 8.19C19.131 36.552.971 73.585.971 112.836v418.626H142.54V111.177c0-38.2-17.678-74.245-47.86-97.596l-11.9-9.21A17.989 17.989 0 0 0 71.754.604a18.001 18.001 0 0 0-11.027 3.769"/>
    </defs>
    <g fill="none" fill-rule="evenodd">
        <g transform="translate(60.685 469.108)">
            <mask id="b" fill="#fff">
                <use xlink:href="#a"/>
            </mask>
            <path fill="#262466" d="M19.51 5.996c-1.911 5.595 2.452 11.873-.437 17.222-.937 1.745-3.067 4.142-4.733 5.167-1.739 1.078-3.96.674-6.169.27-1.28-.236-2.555-.47-3.726-.418-.71.033-1.484.13-1.981.637-.367.376-.519.91-.616 1.426-.753 3.89.65 8.123 3.58 10.79 3.308 3.01 9.048 4.545 10.453 9.263.874 2.928.495 10.226-4.166 9.488-1.748-.279-2.916-2.005-4.597-2.573-2.072-.704-4.45.674-5.376 2.658-.932 1.985-.656 4.348.151 6.387 1.278 3.214 3.739 5.793 6.139 8.28 4.942 5.129 8.186 10.014 14.707 13.227.167.085.336.167.503.246 5.247 2.506 8.032 2.088 13.139-.267 4.706-2.176 9.27-4.755 13.168-8.199 4.937-4.357 8.763-10.252 9.561-16.788.182-1.469.17-3.077-.7-4.266-1.196-1.642-3.648-1.884-5.541-1.153-1.894.731-3.38 2.206-4.888 3.568-.64.577-1.323 1.153-2.155 1.38-.834.225-1.85-.012-2.278-.761-.683-1.195.482-2.58 1.544-3.456 2.449-2.045 4.749-3.225 7.319-5.037 3.225-2.27 6.217-5.049 7.986-8.575 1.769-3.525 2.17-7.904.324-11.39-.558-1.062-1.332-2.036-2.345-2.68-1.8-1.131-4.112-1.077-6.193-.63-2.082.449-4.09 1.24-6.211 1.459-5.004.522-6.97-3-6.873-7.607.07-3.089 1.065-6.093 1.244-9.179.313-5.428-2.366-11.214-7.285-13.538C31.741.325 30.282.03 28.82.03c-3.996 0-8.02 2.2-9.309 5.966" mask="url(#b)"/>
        </g>
        <path fill="#5854B0" d="M89.207 545.502v-23.258l-12.86-12.86 1.623-1.624 11.237 11.237v-30.143h2.297v30.144l11.237-11.238 1.624 1.623-12.861 12.861v23.259l11.237-11.235 1.624 1.623-12.861 12.858v53.865h-2.297V548.75l-12.86-12.858 1.623-1.623 11.237 11.234z"/>
        <g transform="translate(0 399.32)">
            <mask id="d" fill="#fff">
                <use xlink:href="#c"/>
            </mask>
            <path fill="#323076" d="M40.374 2.12c-6.882 3.25-10.626 11.34-10.19 18.932.253 4.314 1.645 8.51 1.74 12.828.139 6.445-2.61 11.37-9.613 10.642-2.962-.31-5.774-1.417-8.684-2.04-2.907-.625-6.142-.703-8.66.883-1.417.896-2.497 2.258-3.28 3.742-2.576 4.882-2.024 11.002.455 15.93 2.476 4.933 6.654 8.814 11.17 11.997 3.595 2.527 6.808 4.181 10.234 7.036 1.48 1.232 3.113 3.162 2.16 4.837-.598 1.05-2.02 1.377-3.189 1.062-1.162-.313-2.115-1.126-3.01-1.93-2.109-1.902-4.19-3.963-6.836-4.985-2.649-1.026-6.078-.686-7.75 1.605-1.22 1.669-1.231 3.917-.98 5.968 1.114 9.14 6.47 17.384 13.37 23.48 5.452 4.818 11.836 8.425 18.414 11.463 7.146 3.298 11.042 3.884 18.373.376.236-.112.47-.228.704-.343 9.117-4.494 13.657-11.327 20.572-18.497 3.359-3.483 6.793-7.085 8.58-11.581 1.126-2.85 1.512-6.157.216-8.933-1.302-2.774-4.624-4.7-7.525-3.717-2.345.795-3.984 3.21-6.426 3.601-6.518 1.035-7.049-9.178-5.826-13.271 1.966-6.594 9.992-8.742 14.619-12.957 4.096-3.726 6.06-9.645 5.003-15.083-.14-.725-.346-1.468-.858-1.993-.698-.71-1.775-.85-2.77-.892-1.642-.076-3.423.251-5.217.58-3.085.567-6.192 1.134-8.623-.371-2.327-1.441-5.304-4.794-6.62-7.23-4.04-7.474 2.066-16.255-.61-24.08C57.516 3.91 51.891.834 46.308.834c-2.048 0-4.09.413-5.935 1.287" mask="url(#d)"/>
        </g>
        <path fill="#5854B0" d="M43.96 508.047v-33.82L25.843 456.11l1.623-1.623L43.96 470.98v-43.255h2.297v43.258l16.494-16.497 1.627 1.623-18.12 18.12v33.82l16.493-16.497 1.627 1.623-18.12 18.12v91.318H43.96v-91.32l-18.117-18.118 1.623-1.623 16.494 16.494z"/>
        <path fill="#91B7DC" d="M755.832 602.176l-58.94-116.251 2.819-1.43 58.94 116.249zM593.36 602.176l-2.818-1.432 58.94-116.248 2.819 1.429zM551.459 602.614l-2.819-1.432 58.94-116.25 2.82 1.431z"/>
        <path fill="#91B7DC" d="M602.477 500.075h41.678v-3.156h-41.678zM588.747 527.153h41.681v-3.156h-41.681zM575.02 554.227h41.685v-3.158H575.02zM561.293 581.302h41.679v-3.156h-41.679z"/>
        <path fill="#FFF" d="M588.55 487.331h177.925v-10.953H588.55z"/>
        <path fill="#115EE1" d="M691.262 363.964c2.212-11.76 14.395-18.4 25.348-14.182 8.32 3.207 13.388 12.207 11.74 20.97-2.215 11.76-14.395 18.402-25.348 14.182-8.32-3.208-13.39-12.207-11.74-20.97m52.939 13.842l10.432-.009a3.83 3.83 0 0 0 3.823-3.826l-.012-13.305a3.827 3.827 0 0 0-3.83-3.82l-8.162.006c-1.353.003-2.515-.871-2.988-2.136-.289-.762-.601-1.515-.938-2.255-.561-1.229-.361-2.673.598-3.629l5.768-5.777a3.824 3.824 0 0 0 0-5.407l-9.41-9.4a3.827 3.827 0 0 0-5.41 0l-5.813 5.82a3.154 3.154 0 0 1-3.48.667 83.744 83.744 0 0 0-2.5-1.013 3.148 3.148 0 0 1-2-2.94v-8.242a3.823 3.823 0 0 0-3.823-3.826h-13.302a3.823 3.823 0 0 0-3.824 3.826v8.162c0 1.35-.873 2.51-2.136 2.986a33.5 33.5 0 0 0-2.363.99c-1.23.564-2.67.363-3.632-.59l-5.793-5.758a3.82 3.82 0 0 0-5.404.015l-9.382 9.433a3.82 3.82 0 0 0 .019 5.404l5.834 5.802c.92.916 1.184 2.29.677 3.483a67.487 67.487 0 0 0-1.007 2.5 3.141 3.141 0 0 1-2.934 2.003l-8.25.021a3.825 3.825 0 0 0-3.812 3.835l.03 13.303a3.82 3.82 0 0 0 3.836 3.81l8.165-.018c1.35-.003 2.513.868 2.992 2.134.288.761.604 1.514.94 2.25.562 1.23.365 2.674-.588 3.63l-5.765 5.786a3.827 3.827 0 0 0 .009 5.41l9.427 9.385a3.824 3.824 0 0 0 5.407-.009l5.808-5.832a3.16 3.16 0 0 1 3.48-.673c.829.352 1.727.71 2.5 1.01 1.211.47 2 1.636 2.003 2.937l.015 8.247a3.82 3.82 0 0 0 3.826 3.814l13.303-.02a3.82 3.82 0 0 0 3.817-3.83l-.012-8.165c-.003-1.35.87-2.516 2.133-2.992a33.964 33.964 0 0 0 2.254-.94c1.232-.559 2.67-.362 3.629.597l5.783 5.765a3.82 3.82 0 0 0 5.404-.006l9.397-9.415a3.83 3.83 0 0 0-.006-5.41l-5.825-5.81a3.154 3.154 0 0 1-.671-3.481 89.122 89.122 0 0 0 1.763-4.497"/>
        <path fill="#F1F2F2" d="M289.103 594.634h55.89v-45.03h-55.89z"/>
        <path fill="#323076" d="M279.12 602.614h75.86v-9.806h-75.86z"/>
        <path fill="#F1F2F2" d="M501.725 594.634h55.89v-45.03h-55.89z"/>
        <path fill="#323076" d="M491.742 602.614h75.86v-9.806h-75.86z"/>
        <g transform="translate(351.973 .8)">
            <mask id="f" fill="#fff">
                <use xlink:href="#e"/>
            </mask>
            <path fill="#2F2D7D" d="M60.727 4.372l-10.583 8.19C19.131 36.552.971 73.585.971 112.836v418.626H142.54V111.177c0-38.2-17.678-74.245-47.86-97.596l-11.9-9.21A17.989 17.989 0 0 0 71.754.604a18.001 18.001 0 0 0-11.027 3.769" mask="url(#f)"/>
        </g>
        <g>
            <path fill="#121141" d="M445.77 14.522L430.866 3.007c-8.36-6.457-13.967-.98-18.285 3.098.456 1.195 9.048-4.624 9.291-4.44l6.924 1.815c30.743 23.746 44 71.439 44 110.286v416.226a2.275 2.275 0 0 0 2.273 2.272h17.167a2.273 2.273 0 0 0 2.273-2.272V113.763a125.4 125.4 0 0 0-48.739-99.241" opacity=".174"/>
            <path fill="#FFF" fill-opacity=".433" d="M436.732 7.54l-5.868-4.534c-4.645-3.586-6.193-1.132-7.136-1.469l-4.488-.71a56.567 56.567 0 0 1-2.652 2.179l-6.818 5.267c-29.769 24.365-47.149 60.819-47.149 99.418v424.573h26.052V107.69c0-38.99 17.735-75.784 48.06-100.152" opacity=".124"/>
            <path fill="#FFF" d="M352.944 565.252h-71.787V270.187a130.163 130.163 0 0 1 29.832-82.929c3.144-3.805 8.976-3.805 12.12 0a130.183 130.183 0 0 1 29.835 82.93v295.064z"/>
            <path fill="#0044B8" d="M346.274 229.147c-5.04-15.162-12.835-29.39-23.166-41.888-3.144-3.805-8.976-3.805-12.12 0-10.328 12.498-18.126 26.726-23.166 41.888h58.452z"/>
            <path fill="#525D7A" d="M323.108 187.26c-1.362-1.649-3.231-2.538-5.167-2.759 17.304 22.681 16.907 57.062 16.907 85.687v295.065h18.096V270.188a130.177 130.177 0 0 0-29.836-82.929" opacity=".174"/>
            <path fill="#0044B8" d="M557.471 220.888a130.12 130.12 0 0 0-17.286-46.749v-.003c-2.567-4.215-8.335-5.049-11.991-1.736-12.34 11.182-22.423 25.209-29.633 39.952l58.91 8.536z"/>
            <path fill="#FFF" d="M558.603 230.325c3.966 12.57 6.964 26.486 6.964 39.861v295.065h-71.788V270.186c0-13.618 2.133-27.044 6.236-39.818l58.588-.043z"/>
            <path fill="#525D7A" d="M500.164 229.918c-3.86 12.416-6.384 27.074-6.384 40.267v295.068h18.09V270.185c0-11.925-.066-27.606 1.105-40.267h-12.81z" opacity=".09"/>
            <path fill="#231F20" d="M556.271 516.322v-55.344c0-20.564-8.468-40.562-23.227-54.878-10.092-9.791-20.666-20.517-29.617-32.63l-18.406-24.896V243.765c0-32.09-15.162-62.96-40.559-82.574l-3.577-2.764c-1.887-1.46-4.078-2.294-6.324-2.57-1.62-1.566-1.532-1.566-3.15 0-2.247.276-4.438 1.113-6.322 2.57l-2.652 2.048c-25.977 20.06-41.482 51.634-41.482 84.455v101.238l-20.192 27.302c-8.952 12.113-19.526 22.839-29.618 32.63-14.761 14.316-23.227 34.314-23.227 54.878v55.344h73.037v18.036h104.066v-18.036h71.25z" opacity=".124"/>
            <path fill="#F1F2F2" d="M391.202 566.716h65.795v-53.011h-65.795z"/>
            <path fill="#323076" d="M379.448 576.11h89.3v-11.548h-89.3z"/>
            <path fill="#115EE1" d="M301.643 514.227h83.108V333.231l-30.673 41.481c-8.824 11.934-19.195 22.554-29.848 32.889a74.37 74.37 0 0 0-22.587 53.378v53.248z"/>
            <path fill="#312075" d="M358.186 369.158v145.07h26.565V333.23z" opacity=".239"/>
            <path fill="#115EE1" d="M545.808 513.706H462.7V333.523l30.676 41.3c8.824 11.878 19.195 22.45 29.848 32.739 14.273 13.781 22.584 32.885 22.584 53.136v53.008z"/>
            <path fill="#312075" d="M491.829 369.158v145.07H465.26V333.23z" opacity=".239"/>
            <path fill="#FFF" d="M474.198 532.264h-99.165V239.492a88.612 88.612 0 0 1 34.448-70.13l6.18-4.776a14.643 14.643 0 0 1 8.955-3.055c3.243 0 6.393 1.074 8.957 3.055l7.103 5.486a86.248 86.248 0 0 1 33.522 68.255v293.937z"/>
            <path fill="#525D7A" d="M427.944 167.575c-.046-.036-.088-.076-.137-.112l-8.936-6.903-8.01 6.187a89.261 89.261 0 0 0-34.69 70.64v294.877h18.093V237.387c0-27.211 12.43-52.89 33.68-69.812" opacity=".13"/>
            <path fill="#0044B8" d="M391.503 188.063l66.138-.537a86.26 86.26 0 0 0-16.965-17.453l-7.103-5.485a14.646 14.646 0 0 0-17.911 0l-6.18 4.772a88.487 88.487 0 0 0-17.979 18.703"/>
            <path fill="#323076" d="M453.175 277.626a3.031 3.031 0 0 1-3.035-3.035 26.14 26.14 0 0 0-8.407-19.167 3.026 3.026 0 0 1-.18-4.284 3.024 3.024 0 0 1 4.285-.18 32.205 32.205 0 0 1 10.371 23.631 3.031 3.031 0 0 1-3.034 3.035zm-58.152 0a3.031 3.031 0 0 1-3.034-3.035c0-17.704 14.404-32.111 32.109-32.111 4.335 0 8.541.853 12.5 2.527a3.034 3.034 0 0 1-2.363 5.59 25.884 25.884 0 0 0-10.137-2.046c-14.359 0-26.04 11.682-26.04 26.04a3.031 3.031 0 0 1-3.035 3.035z"/>
            <path fill="#F7D3A9" d="M711.963 421.71l40.076-18.868 24.474-19.72-9.533-12.458-19.996 22.31-36.32 22.703 1.423 1.715-7.315.324c-3.126.137-11.555-1.062-14.88 2.391l14.673 1.602h7.398z"/>
            <path fill="#525D7A" d="M773.854 379.648l-24.492 19.731-40.896 20.694-10.28-.443-3.963-1.55c-1.723.351-3.289.946-4.333 2.026l14.674 1.602h7.4l40.077-18.867 24.474-19.716-2.661-3.477z" opacity=".134"/>
            <path fill="#FC0" d="M727.368 580.652h-14.154l-5.902 6.672h-12.128c-7.65 0-14.65 4.293-18.108 11.108h50.292v-17.78z"/>
            <path fill="#D4AA00" d="M675.09 602.614h54.261v-4.18H675.09z"/>
            <path fill="#F7D3A9" d="M681.914 457.388l-12.037 5.471-5.65-12.428 12.034-5.474z"/>
            <path fill="#323076" d="M623.14 376.969l12.486 30.673 29.623 47.456 14.434-6.518-29.741-55.93-22.15-70.995z"/>
            <path fill="#FFF" d="M665.368 454.68l-1.008.446-4.715 11.448-2.612 4.005-8.199 2.252.015 3.359 9.667.185 29.77-12.544.621-4.023-4.105-9.294-2.597-.455-2.027.892-2.625 6.778-9.342 3.993z"/>
            <path fill="#115EE1" d="M688.898 459.786l-4.096-9.273-2.598-.455-2.027.892-2.624 6.778-9.343 3.997-2.843-7.046-1.007.45-4.715 11.444-2.613 4.009-8.198 2.251.003.85h7.109z"/>
            <path fill="#F7D3A9" d="M618.489 467.563h13.22V453.91h-13.22z"/>
            <path fill="#F8AA8F" d="M593.518 296.253l17.143 99.55 7.583 62.946h13.712s1.162-58.88-2.844-66.835l2.844-68.186a43.052 43.052 0 0 0 1.262-20.617 15.151 15.151 0 0 0-3.65-7.416l-.456-.507-35.594 1.065z"/>
            <path fill="#25235C" d="M637.215 410.189c-.777-9.033-1.803-16.43-3.144-18.864l.195-48.924-6.472-20.748-4.655 55.317 12.489 30.673 1.587 2.546z"/>
            <path fill="#323076" d="M593.518 296.253l17.143 99.55 7.583 62.946h13.712s1.162-58.88-2.844-66.835l2.844-68.186a43.052 43.052 0 0 0 1.262-20.617 15.151 15.151 0 0 0-3.65-7.416l-.456-.507-35.594 1.065z"/>
            <path fill="#FFF" d="M616.654 458.749h-1.102l-8.938 8.568-14.198 5.39v3.67h41.506l2.194-3.428V462.79l-2.194-1.468h-2.212l-5.14 5.14-10.162-.122z"/>
            <path fill="#115EE1" d="M631.71 461.32l-5.14 5.14-10.162-.12.246-7.593h-1.102l-8.939 8.572-13.951 5.292h43.453v-9.822l-2.194-1.469z"/>
            <path fill="#F7D3A9" d="M617.876 221.28h13.587v-13.22h-13.587z"/>
            <path fill="#525D7A" d="M617.958 212.607a17.883 17.883 0 0 0 10.929-7.412l-11.958 2.515 1.029 4.897z" opacity=".252"/>
            <path fill="#F7D3A9" d="M614.328 179.293l-.613 7.343s-2.816 5.752-5.386 7.224c0 0 .492 1.957 1.836 2.079l-.082 9.527a4.632 4.632 0 0 0 4.633 4.673h4.451c7.768 0 14.65-5.01 17.035-12.401l3.465-10.732-5.022-10.53-12.607-.733s-4.894-.856-7.71 3.55"/>
            <path fill="#525D7A" d="M620.79 210.008c7.085-.646 13.196-5.4 15.411-12.27l3.466-10.735-5.022-10.526-12.607-.734s-4.895-.856-7.71 3.55l-.3 3.571a23.052 23.052 0 0 0 4.696 2.9c.731.34 1.833.535 2.464.996.737.543 1.302 2.057 1.632 2.886.158.388.289.791.459 1.177.734 1.647 3.189 2.855 3.137 4.788-.021.822-.64 1.499-1.287 2.005-.646.507-1.38.95-1.811 1.651-.731 1.196-.364 2.734.052 4.075.382 1.229.919 2.867.224 4.093-.592 1.041-1.915 1.712-2.804 2.573" opacity=".134"/>
            <path fill="#323076" d="M613.794 173.497c-2.852 3.38-.37 7.734 2.41 10.265 1.605 1.459 3.501 2.557 5.461 3.474.725.34 1.83.53 2.458.992.74.543 1.302 2.057 1.632 2.885.158.392.292.792.462 1.18.73 1.645 3.189 2.853 3.137 4.786-.024.822-.643 1.502-1.29 2.008-.646.507-1.377.95-1.808 1.651-.734 1.196-.367 2.73.052 4.072.382 1.232.919 2.867.224 4.093-.652 1.15-2.22 1.833-3.083 2.837-.968 1.12-2.218 1.83-3.143 3.025-1.36 1.745-1.645 4.182-2.98 5.775-1.429 1.705-3.95 2.63-5.744 3.893-2.096 1.471-4.008 3.735-3.78 6.287 3.86-1.339 8.66.64 11.936-1.8.595-.446 1.093-1.01 1.675-1.474 1.414-1.123 3.229-1.575 4.84-2.391a11.692 11.692 0 0 0 4.09-3.438c1.578.561 3.308.376 4.97.179 2.312-.267 4.71-.57 6.673-1.815 1.693-1.07 2.897-2.743 4.062-4.372l1.77-2.479c.54-.756 1.08-1.514 1.583-2.294 2.758-4.266 4.412-9.44 3.608-14.455-.716-4.427-3.238-8.32-5.698-12.067-1.948-2.962-3.893-5.923-5.841-8.881-.725-1.105-1.466-2.228-2.5-3.047-.91-.722-2.003-1.174-3.114-1.52-3.817-1.18-7.895-1.156-11.885-.944-3.695.2-7.789.747-10.177 3.575"/>
            <path fill="#F7D3A9" d="M600.253 237.025l-19.228-2.7a17.34 17.34 0 0 1-9.21-4.595l-32.323-30.643-3.81-2.472-11.018-4.421-6.038-4.685c-1.736-1.608-.695-2.892.958-2.719l4.713 3.866 2.202.92 1.284-.735-7.525-7.528c.03-.589 1.247-1.496 1.833-1.469l6.793 6.424 1.533-1.405-7.677-8.372c-1.016-1.423 1.678-1.911 4.154.368l4.93 6.839 1.47-.55-4.64-9.603c.406-.667 1.896.531 2.576.917 2.564 1.45 6.284 9.054 6.284 9.054l2.573.734 1.468-2.388-.549-3.12 4.163 4.24-.534 6.617 29.972 27.885 26.884 6.232-1.238 13.309z"/>
            <path fill="#525D7A" d="M582.495 231.386a17.337 17.337 0 0 1-9.212-4.594l-32.32-30.643-3.812-2.473-10.474-4.202-.176.1-2.206-.92-4.712-3.862c-1.65-.176-2.692 1.11-.959 2.716l6.038 4.688 11.018 4.417 3.81 2.473 32.324 30.646a17.344 17.344 0 0 0 9.212 4.591l19.228 2.7.289-3.104-18.048-2.533z" opacity=".134"/>
            <g fill="#525D7A">
                <path d="M613.21 174.532c1.484-2.278 4.033-3.447 6.725-4.166-2.376.446-4.61 1.317-6.142 3.132-.519.619-.813 1.274-1.01 1.941.127-.303.236-.606.428-.907"/>
                <path d="M617.332 225.347c1.624-1.475 4.012-2.706 5.22-4.573 1.125-1.747 1.104-4.202 2.232-6.101.774-1.3 1.93-2.158 2.746-3.39.735-1.101 2.21-1.975 2.71-3.195.54-1.304-.2-2.861-.731-4.035-.58-1.278-1.132-2.758-.556-4.036.34-.75 1.014-1.28 1.59-1.863.58-.582 1.111-1.332 1.03-2.148-.186-1.927-2.777-2.819-3.703-4.36-.221-.364-.4-.747-.607-1.117-.427-.78-1.174-2.212-1.975-2.66-.683-.38-1.802-.435-2.567-.68a22.92 22.92 0 0 1-4.97-2.273 24.2 24.2 0 0 0 3.914 2.318c.725.34 1.83.534 2.458.995.74.54 1.302 2.054 1.632 2.883.158.394.292.795.462 1.18.73 1.648 3.189 2.855 3.137 4.788-.024.822-.643 1.499-1.29 2.006-.646.506-1.377.95-1.808 1.65-.734 1.196-.367 2.734.052 4.072.382 1.232.919 2.87.224 4.096-.652 1.147-2.22 1.833-3.083 2.838-.968 1.12-2.218 1.83-3.146 3.022-1.356 1.744-1.642 4.18-2.977 5.777-1.429 1.705-3.95 2.627-5.744 3.89-2.096 1.474-4.01 3.735-3.78 6.29 2.033-.704 4.327-.498 6.523-.495.304-1.845 1.572-3.577 3.007-4.879" opacity=".134"/>
            </g>
            <path fill="#25235C" d="M629.567 295.696l-.452-.507-35.598 1.065 1.584 9.191c13.436-3.301 28.252 15.299 38.741 7.91.2-3.416-.003-6.854-.625-10.246a15.141 15.141 0 0 0-3.65-7.413" opacity=".452"/>
            <path fill="#56408B" d="M632.213 215.148s11.248 4.172 11.797 14.27L630.5 274.953l3.799 25.976c-11.83 10.505-29.396-7.124-44.452 4.078l14.504-57.778a14.827 14.827 0 0 1-2.045-12.74l.421-1.409 14.783-11.918 14.704-6.014z"/>
            <g fill="#2B2046">
                <path d="M606.049 245.093l-2.707.468c.298.573.634 1.131 1.008 1.668l-14.504 57.779a19.55 19.55 0 0 1 3.453-2.055l13.988-55.724a14.906 14.906 0 0 1-1.238-2.136" opacity=".261"/>
                <path d="M603.584 301.163c7.743.41 15.502 3.696 22.316 3.207-6.957-.443-14.707-3.632-22.316-3.207"/>
            </g>
            <path fill="#2B2046" d="M629.114 224.217l-16.246.685-10.14 8.178-.425 1.407a14.822 14.822 0 0 0 1.056 11.078l22.362-4.038 3.393-17.31z" opacity=".261"/>
            <path fill="#56408B" d="M629.114 221.279l-27.515 1.162-1.35 16.488 30.248 2.242z"/>
            <path fill="#323076" d="M653.343 201.404c-.02-2.064-.109-4.315-1.456-5.88-.619-.717-1.447-1.215-2.26-1.7-.705-.422-1.415-.844-2.182-1.135-3.441-1.31-7.298.197-10.471 2.073-1.948 1.15-3.824 2.506-5.356 4.187-.743.82-1.417 1.711-1.939 2.688-.673 1.268-.692 1.681-.333 2.965.983 3.513 1.401 7.206 2.867 10.547 1.471 3.337 4.354 6.402 7.992 6.684-1.827 6.3.194 12.177 1.193 17.823 1.177-1.317 2.163-3.286 2.906-4.563 1.408-2.412 2.813-4.822 4.163-7.264 1.672-3.025 3.265-6.123 4.263-9.43 1.654-5.493.674-11.346.613-16.995"/>
            <path fill="#25235C" d="M653.343 201.404a21.913 21.913 0 0 0-.154-2.476c-.003-.85-.043-1.7-.18-2.546-.715-4.427-3.237-8.32-5.698-12.067l-5.84-8.885c-.726-1.101-1.466-2.224-2.5-3.043-.911-.722-2.003-1.177-3.117-1.52-3.814-1.183-7.892-1.156-11.882-.944-3.696.197-7.789.747-10.177 3.575a5.16 5.16 0 0 0-1.147 2.418c2.41-2.21 6.053-2.737 9.394-2.962 3.984-.267 8.062-.345 11.894.786 1.114.328 2.212.768 3.135 1.478 1.04.807 1.799 1.918 2.54 3.01 1.984 2.937 3.971 5.871 5.956 8.805 2.515 3.714 5.085 7.574 5.859 11.989.145.846.203 1.693.212 2.542.118.823.17 1.66.191 2.476.134 5.647 1.193 11.488-.388 17.001-.352 1.23-.81 2.425-1.299 3.608 1.017-2.02 1.936-4.087 2.588-6.25 1.654-5.493.674-11.346.613-16.995"/>
            <path fill="#FFF" d="M167.518 589.864h13.763v-14.98h-13.763zM125.784 579.594l10.31 6.46 7.32-11.688-10.311-6.457z"/>
            <path fill="#115EE1" d="M163.063 602.614H146.9l-29.942-17.183 8.505-14.12 1.532 1.358-1.174 5.116 13.254 7.646 3.061-4.423 2.722 1.359 2.042 8.508 5.701 4.764 4.182.273a6.716 6.716 0 0 1 6.28 6.702"/>
            <path fill="#5854B0" d="M162.546 516.26l-33.486 56.534 11.9 6.936 23.322-27.299z"/>
            <path fill="#0D3B8A" d="M163.063 602.614H146.9l-29.942-17.183 2.558-4.25L150.11 598.5c1.01-4.118 2.491-2.861 2.491-2.861l4.182.273a6.716 6.716 0 0 1 6.28 6.702"/>
            <path fill="#2B2046" d="M158.053 523.846l4.494-7.586 1.735 36.171-4.6 5.383z" opacity=".265"/>
            <path fill="#5854B0" d="M202.913 437.74v6.587c0 2.959-.388 5.908-1.153 8.77l-17.778 66.394s.434 52.763-1.083 60.995h-17.27l-3.162-65.88 1.541-55.563a45.006 45.006 0 0 1-7.203-24.24l-.019-4.367h46.127v7.304z"/>
            <path fill="#2B2046" d="M179.125 519.493l17.778-66.399a34.07 34.07 0 0 0 1.138-7.84l4.858-.003a33.635 33.635 0 0 1-1.141 7.843l-17.775 66.399s.434 52.762-1.083 60.994h-4.858c1.517-8.232 1.083-60.994 1.083-60.994" opacity=".265"/>
            <path fill="#115EE1" d="M162.929 602.614h51.952v-1.957a6.276 6.276 0 0 0-6.278-6.275h-2.224l-18.284-12.816h-2.36l.133 3.777-20.375.137-.81-3.914h-1.754v21.048z"/>
            <path fill="#0D3B8A" d="M214.88 600.659v1.957h-51.952v-3.78h39.985c-.361-3.778 3.465-4.452 3.465-4.452h2.227a6.273 6.273 0 0 1 6.275 6.275"/>
            <path fill="#FFF" d="M234.851 376.225a7.766 7.766 0 0 0-6.514-3.544h-9.142c-1.99 0-3.905.765-5.347 2.136l-.452.431h-15.113v3.763l36.568-.022v-2.764z"/>
            <path fill="#F7D3A9" d="M156.788 317.14l14.673 11.537 12.52-15.927-6.664-12.862a10.098 10.098 0 0 0-11.639-5.089l-1.517 10.298a15.588 15.588 0 0 1-3.887 8.211l-3.486 3.832z"/>
            <path fill="#F5F7F9" d="M204.023 382.72l50.047.034a2.389 2.389 0 0 0 2.388-2.388v-.322a2.39 2.39 0 0 0-2.388-2.39l-50.04-.034a2.39 2.39 0 0 0-2.392 2.388v.321a2.385 2.385 0 0 0 2.385 2.391"/>
            <path fill="#DFE2EC" d="M201.638 379.994c0-.58.233-1.089.576-1.502a2.374 2.374 0 0 0 2.37 2.364l50.077.03c.731.004 1.36-.348 1.793-.87 0 .006.003.009.003.012v.352a2.37 2.37 0 0 1-2.373 2.373l-50.074-.034a2.372 2.372 0 0 1-2.372-2.373v-.352zM254.355 377.073l.085.048a.72.72 0 0 0 .977-.276l23.995-42.734a.716.716 0 0 0-.273-.974l-.085-.049a.715.715 0 0 0-.977.273l-23.995 42.735a.722.722 0 0 0 .273.977"/>
            <path fill="#191C3C" d="M218.344 380.792h4.694v-1.8h-4.691zM212.789 380.79h4.69v-1.8h-4.69zM242.538 380.81l4.69.002v-1.8l-4.69-.002z"/>
            <path fill="#525D7A" d="M171.04 298.09l.222-3.195c2.54.768 4.763 2.5 6.053 4.995l6.666 12.859-3.45 4.387-3.292-3.119a20.05 20.05 0 0 1-6.199-15.927" opacity=".134"/>
            <path fill="#F7D3A9" d="M203.545 285.503v9.995l-3.508 2.027-.246 9.715-3.128-1.35-4.014 6.296c-2.076 3.26-6.454 4.124-9.616 1.903l-5.088-3.578a20.056 20.056 0 0 1-8.46-14.85l-1.025-13.25 1.896-1.584a35.072 35.072 0 0 1 29.195-7.494l1.566.306 1.602 5.79c.55 1.978.826 4.023.826 6.074"/>
            <path fill="#525D7A" d="M168.461 282.41l1.896-1.583a35.065 35.065 0 0 1 29.193-7.495l1.566.307 1.605 5.79c.546 1.978.825 4.023.825 6.074v.834c-.859-.164-1.7-.418-2.46-.846-.911-.504-.893-.75-1.76-.24-.565.33-1.026.853-1.612 1.183-2.33 1.299-5.319 1.496-7.731.292-.218-.107-.458-.228-.692-.161-.243.07-.382.321-.491.549-2.931 6.093-5.878 5.538-5.732 3.89.149-1.654-.155-3.45-1.31-4.646-1.372-1.416-3.779-2.281-5.538-1.39-1.757.89-3.365 1.736-3.845 3.648-.482 1.912-1.162 5.622-.78 7.558.295 1.481-1.948 1.554-2.108-.513l-1.026-13.25z" opacity=".134"/>
            <path fill="#323076" d="M166.074 288.783c.064-2.315.021-4.636.297-6.933.568-4.737 2.485-10.429 5.656-14.091 1.369-1.578 3.332-2.773 5.42-2.722 1.019.027 2.184.552 3.2.243.899-.27 1.42-1.183 2.091-1.77.98-.855 2.355-1.204 3.623-1.34 5.028-.54 10.253 1.062 14.112 4.33 1.269 1.074 2.388 2.309 3.578 3.465 3.03 2.952 6.32 6.26 10.887 4.842.142-.045.336-.072.41.058.026.046.026.1.026.155.003 1.95-1.15 3.768-2.676 4.985-1.526 1.22-3.392 1.924-5.252 2.51-1.22.382-2.464.725-3.738.77a8.193 8.193 0 0 1-4.242-1.032c-.91-.506-.892-.749-1.76-.24-.564.331-1.022.853-1.611 1.181-2.333 1.302-5.32 1.496-7.731.294-.219-.109-.459-.23-.692-.163-.243.072-.386.321-.492.552-1.216 2.618-1.46 5.586-2.451 8.298-.098.264-.216.55-.459.692-.236.14-.528.116-.8.085-.999-.103-2-.206-2.998-.312.294-1.636.83-3.223.977-4.876.148-1.654-.155-3.45-1.311-4.643-1.372-1.417-3.72-1.61-5.477-.719-1.76.89-2.943 2.692-3.423 4.603-.48 1.915-.327 3.936.055 5.871.294 1.478.674 3.177-.255 4.37-.528.676-1.368 1.013-2.179 1.307a55.077 55.077 0 0 1-3.868 1.23 77.74 77.74 0 0 0 1.083-11"/>
            <path fill="#25235C" d="M204.05 273.205c-1.19-1.16-2.31-2.394-3.575-3.465-3.862-3.268-9.087-4.873-14.115-4.33-1.268.136-2.64.485-3.62 1.34-.673.583-1.195 1.5-2.093 1.77-1.017.31-2.179-.216-3.202-.243-2.087-.054-4.05 1.141-5.419 2.722-3.17 3.66-5.085 9.351-5.656 14.09-.276 2.298-.233 4.619-.297 6.934-.067 2.549-.31 5.086-.628 7.613-.152.043-.3.103-.455.146a76.858 76.858 0 0 0 1.083-11c.064-2.312.021-4.636.297-6.933.57-4.736 2.486-10.428 5.656-14.088 1.369-1.58 3.332-2.776 5.42-2.721 1.022.024 2.184.552 3.2.242.899-.273 1.42-1.186 2.094-1.769.98-.858 2.352-1.207 3.62-1.344 5.028-.54 10.253 1.062 14.115 4.333 1.266 1.071 2.385 2.306 3.575 3.465 3.031 2.95 6.32 6.26 10.89 4.84.142-.043.333-.073.41.057a.333.333 0 0 1 .024.155c.003 1.129-.407 2.194-1.026 3.14-4.26.963-7.4-2.135-10.298-4.954"/>
            <path fill="#413068" d="M171.05 291.343c.065.516.143 1.026.244 1.533.242 1.213.497 2.564.081 3.671l-.081-.434c-.31-1.568-.45-3.189-.243-4.77M181.45 291.003c-.052.573-.185 1.14-.304 1.705-.224-.021-.449-.046-.673-.07.242-1.344.607-2.673.825-4.02.18.774.222 1.593.152 2.385"/>
            <path fill="#2B2046" d="M156.788 430.436h46.126v13.891c0 .245-.042.485-.048.728-13.466 1.805-32.77-9.437-45.984-7.85-.182-1.611-.07-.768-.076-2.403l-.018-4.366z" opacity=".265"/>
            <path fill="#115EE1" d="M157.525 316.329l-4.873 7.142c-1.753 2.573-2.764 5.999-3.893 8.863-1.884 4.8-2.925 9.84-3.304 14.462v7.855c0 2.97.319 5.935.953 8.839l5.216 23.84a69.111 69.111 0 0 1 1.056 23.379l-3.377 25.248c14.166-10.244 45.189 9.68 60.57.321l-8.506-45.456a120.487 120.487 0 0 0-1.314-13.936l-2.154-14.045a75.448 75.448 0 0 0-17.83-38.268l-2.836-3.24-19.708-5.004z"/>
            <path fill="#312075" fill-opacity=".332" d="M148.76 332.335c1.13-2.864 2.14-6.29 3.894-8.863l4.873-7.142 2.758.7-4.394 6.442c-1.754 2.573-2.767 5.999-3.893 8.863-1.884 4.8-2.925 9.837-3.304 14.461v7.853c0 2.974.318 5.938.953 8.842l5.215 23.84a69.171 69.171 0 0 1 1.056 23.376l-3.143 23.476c-1.232.455-2.415 1.004-3.474 1.772l3.38-25.248a69.094 69.094 0 0 0-1.06-23.376l-5.212-23.84a41.44 41.44 0 0 1-.953-8.842v-7.853c.38-4.624 1.42-9.66 3.305-14.46"/>
            <path fill="#115EE1" d="M174.412 343.512l11.358 41.457 42.267 1.074 1.213 7.328-44.548 6.566a13.457 13.457 0 0 1-14.255-7.837l-18.151-40.735c-2.249-5.05.37-10.936 5.625-12.644l4.664-1.511c5.016-1.63 10.383 1.229 11.827 6.302"/>
            <path fill="#312075" fill-opacity=".332" d="M156.139 353.116l15.926 35.743a13.456 13.456 0 0 0 14.255 7.838l42.446-6.257.486 2.931-44.549 6.566a13.461 13.461 0 0 1-14.258-7.837l-18.15-40.735c-3.806-7.234 2.845.37 3.844 1.75"/>
            <path fill="#F7D3A9" d="M229.251 392.52l17.811-3.138 7.995-2.834 3.28-4.582a3.895 3.895 0 0 0-.473-5.088l-.683-.652-7.085 7.085-19.428-.207-2.46 3.972 1.043 5.444z"/>
            <path fill="#525D7A" d="M229.251 390.303l17.811-3.137.901-.322a19.664 19.664 0 0 0 10.702-9.118v3.062l-3.62 5.088-7.983 3.505-17.811 3.137-1.044-5.44.325-.525.719 3.75z" opacity=".134"/>
        </g>
        <path fill="#115EE1" d="M301 573.94v-3.035h34.172v3.034H301zm0 6.796v-3.034h34.172v3.034H301zm0 6.797v-3.034h34.172v3.034H301zm212.622-13.594v-3.034h34.171v3.034h-34.171zm0 6.797v-3.034h34.171v3.034h-34.171zm0 6.797v-3.034h34.171v3.034h-34.171zm-108.599-45.499V539h40.225v3.034h-40.225zm0 7.999v-3.035h40.225v3.035h-40.225zm0 8V555h40.225v3.034h-40.225z"/>
        <g fill="#323076">
            <path d="M428.502 446.806l12.212 7.05a5.33 5.33 0 0 1 1.201-.95 5.304 5.304 0 0 1 7.235 1.941 5.304 5.304 0 0 1-1.942 7.235c-.44.253-.915.442-1.41.561v14.107c.49.119.959.307 1.395.558a5.278 5.278 0 0 1 1.941 7.234c-1.456 2.533-4.701 3.397-7.234 1.942a5.258 5.258 0 0 1-1.309-1.063l-12.137 7.007a5.3 5.3 0 0 1-5.026 6.962 5.288 5.288 0 0 1-5.293-5.293c0-.52.075-1.023.214-1.498l-12.208-7.049c-.349.366-.748.68-1.185.934-2.548 1.455-5.778.59-7.234-1.942a5.305 5.305 0 0 1 1.941-7.234c.436-.251.906-.44 1.395-.558v-14.107a5.306 5.306 0 0 1-1.41-.561c-2.533-1.456-3.397-4.702-1.941-7.235 1.456-2.532 4.701-3.397 7.234-1.94.442.255.844.573 1.195.944l12.216-7.053a5.308 5.308 0 0 1-.217-1.505 5.288 5.288 0 0 1 5.293-5.293 5.288 5.288 0 0 1 5.293 5.293c0 .526-.076 1.034-.219 1.513zm-1.272 2.172l12.241 7.068a5.285 5.285 0 0 0 .503 4.094 5.264 5.264 0 0 0 3.306 2.49v14.125a5.347 5.347 0 0 0-.205.055l-15.987-27.69c.048-.046.096-.094.142-.141zm-7.458.145l-15.988 27.69a5.332 5.332 0 0 0-.208-.056V462.63a5.264 5.264 0 0 0 3.306-2.49 5.286 5.286 0 0 0 .501-4.103l12.238-7.065.15.15zm5.135 1.254l15.984 27.684a5.306 5.306 0 0 0-1.49 2.584h-31.945a5.308 5.308 0 0 0-.559-1.396 5.332 5.332 0 0 0-.93-1.182l15.987-27.689a5.31 5.31 0 0 0 2.953-.001zm2.435 40.154l12.162-7.022a5.34 5.34 0 0 1-.098-.347H407.45a5.342 5.342 0 0 1-.055.205l12.22 7.056a5.277 5.277 0 0 1 3.814-1.62 5.278 5.278 0 0 1 3.914 1.728z"/>
        </g>
    </g>
</svg>
