<svg xmlns="http://www.w3.org/2000/svg" width="28" height="34" viewBox="0 0 28 34">
    <g fill="#115EE1" fill-rule="nonzero">
        <path d="M27.834 8.535c-.017-.895-.033-1.74-.033-2.558 0-.641-.52-1.16-1.16-1.16-4.963 0-8.74-1.427-11.89-4.488a1.16 1.16 0 0 0-1.617 0C9.985 3.39 6.208 4.816 1.247 4.816c-.641 0-1.16.52-1.16 1.16 0 .819-.017 1.664-.034 2.56-.159 8.328-.377 19.733 13.51 24.547a1.16 1.16 0 0 0 .76 0c13.887-4.814 13.67-16.22 13.51-24.548zm-13.891 22.22C2.033 26.43 2.213 16.952 2.373 8.58c.01-.503.02-.99.026-1.467 4.647-.196 8.363-1.605 11.544-4.376 3.181 2.771 6.898 4.18 11.546 4.376.006.477.015.964.025 1.466.16 8.372.34 17.85-11.571 22.176z"/>
        <path d="M17.938 12.543l-5.6 5.6-2.39-2.39a1.16 1.16 0 0 0-1.64 1.64l3.21 3.21a1.157 1.157 0 0 0 1.64 0l6.42-6.42a1.16 1.16 0 1 0-1.64-1.64z"/>
    </g>
</svg>
