<svg xmlns="http://www.w3.org/2000/svg" width="146" height="44" viewBox="0 0 146 44">
    <g fill="none" fill-rule="evenodd">
        <path d="M-18-17h181v78H-18z"/>
        <g fill="#CED3D9" fill-rule="nonzero">
            <path d="M52.3 17.3c0-4.378 3.153-7.436 8.881-7.436 3.495 0 6.355 1.13 7.905 2.238.222.158.617.541.38 1.255-.304.768-.861 1.924-1.261 2.674-.233.438-.828.38-1.133.224-1.103-.567-2.914-1.525-4.577-1.702a9.615 9.615 0 0 0-1.268-.056c-1.465.034-2.688.549-3.12 1.68a2.014 2.014 0 0 0-.138.673c-.04 1.491 2.009 2.03 4.491 2.462 4.616.801 8.107 2.172 8.107 6.984 0 4.086-3.206 7.779-9.488 7.665-4.14-.084-7.079-1.502-8.653-2.877-.054-.047-.653-.665-.332-1.408.368-.958.988-2.055 1.475-2.637.271-.374.986-.434 1.357-.2 1.298.816 3.433 2.126 5.895 2.213.195.007.387.008.576.003 2.215-.054 3.554-.905 3.526-2.338-.024-1.262-1.78-2-4.575-2.533-4.46-.85-8.047-2.34-8.047-6.883zm40.512 6.236c-3.145.042-6.028.912-6.11 3.401-.002 1.976 1.58 2.946 3.8 2.819 2.13-.208 3.755-1.143 4.47-2.385.265-.46.305-2.182.289-2.918-.004-.156-.31-.453-.444-.51-.668-.285-1.162-.373-2.005-.408v.001zm-10.463-10.03c1.47-1.333 4.386-3.407 9.032-3.298 6.132.13 9.372 3.04 9.673 10.006.124 2.873-.081 10.885-.13 12.881-.008.287-.103.485-.485.492-1.01.041-3.342.025-4.414.01-.541-.026-.604-.298-.61-.582l-.033-1.189c-.006-.238-.227-.232-.284-.17-1.438 1.555-3.794 2.306-6.299 2.306-3.807 0-7.603-2.268-7.591-6.761.011-4.601 3.232-6.871 6.77-7.406 2.267-.342 4.82-.038 6.755.74.123.05.376-.022.378-.2.008-.586-.02-1.703-.131-2.233-.284-1.35-1.395-2.435-3.73-2.728-.48-.06-.965-.08-1.45-.04-1.855.147-4.089 1.613-5.014 2.162-.217.129-.558.034-.668-.11-.54-.706-1.897-2.771-2.004-3.102-.106-.329.044-.606.234-.78v.002zm20.727 8.565c-.036-6.417 4.378-11.83 11.546-11.878 4.473-.03 7.722 2.024 8.295 2.993.116.228.056.418-.024.647-.379.81-1.335 2.374-2.017 3.26-.29.378-.605.054-.971-.192-1.016-.686-2.947-1.524-4.848-1.524-3.447 0-6.014 2.395-5.986 6.8.027 4.227 2.486 6.55 5.998 6.634 1.836.047 3.615-1.022 4.572-1.898.3-.265.612-.132.955.14.674.697 1.64 1.774 2.177 2.516.35.412.088.815-.038.977-1.454 1.864-4.263 3.432-7.98 3.454-7.782.055-11.642-5.488-11.678-11.928zm37.149 11.64c.365-.029 4.263-.573 5.46-.85.297-.07.402-.322.236-.573-.668-1.015-2.424-3.897-4.264-6.477-1.692-2.372-3.476-4.458-4.053-5.26-.14-.196-.133-.388.02-.54 1.098-1.087 5.688-5.645 7.413-7.528.669-.732.267-1.047-.3-1.218-1.096-.331-2.87-.744-3.878-.96-.425-.09-.937-.058-1.308.329-1.726 1.63-6.992 6.983-8.564 8.583-.283.289-.448.225-.45-.188-.012-3.085-.072-16.294-.18-18.467-.008-.287-.35-.505-.542-.516-.988-.052-3.485-.067-4.47-.008-.275.031-.539.316-.563.556-.227 3.475.097 28.977.231 32.545.01.258.2.458.442.473.981.057 3.41.053 4.543.032.558 0 .627-.397.627-.397l.084-6.844s.057-.304.15-.405c.4-.436 1.506-1.636 1.977-2.1.113-.111.292-.103.407.054.56.766 2.158 3.254 3.639 5.476 1.36 2.042 2.63 3.853 2.719 3.981.205.296.444.308.624.302zm-66.297-.024c.342.011 2.943.008 4.096.007.388.007.59-.29.602-.553.245-5.002.14-28.817-.014-32.577-.013-.325-.15-.447-.37-.477-.989-.134-3.8-.103-4.7.136a.366.366 0 0 0-.286.356c-.22 9.693-.072 32.04-.025 32.464.046.424.265.629.697.644zM13.867 12.772l7.742-2.654L20.2 5.983l-.052-.171c-.562-1.942.519-3.967 2.456-4.612a3.834 3.834 0 0 1 2.916.196 3.777 3.777 0 0 1 1.923 2.178l1.386 4.07 4.308-1.477A4.057 4.057 0 0 1 34.253 6c1.654-.013 3.057.99 3.573 2.557l.045.15c.572 2.046-.849 3.872-2.551 4.457l-4.12 1.44 2.73 8.019 4.119-1.417c.394-.134.8-.202 1.21-.206 1.623-.012 3.05.997 3.554 2.513l.046.158a3.985 3.985 0 0 1-.465 3.155c-.436.691-1.813 1.3-1.813 1.3l-4.27 1.486 1.501 4.406.03.098c.583 2.016-.496 4.042-2.432 4.688a3.897 3.897 0 0 1-1.186.196 3.812 3.812 0 0 1-3.653-2.57l-1.468-4.31-7.736 2.691L22.8 39.02c.325.95.254 1.987-.197 2.884a3.8 3.8 0 0 1-2.204 1.899 3.875 3.875 0 0 1-1.185.197h.001a3.811 3.811 0 0 1-3.652-2.572l-1.398-4.11-4.188 1.457c-.417.143-.854.22-1.295.225-1.62.011-2.985-.95-3.481-2.449a4.022 4.022 0 0 1-.053-.172c-.554-1.97.505-4.03 2.412-4.683l4.2-1.445-2.694-7.916-4.148 1.449c-.4.139-.819.212-1.241.216-1.612.012-2.977-.97-3.48-2.503a4.173 4.173 0 0 1-.052-.175c-.548-1.964.515-4.018 2.421-4.676l4.087-1.4-1.451-4.267a3.733 3.733 0 0 1 .196-2.883A3.8 3.8 0 0 1 7.6 6.197 3.9 3.9 0 0 1 8.786 6a3.81 3.81 0 0 1 3.652 2.57l1.43 4.202zm2.399 7.047l2.705 7.95 7.743-2.663-2.72-7.986-7.728 2.7z"/>
        </g>
    </g>
</svg>
