<svg xmlns="http://www.w3.org/2000/svg" xmlns:xlink="http://www.w3.org/1999/xlink" width="290" height="206" viewBox="0 0 290 206">
    <defs>
        <path id="b" d="M261.623 130.856H89.95a4.117 4.117 0 0 1-4.112-4.122V20.64a4.117 4.117 0 0 1 4.112-4.122h171.674a4.117 4.117 0 0 1 4.112 4.122v106.095a4.117 4.117 0 0 1-4.112 4.122"/>
        <filter id="a" width="105.6%" height="108.7%" x="-4.2%" y="-6.6%" filterUnits="objectBoundingBox">
            <feOffset dx="-5" dy="-5" in="SourceAlpha" result="shadowOffsetOuter1"/>
            <feColorMatrix in="shadowOffsetOuter1" values="0 0 0 0 0.835294118 0 0 0 0 0.854901961 0 0 0 0 0.949019608 0 0 0 0.406787817 0"/>
        </filter>
    </defs>
    <g fill="none" fill-rule="evenodd">
        <path fill="#E6ECF4" d="M243.665 171.755c11.512-7.049 15.141-22.118 8.104-33.653a24.335 24.335 0 0 0-5.793-6.487 91.393 91.393 0 0 1 10.048-11.921 115.097 115.097 0 0 1 5.345-5.009c.722.61 1.429 1.24 2.117 1.899l6.001-3.675a6.506 6.506 0 0 1 8.956 2.165l5.946 9.747a6.534 6.534 0 0 1-2.161 8.973l-6.001 3.675a47.168 47.168 0 0 1 1.921 13.894l6.782 1.897c3.465.969 5.49 4.569 4.524 8.041l-3.064 11.005c-.968 3.472-4.56 5.502-8.026 4.533l-6.776-1.894a46.994 46.994 0 0 1-6.448 8.55l3.669 6.012a6.537 6.537 0 0 1-2.161 8.976l-9.728 5.958a6.509 6.509 0 0 1-8.955-2.169l-3.668-6.011a46.737 46.737 0 0 1-10.673 1.845 75.032 75.032 0 0 1-2.68-22.784 24.238 24.238 0 0 0 12.721-3.567" opacity=".52"/>
        <path fill="#E3EAFF" d="M226.664 200.154H16.97c-5.69 0-10.303-4.622-10.303-10.324V46.513c0-5.701 4.613-10.324 10.303-10.324h209.695c5.69 0 10.303 4.623 10.303 10.324V189.83c0 5.702-4.613 10.324-10.303 10.324"/>
        <path fill="#FDFDFD" d="M225.771 197.998H17.861c-4.508 0-8.165-3.665-8.165-8.183V46.529c0-4.518 3.657-8.183 8.166-8.183h207.91c4.508 0 8.164 3.665 8.164 8.183v143.286c0 4.518-3.656 8.183-8.165 8.183"/>
        <path fill="#E3EAFF" d="M1.074 191.653C.411 192.878 0 194.26 0 195.753c0 4.778 3.865 8.653 8.636 8.653h226.361c4.77 0 8.636-3.875 8.636-8.654 0-1.492-.41-2.874-1.075-4.1H1.074z"/>
        <path fill="#747199" fill-opacity=".126" d="M1.074 199.851c1.462 2.7 4.282 4.554 7.562 4.554h226.361c3.282 0 6.1-1.853 7.56-4.554H1.075z"/>
        <path fill="#323076" fill-opacity=".04" d="M226.664 36.19H72.987v102.906a4.117 4.117 0 0 0 4.113 4.12h159.867V46.513c0-5.701-4.613-10.324-10.303-10.324"/>
        <path fill="#E3EAFF" d="M254.427 138.58H82.753a4.115 4.115 0 0 1-4.112-4.12V28.363a4.116 4.116 0 0 1 4.112-4.12h171.674a4.118 4.118 0 0 1 4.114 4.12V134.46a4.117 4.117 0 0 1-4.114 4.12"/>
        <g>
            <use fill="#000" filter="url(#a)" xlink:href="#b"/>
            <use fill="#FFF" xlink:href="#b"/>
        </g>
        <path fill="#323076" fill-opacity=".172" d="M52.62 94.546H34.374a2.572 2.572 0 0 1-2.57-2.577V72.657a2.571 2.571 0 0 1 2.57-2.576h18.248a2.572 2.572 0 0 1 2.57 2.576v19.312a2.572 2.572 0 0 1-2.57 2.577"/>
        <path fill="#E3EAFF" d="M51.272 130.083H33.024a2.572 2.572 0 0 1-2.57-2.576v-19.313a2.571 2.571 0 0 1 2.57-2.575h18.248a2.572 2.572 0 0 1 2.57 2.575v19.313a2.573 2.573 0 0 1-2.57 2.576M51.272 164.848H33.024a2.572 2.572 0 0 1-2.57-2.576v-19.313a2.571 2.571 0 0 1 2.57-2.575h18.248a2.572 2.572 0 0 1 2.57 2.575v19.313a2.573 2.573 0 0 1-2.57 2.576"/>
        <path fill="#243265" d="M47.257 149.922c0-3.076-2.49-5.57-5.559-5.57a5.566 5.566 0 0 0-5.56 5.57s-.783 5.9 5.56 10.59c6.341-4.69 5.56-10.59 5.56-10.59"/>
        <path fill="#F9FBFC" d="M42.025 153.942a4.032 4.032 0 0 1-4.342-4.348c.155-1.955 1.736-3.54 3.689-3.694a4.032 4.032 0 0 1 4.34 4.348c-.155 1.957-1.736 3.54-3.687 3.694"/>
        <path fill="#243265" d="M49.279 117.527c0 4.256-3.443 7.708-7.69 7.708-4.248 0-7.692-3.452-7.692-7.708 0-4.254 3.444-7.705 7.692-7.705 4.247 0 7.69 3.45 7.69 7.705"/>
        <path fill="#F9FBFC" d="M47.79 117.527c0 3.434-2.776 6.216-6.201 6.216-3.427 0-6.203-2.782-6.203-6.216 0-3.431 2.776-6.214 6.203-6.214 3.425 0 6.201 2.783 6.201 6.214"/>
        <path fill="#F9FBFC" d="M47.79 117.527c0 3.434-2.776 6.216-6.201 6.216-3.427 0-6.203-2.782-6.203-6.216 0-3.431 2.776-6.214 6.203-6.214 3.425 0 6.201 2.783 6.201 6.214"/>
        <path fill="#243265" d="M41.571 118.075a.299.299 0 0 1-.297-.298V113.4a.297.297 0 0 1 .595 0v4.377a.299.299 0 0 1-.298.298"/>
        <path fill="#243265" d="M41.357 117.61a.297.297 0 0 1 .419-.034l2.695 2.28a.3.3 0 0 1 .034.42.295.295 0 0 1-.42.034l-2.693-2.28a.298.298 0 0 1-.035-.42"/>
        <path fill="#CED6FF" d="M41.415 112.332h.223v-.597h-.223zM41.415 123.22h.223v-.596h-.223zM35.796 117.59h.595v-.223h-.595zM46.662 117.59h.595v-.223h-.595zM37.974 113.76l-.158.158-.422-.422.16-.158zM45.658 121.46l-.157.158-.423-.422.16-.158zM37.816 121.038l.157.158-.42.423-.158-.16zM45.5 113.338l.158.158-.421.423-.158-.16z"/>
        <path fill="#115EE1" d="M51.272 93.773H33.024a2.572 2.572 0 0 1-2.57-2.576V71.884a2.572 2.572 0 0 1 2.57-2.575h18.248a2.573 2.573 0 0 1 2.57 2.575v19.313a2.572 2.572 0 0 1-2.57 2.576"/>
        <path fill="#FFF" fill-rule="nonzero" d="M44.312 84.346h1.577l-2.517-6.548h-1.744l-2.518 6.548h1.577l.412-1.11h2.379l-.431-1.227h-1.566l1.019-2.817 1.812 5.154zm5.201-4.848a.379.379 0 1 0-.731.203 6.57 6.57 0 0 1 .239 1.755c0 3.618-2.938 6.561-6.549 6.561-3.61 0-6.548-2.943-6.548-6.561s2.938-6.562 6.548-6.562c1.53 0 3.01.545 4.178 1.514a.914.914 0 1 0 .564-.518 7.319 7.319 0 0 0-4.742-1.756c-4.029 0-7.307 3.284-7.307 7.322 0 4.037 3.278 7.322 7.307 7.322 4.03 0 7.308-3.285 7.308-7.322 0-.662-.09-1.321-.267-1.958z"/>
        <path fill="#F7D3A9" d="M29.33 91.261l1.927-1.35.867-3.187-.963-.194-.577 1.16.577-5.505-.964.193-.962 5.311-1.159 2.511 1.06.675M40.733 96.992l.258-2.319 2.827-2.83.642.9-1.029 1.159 5.399-1.288v1.16l-5.012 1.93-1.028 1.804z"/>
        <path fill="#323076" d="M5.548 154.29l10.511 51.526 7.955-.853-5.397-1.993 1.989-.57-2.84-48.11z"/>
        <path fill="#323076" d="M22.31 153.437s13.354 12.525 11.364 27.612c-2.274 11.957-7.103 16.511-7.103 16.511l-1.42-.283 2.203 5.836-6.394-6.833s7.885-10.889 2.984-22.204c-4.9-11.316-15.555-15.374-15.555-15.374s9.163-8.325 9.8-8.112c.64.213 4.122 2.847 4.122 2.847"/>
        <path fill="#115EE1" d="M27.992 89.314S6.046 116.002 3.488 121.34c0 0-1.065 1.92-1.065 7.473 0 5.55 1.917 26.047 1.917 26.047l22.375 1.282s-7.246-24.982-7.459-25.623c-.214-.639-3.835-4.482-7.245-5.337l18.75-33.947-2.769-1.92z"/>
        <path fill="#F7D3A9" d="M14.095 122.605s.932 2.77 1.447 4.446c0 0-4.567-.096-6.175-2.223l1.704-4.092 3.024 1.869z"/>
        <path fill="#F7D3A9" d="M17.567 113.943s1.35 7.882 0 9.673c-1.35 1.791-5.98-1.255-7.91-4.119-1.93-2.867-2.315-9.315.965-9.853 3.28-.538 6.174 1.432 6.945 4.3"/>
        <path fill="#115EE1" d="M15.491 128.533s17.597-11.09 19.015-13.365c1.42-2.276 5.393-19.197 5.393-19.197l3.406.854s-1.987 18.91-2.555 20.902c-.568 1.99-17.88 20.475-21.853 20.475-3.972 0-5.393-5.119-3.406-9.669"/>
        <path fill="#243265" d="M8.095 109.996s2.313-3.218 6.425-2.446c4.112.773 5.14-.129 5.14-.129s-.899 4.507-3.726 5.536c-2.827 1.032-3.599.774-3.599.774s1.542 1.545 1.928 2.703c.386 1.16-1.285-1.416-1.928-.514-.642.9 0 2.833 1.285 2.703 1.287-.128.515.902 0 1.931-.513 1.03-1.285 2.32-2.055 1.932-.772-.386-3.47-1.932-4.497-5.15-1.028-3.22-1.285-6.31 1.027-7.34"/>
        <path fill="#E3EAFF" d="M148.93 119.653H98.815a1.93 1.93 0 0 1-1.927-1.93V30.423a1.93 1.93 0 0 1 1.927-1.931h50.115c1.065 0 1.928.864 1.928 1.931v87.298a1.929 1.929 0 0 1-1.928 1.931"/>
        <path fill="#323076" d="M139.55 43.557h-31.87c-.85 0-1.54-.691-1.54-1.545v-4.635c0-.854.69-1.545 1.54-1.545h31.87c.85 0 1.542.691 1.542 1.545v4.635c0 .854-.692 1.545-1.543 1.545"/>
        <path fill="#115EE1" d="M117.834 86.497h-6.94a2.957 2.957 0 0 1-2.955-2.96 2.958 2.958 0 0 1 2.955-2.96h6.94a2.957 2.957 0 0 1 2.954 2.96 2.956 2.956 0 0 1-2.954 2.96"/>
        <path fill="#323076" d="M137.88 86.497h-6.941a2.956 2.956 0 0 1-2.954-2.96 2.957 2.957 0 0 1 2.954-2.96h6.942a2.957 2.957 0 0 1 2.953 2.96 2.956 2.956 0 0 1-2.953 2.96"/>
        <path fill="#F9FBFC" d="M105.37 57.205h37.52v-5.923h-37.52zM105.37 67.249h37.52v-5.924h-37.52z"/>
        <path fill="#CDD4FF" d="M113.464 72.335h21.588v-1.352h-21.588z"/>
        <path fill="#E3EAFF" d="M262.073 102.786h-67.461c-4.152 0-7.518-3.373-7.518-7.533s3.366-7.532 7.518-7.532h67.461c4.151 0 7.518 3.373 7.518 7.532 0 4.16-3.367 7.533-7.518 7.533M209.774 78.795h-35.275a3.044 3.044 0 0 1-3.04-3.048V54.623a3.043 3.043 0 0 1 3.04-3.048h35.275a3.043 3.043 0 0 1 3.04 3.048v21.124a3.044 3.044 0 0 1-3.04 3.048"/>
        <path fill="#115EE1" d="M192.177 64.975h-.081c-.185 0-.366-.048-.527-.137l-15.941-8.874a1.091 1.091 0 0 1-.422-1.481 1.087 1.087 0 0 1 1.478-.424l15.453 8.603 15.452-8.603a1.085 1.085 0 0 1 1.478.424c.293.527.104 1.189-.422 1.48l-15.941 8.875c-.16.09-.342.137-.527.137"/>
        <path fill="#323076" d="M270.747 76.004h-45.875a2.7 2.7 0 0 1-2.698-2.703V12.27a2.701 2.701 0 0 1 2.698-2.705h45.875a2.701 2.701 0 0 1 2.697 2.705v61.032a2.7 2.7 0 0 1-2.697 2.703"/>
        <path fill="#4C98FF" d="M233.63 18.47h-3.418c-.181 0-.329-.296-.329-.661 0-.365.148-.662.33-.662h3.417c.181 0 .328.297.328.662 0 .365-.147.662-.328.662M254.778 18.47h-19.541c-.182 0-.329-.296-.329-.661 0-.365.147-.662.329-.662h19.541c.182 0 .33.297.33.662 0 .365-.148.662-.33.662"/>
        <path fill="#E535AB" d="M241.47 21.207h-6.232c-.182 0-.33-.297-.33-.662 0-.365.148-.663.33-.663h6.233c.181 0 .328.298.328.663 0 .365-.147.662-.328.662"/>
        <path fill="#E3EAFF" d="M251.723 21.207h-8.983c-.181 0-.33-.297-.33-.662 0-.365.149-.663.33-.663h8.983c.181 0 .33.298.33.663 0 .365-.149.662-.33.662M254.778 34.526h-19.541c-.182 0-.329-.297-.329-.662 0-.365.147-.661.329-.661h19.541c.182 0 .33.296.33.661 0 .365-.148.662-.33.662"/>
        <path fill="#4C98FF" d="M233.63 37.262h-3.418c-.181 0-.329-.297-.329-.662 0-.365.148-.662.33-.662h3.417c.181 0 .328.297.328.662 0 .365-.147.662-.328.662"/>
        <path fill="#E3EAFF" d="M241.47 37.262h-6.232c-.182 0-.33-.297-.33-.662 0-.365.148-.662.33-.662h6.233c.181 0 .328.297.328.662 0 .365-.147.662-.328.662"/>
        <path fill="#E535AB" d="M251.723 37.262h-8.983c-.181 0-.33-.297-.33-.662 0-.365.149-.662.33-.662h8.983c.181 0 .33.297.33.662 0 .365-.149.662-.33.662M259.625 23.942h-24.387c-.183 0-.33-.297-.33-.662 0-.365.147-.662.33-.662h24.387c.181 0 .328.297.328.662 0 .365-.147.662-.328.662"/>
        <path fill="#4C98FF" d="M254.513 26.678h-5.677a.35.35 0 0 1-.35-.349v-.626a.35.35 0 0 1 .35-.349h5.677c.193 0 .348.155.348.35v.625a.348.348 0 0 1-.348.349"/>
        <path fill="#E3EAFF" d="M243.338 26.678h-8.1c-.182 0-.33-.297-.33-.662 0-.365.148-.662.33-.662h8.1c.182 0 .33.297.33.662 0 .365-.148.662-.33.662"/>
        <path fill="#4C98FF" d="M247.649 26.678h-3.212c-.182 0-.33-.297-.33-.662 0-.365.148-.662.33-.662h3.212c.181 0 .33.297.33.662 0 .365-.149.662-.33.662"/>
        <path fill="#E3EAFF" d="M233.63 29.322h-3.418c-.181 0-.329-.297-.329-.662 0-.365.148-.661.33-.661h3.417c.181 0 .328.296.328.661 0 .365-.147.662-.328.662M259.625 29.322h-24.387c-.183 0-.33-.297-.33-.662 0-.365.147-.661.33-.661h24.387c.181 0 .328.296.328.661 0 .365-.147.662-.328.662M233.63 39.795h-3.418c-.181 0-.329-.296-.329-.661 0-.365.148-.662.33-.662h3.417c.181 0 .328.297.328.662 0 .365-.147.661-.328.661M256.896 39.795h-8a.41.41 0 0 1-.409-.41v-.503a.41.41 0 0 1 .41-.41h7.999a.41.41 0 0 1 .409.41v.504a.41.41 0 0 1-.41.41M243.338 39.795h-8.1c-.182 0-.33-.296-.33-.661 0-.365.148-.662.33-.662h8.1c.182 0 .33.297.33.662 0 .365-.148.661-.33.661M247.649 39.795h-3.212c-.182 0-.33-.296-.33-.661 0-.365.148-.662.33-.662h3.212c.181 0 .33.297.33.662 0 .365-.149.661-.33.661"/>
        <path fill="#FC0" d="M233.63 42.44h-3.418c-.181 0-.329-.297-.329-.662 0-.365.148-.662.33-.662h3.417c.181 0 .328.297.328.662 0 .365-.147.662-.328.662"/>
        <path fill="#4C98FF" d="M239.46 42.44h-4.223c-.181 0-.33-.297-.33-.662 0-.365.149-.662.33-.662h4.222c.182 0 .33.297.33.662 0 .365-.148.662-.33.662M230.212 32.058c-.181 0-.328-.297-.328-.662 0-.365.147-.662.328-.662h3.418c.181 0 .328.297.328.662 0 .365-.147.662-.328.662"/>
        <path fill="#E3EAFF" d="M258.016 32.058h-9.093a.436.436 0 0 1-.436-.435v-.453c0-.24.195-.436.436-.436h9.093c.24 0 .435.196.435.436v.453c0 .24-.195.435-.435.435"/>
        <path fill="#FC0" d="M243.338 32.058h-8.1c-.182 0-.33-.297-.33-.662 0-.365.148-.662.33-.662h8.1c.182 0 .33.297.33.662 0 .365-.148.662-.33.662M247.649 32.058h-3.212c-.182 0-.33-.297-.33-.662 0-.365.148-.662.33-.662h3.212c.181 0 .33.297.33.662 0 .365-.149.662-.33.662"/>
        <path fill="#E3EAFF" d="M254.778 45.253h-19.541c-.182 0-.329-.297-.329-.662 0-.365.147-.662.329-.662h19.541c.182 0 .33.297.33.662 0 .365-.148.662-.33.662M241.47 47.988h-6.232c-.182 0-.33-.296-.33-.661 0-.367.148-.663.33-.663h6.233c.181 0 .328.296.328.663 0 .365-.147.661-.328.661M251.723 47.988h-8.983c-.181 0-.33-.296-.33-.661 0-.367.149-.663.33-.663h8.983c.181 0 .33.296.33.663 0 .365-.149.661-.33.661M254.778 61.308h-19.541c-.182 0-.329-.297-.329-.662 0-.365.147-.662.329-.662h19.541c.182 0 .33.297.33.662 0 .365-.148.662-.33.662"/>
        <path fill="#E535AB" d="M233.63 64.044h-3.418c-.181 0-.329-.297-.329-.662 0-.365.148-.662.33-.662h3.417c.181 0 .328.297.328.662 0 .365-.147.662-.328.662"/>
        <path fill="#4C98FF" d="M241.47 64.044h-6.232c-.182 0-.33-.297-.33-.662 0-.365.148-.662.33-.662h6.233c.181 0 .328.297.328.662 0 .365-.147.662-.328.662"/>
        <path fill="#E3EAFF" d="M251.723 64.044h-8.983c-.181 0-.33-.297-.33-.662 0-.365.149-.662.33-.662h8.983c.181 0 .33.297.33.662 0 .365-.149.662-.33.662"/>
        <path fill="#E535AB" d="M233.63 50.724h-3.418c-.181 0-.329-.297-.329-.662 0-.365.148-.662.33-.662h3.417c.181 0 .328.297.328.662 0 .365-.147.662-.328.662M252.681 50.724h-17.376a.398.398 0 0 1-.397-.398v-.528c0-.22.178-.398.397-.398h17.376c.219 0 .399.178.399.398v.528a.4.4 0 0 1-.399.398"/>
        <path fill="#E3EAFF" d="M233.63 53.46h-3.418c-.181 0-.329-.297-.329-.662 0-.365.148-.662.33-.662h3.417c.181 0 .328.297.328.662 0 .365-.147.661-.328.661M243.338 53.46h-8.1c-.182 0-.33-.297-.33-.662 0-.365.148-.662.33-.662h8.1c.182 0 .33.297.33.662 0 .365-.148.661-.33.661M247.649 53.46h-3.212c-.182 0-.33-.297-.33-.662 0-.365.148-.662.33-.662h3.212c.181 0 .33.297.33.662 0 .365-.149.661-.33.661M233.63 56.104h-3.418c-.181 0-.329-.297-.329-.662 0-.365.148-.662.33-.662h3.417c.181 0 .328.297.328.662 0 .365-.147.662-.328.662M257.343 56.104h-21.99a.447.447 0 0 1-.445-.446v-.43c0-.248.2-.448.446-.448h21.99c.245 0 .445.2.445.447v.431c0 .246-.2.446-.446.446M233.63 66.577h-3.418c-.181 0-.329-.296-.329-.661 0-.365.148-.663.33-.663h3.417c.181 0 .328.298.328.663 0 .365-.147.661-.328.661M259.599 66.577h-10.782c-.182 0-.33-.296-.33-.661 0-.365.148-.663.33-.663h10.782c.181 0 .328.298.328.663 0 .365-.147.661-.328.661M243.338 66.577h-8.1c-.182 0-.33-.296-.33-.661 0-.365.148-.663.33-.663h8.1c.182 0 .33.298.33.663 0 .365-.148.661-.33.661M247.649 66.577h-3.212c-.182 0-.33-.296-.33-.661 0-.365.148-.663.33-.663h3.212c.181 0 .33.298.33.663 0 .365-.149.661-.33.661"/>
        <path fill="#FC0" d="M249.662 69.221H235.27a.362.362 0 0 1-.362-.362v-.599c0-.2.162-.362.362-.362h14.392c.2 0 .361.163.361.362v.6c0 .2-.162.361-.361.361"/>
        <path fill="#E535AB" d="M258.59 58.84h-9.655a.449.449 0 0 1-.448-.449v-.426c0-.247.2-.449.448-.449h9.654c.247 0 .448.202.448.449v.426c0 .247-.2.449-.448.449"/>
        <path fill="#FC0" d="M243.338 58.84h-8.1c-.182 0-.33-.297-.33-.662 0-.365.148-.662.33-.662h8.1c.182 0 .33.297.33.662 0 .365-.148.662-.33.662M247.649 58.84h-3.212c-.182 0-.33-.297-.33-.662 0-.365.148-.662.33-.662h3.212c.181 0 .33.297.33.662 0 .365-.149.662-.33.662"/>
        <path fill="#E535AB" d="M280.105 10.937c0 5.972-4.833 10.816-10.793 10.816-5.963 0-10.796-4.844-10.796-10.816 0-5.973 4.833-10.816 10.796-10.816 5.96 0 10.793 4.843 10.793 10.816"/>
        <path fill="#FFF" d="M270.969 4.652l3.308 1.914a1.435 1.435 0 0 1 2.285.269 1.441 1.441 0 0 1-.908 2.115v3.83a1.436 1.436 0 0 1 .904 2.114 1.434 1.434 0 0 1-2.315.239l-3.287 1.902a1.436 1.436 0 0 1-1.361 1.89 1.434 1.434 0 0 1-1.376-1.844l-3.307-1.913a1.433 1.433 0 0 1-2.28-.274 1.441 1.441 0 0 1 .903-2.115V8.95a1.436 1.436 0 0 1-.908-2.115 1.434 1.434 0 0 1 2.283-.271l3.31-1.914a1.434 1.434 0 1 1 2.75.002zm-.345.59l3.316 1.918a1.437 1.437 0 0 0 1.032 1.787v3.834c-.019.004-.037.01-.056.015l-4.33-7.516.038-.038zm-2.02.039l-4.33 7.515a1.442 1.442 0 0 0-.057-.015V8.947a1.437 1.437 0 0 0 1.031-1.79l3.315-1.917.041.04zm1.391.34l4.33 7.514a1.428 1.428 0 0 0-.404.702h-8.653a1.442 1.442 0 0 0-.403-.7l4.33-7.515a1.435 1.435 0 0 0 .8 0zm.66 10.899l3.294-1.906a1.452 1.452 0 0 1-.027-.094h-8.656l-.015.055 3.31 1.916c.27-.282.644-.44 1.033-.44.404 0 .79.17 1.06.469z"/>
        <path fill="#F7D3A9" d="M239.472 127.495s-.898 2.671-1.395 4.287c0 0 4.404-.094 5.954-2.145l-1.642-3.946-2.917 1.804z"/>
        <path fill="#F79A74" d="M238.812 201.185l.376 1.68 2.431.138-.514-2.058z"/>
        <path fill="#544DB8" d="M239.188 202.865s-4.075 2.128-4.042 2.265c.035.138 6.884-.584 6.884-.584l-.41-1.544-2.432-.137z"/>
        <path fill="#F79A74" d="M259.36 197.797l.955 1.433 2.317-.75-1.218-1.734z"/>
        <path fill="#544DB8" d="M260.315 199.23s-3.039 3.454-2.957 3.57c.08.117 6.212-3.026 6.212-3.026l-.937-1.293-2.318.75z"/>
        <path fill="#FC0" d="M234.29 156.745s-6.985 22.855 4.11 44.885h3.288s-6.575-24.913 1.643-45.09l-9.04.205z"/>
        <path fill="#FC0" d="M240.355 157.554s1.084 23.876 18.922 40.891l3.096-1.107s-14.548-21.25-13.57-43.022l-8.448 3.238z"/>
        <path fill="#F7D3A9" d="M237.156 103.753l.009-1.408a.689.689 0 0 0-.024-.183l-.266-1.01-.803.207-.817-.757a.696.696 0 0 0-1.102.21c-.251.536-.538 1.228-.627 1.754-.037.21.032.42.175.578l1.25 1.37a.694.694 0 0 0 .71.199l.997-.297a.694.694 0 0 0 .498-.663"/>
        <path fill="#115EE1" d="M249.206 134.659s-9.11-9.785-9.71-13.448c-.602-3.661-1.933-17.286-1.933-17.286l-2.811.544s-.964 19.486-.112 21.73c.854 2.244 6.333 13.68 9.9 14.736 3.57 1.057 6.076-2.469 4.666-6.276"/>
        <path fill="#F7D3A9" d="M236.55 118.518s-2.055 6.852-.754 8.58c1.303 1.727 6.096.162 7.957-2.601 1.86-2.764 2.232-8.984-.931-9.501-3.162-.519-5.527.76-6.272 3.522"/>
        <path fill="#115EE1" d="M248.879 158.6s1.849-19.767 1.849-25.12c0-.245-.005-.475-.008-.704-1.375-3.481-4.789-3.413-6.155-3.14-1.37.276-6.713 1.99-6.68 2.196l-.013-.017c-1.84 1.34-3.248 2.926-3.377 3.312 0 0-4.93 10.294-.616 22.648l15 .824z"/>
        <path fill="#F7D3A9" d="M222.765 104.763l-.24-1.389a.711.711 0 0 0-.055-.175l-.44-.947-.752.345-.939-.6a.694.694 0 0 0-1.045.4c-.155.572-.317 1.302-.313 1.837a.681.681 0 0 0 .276.537l1.469 1.13c.211.162.497.19.735.07l.929-.467a.695.695 0 0 0 .375-.74"/>
        <path fill="#115EE1" d="M240.043 133.068s-10.685-8.029-11.917-11.53c-1.233-3.5-4.931-16.678-4.931-16.678l-2.671 1.032s2.466 19.353 3.697 21.412c1.233 2.06 8.632 12.354 12.329 12.765 3.7.413 5.548-3.5 3.493-7"/>
        <path fill="#323076" d="M244.153 114.95s-5.48-2.332-8.083 2.47c-1.368 3.021 3.015.138 3.837 1.1.821.96-1.096 2.881-.548 3.568.548.686 1.506-1.235 2.055-.138.547 1.1-.823 1.235-1.782 2.47-.959 1.237.823 3.02-.547 4.12-1.37 1.096-5.205 1.92-2.878 7.823 2.33 5.902-3.835 7.412-1.231 15.51 2.602 8.099 20.273 12.629 23.561 3.02 3.287-9.609-7.67-11.942-6.987-16.197.686-4.256 3.152-5.352-.136-9.608-3.289-4.255-5.344-6.726-4.383-9.47.958-2.747-1.645-4.668-2.878-4.668"/>
        <path fill="#FC0" d="M261.124 86.234c-4.938 0-8.94 4.01-8.94 8.958 0 4.947 4.002 8.958 8.94 8.958 4.937 0 8.941-4.011 8.941-8.958 0-4.948-4.004-8.958-8.94-8.958"/>
        <path fill="#323076" d="M264.551 95.59a1.095 1.095 0 0 1 0-2.19 1.094 1.094 0 0 1 0 2.19zm-3.427 4.491a2.845 2.845 0 0 1-2.815-2.462h5.63a2.846 2.846 0 0 1-2.815 2.462zm-4.52-5.586a1.094 1.094 0 1 1 2.188-.001 1.094 1.094 0 0 1-2.188.001z"/>
        <path fill="#115EE1" d="M84.126 177.513l-.69-1.383 18.673-9.354 23.557.386 25.576-9.653h19.538l20.857-6.968.17.02 16.728 1.904 9.428-4.912.713 1.37-9.846 5.13-.236-.027-16.792-1.911-20.898 6.938h-19.519l-25.45 9.66-.146-.002-23.328-.383z"/>
        <path fill="#323076" d="M152.657 140.446s18.503 30.03 16.19 50.923l12.593.26-5.396-3.133 1.54-.262s-4.626-32.38-8.994-43.871c-4.576-12.035-5.911-7.574-5.911-7.574l-10.022 3.657z"/>
        <path fill="#323076" d="M145.975 138.58s1.027 20.86-.515 28.842c-1.542 7.984-6.167 23.692-6.167 23.692l11.821.258-3.105-2.197-1.97-1.15s8.417-22.661 9.187-33.477c.77-10.817 2.057-16.997 2.057-16.997l-11.308 1.03z"/>
        <path fill="#F7D3A9" d="M170.165 76.841l1.927-1.351.867-3.188-.964-.192-.577 1.158.577-5.505-.963.194-.963 5.31-1.158 2.512 1.06.676M181.568 82.57l.257-2.317 2.828-2.833.642.902-1.03 1.16 5.398-1.29v1.16l-5.01 1.931-1.028 1.803z"/>
        <path fill="#115EE1" d="M168.827 74.893s-21.948 26.687-24.504 32.025c0 0-1.065 1.921-1.065 7.473 0 5.551 1.918 26.047 1.918 26.047l22.374 1.282s-7.246-24.98-7.459-25.62c-.214-.64-3.835-4.483-7.245-5.339l18.75-33.946-2.769-1.922z"/>
        <path fill="#F7D3A9" d="M154.93 108.183s.932 2.772 1.447 4.447c0 0-4.568-.095-6.175-2.223l1.706-4.093 3.022 1.87z"/>
        <path fill="#F7D3A9" d="M158.402 99.521s1.35 7.884 0 9.675c-1.35 1.79-5.98-1.255-7.91-4.12-1.929-2.866-2.316-9.316.965-9.854 3.28-.536 6.173 1.434 6.945 4.3"/>
        <path fill="#115EE1" d="M156.325 114.112s17.597-11.09 19.015-13.366c1.42-2.274 5.393-19.195 5.393-19.195l3.406.854s-1.987 18.91-2.555 20.902c-.567 1.99-17.88 20.473-21.853 20.473-3.972 0-5.391-5.117-3.406-9.668"/>
        <path fill="#243265" d="M157.153 97.765s.9-3.09-1.026-4.636c-1.929-1.544-5.269-1.288-5.784-.772 0 .902 2.057 1.416 1.543 1.931-.515.516-3.213 0-3.855 2.704-.643 2.704.256 3.22.256 3.22s-1.413 1.673.258 3.99c1.67 2.318 5.445 4.228 6.385 3.98.94-.246.425-3.851.425-3.851s-2.184-.258-2.314-1.674c-.128-1.415 1.03-1.545 1.542-1.03.515.516.643 1.674 1.03 1.416.385-.258-.13-2.96-.13-2.96s1.413-1.16 1.67-2.318"/>
        <path fill="#323076" d="M212.127 176.653l-13.216 3.632c-3.633.998-5.79 4.794-4.793 8.436l2.499 9.132c.996 3.64 4.785 5.802 8.419 4.804l3.961-1.09 3.903 3.865 1.387-5.319 3.964-1.088c3.634-.998 5.79-4.795 4.794-8.436l-2.5-9.131c-.997-3.643-4.785-5.805-8.418-4.805"/>
        <path fill="#FFF" d="M203.382 191.618a1.517 1.517 0 1 1-2.924.803 1.516 1.516 0 0 1 2.924-.803M210.042 189.787c.22.81-.254 1.645-1.061 1.867a1.52 1.52 0 0 1-.802-2.931 1.518 1.518 0 0 1 1.863 1.064M216.701 187.956a1.52 1.52 0 0 1-1.06 1.867 1.518 1.518 0 0 1-.802-2.93 1.515 1.515 0 0 1 1.862 1.063"/>
        <path fill="#115EE1" stroke="#FDFDFD" stroke-width="4" d="M104.598 167.571a2.444 2.444 0 0 1-2.442 2.447 2.443 2.443 0 0 1-2.44-2.447 2.444 2.444 0 0 1 2.44-2.447 2.445 2.445 0 0 1 2.442 2.447M194.29 151.457a2.444 2.444 0 0 1-2.441 2.447 2.444 2.444 0 0 1-2.442-2.447 2.445 2.445 0 0 1 2.442-2.447 2.445 2.445 0 0 1 2.441 2.447"/>
    </g>
</svg>
