<svg width="196" height="31.000000000000004" xmlns="http://www.w3.org/2000/svg">

 <g>
  <title>background</title>
  <rect fill="none" id="canvas_background" height="402" width="582" y="-1" x="-1"/>
 </g>
 <g>
  <title>Layer 1</title>
  <g id="svg_1" fill-rule="evenodd" fill="none">
   <path id="svg_2" d="m9.604251,8.527499a0.432,0.432 0 0 0 -0.432,0l-6.049,3.492a0.432,0.432 0 0 0 -0.216,0.374l0,6.985c0,0.154 0.082,0.297 0.216,0.374l6.049,3.492a0.432,0.432 0 0 0 0.432,0l6.049,-3.492a0.432,0.432 0 0 0 0.216,-0.374l0,-6.985a0.432,0.432 0 0 0 -0.216,-0.374l-6.049,-3.492zm7.371,12.758c-0.097,0.079 -0.202,0.15 -0.313,0.215l-6.049,3.492a2.45,2.45 0 0 1 -2.45,0l-6.049,-3.492a2.45,2.45 0 0 1 -1.225,-2.122l0,-6.985a2.45,2.45 0 0 1 1.225,-2.122l6.049,-3.492a2.45,2.45 0 0 1 2.45,0l6.049,3.492c0.157,0.09 0.302,0.197 0.432,0.317l2.886,-1.649a2.379,2.379 0 0 1 -0.042,-0.445l0,-3.38c0,-0.85 0.454,-1.635 1.19,-2.06l2.927,-1.69a2.378,2.378 0 0 1 2.379,0l2.927,1.69a2.378,2.378 0 0 1 1.19,2.06l0,3.38a2.38,2.38 0 0 1 -1.19,2.06l-2.927,1.69a2.378,2.378 0 0 1 -2.379,0l-2.928,-1.69a2.385,2.385 0 0 1 -0.095,-0.058l-3.147,1.798c0.002,0.033 0.002,0.066 0.002,0.1l0,6.984c0,0.086 -0.004,0.173 -0.013,0.258l4.65,2.937l1.928,-1.113a1.297,1.297 0 0 1 1.297,0l2.564,1.48c0.401,0.232 0.648,0.66 0.648,1.123l0,2.96c0,0.464 -0.247,0.892 -0.648,1.124l-2.564,1.48a1.297,1.297 0 0 1 -1.297,0l-2.564,-1.48a1.297,1.297 0 0 1 -0.649,-1.123l0,-2.961c0,-0.029 0.001,-0.057 0.003,-0.084l-4.267,-2.695l0,0.001zm6.37,2.811l-0.376,0.594l0,2.084l2.131,1.23l2.131,-1.23l0,-2.461l-2.13,-1.23l-1.757,1.013l0.001,0zm2.152,-21.11a0.505,0.505 0 0 0 -0.505,0l-2.928,1.69a0.505,0.505 0 0 0 -0.252,0.438l0,3.38c0,0.18 0.096,0.347 0.252,0.437l2.928,1.69c0.156,0.09 0.349,0.09 0.505,0l2.927,-1.69a0.505,0.505 0 0 0 0.253,-0.437l0,-3.38a0.505,0.505 0 0 0 -0.253,-0.437l-2.927,-1.69l0,-0.001z" stroke-width="1.5" stroke="#13114a" fill-rule="nonzero" fill="#13114a"/>
   <path id="svg_3" d="m45.818251,14.980251l8.695,0a7.203,7.203 0 0 1 0.173,1.56a9.82,9.82 0 0 1 -0.52,3.221a7.461,7.461 0 0 1 -1.635,2.7a8.206,8.206 0 0 1 -2.849,1.958c-1.107,0.462 -2.37,0.693 -3.79,0.693a9.592,9.592 0 0 1 -3.642,-0.693a9.066,9.066 0 0 1 -2.973,-1.933a9.273,9.273 0 0 1 -2.007,-2.935c-0.495,-1.132 -0.743,-2.366 -0.743,-3.704s0.248,-2.572 0.743,-3.704a9.273,9.273 0 0 1 2.008,-2.935a9.066,9.066 0 0 1 2.973,-1.933a9.592,9.592 0 0 1 3.642,-0.694c1.437,0 2.72,0.248 3.852,0.744a8.627,8.627 0 0 1 2.91,2.056l-2.303,2.254a6.147,6.147 0 0 0 -1.932,-1.4c-0.71,-0.321 -1.561,-0.482 -2.552,-0.482c-0.81,0 -1.577,0.144 -2.304,0.433a5.776,5.776 0 0 0 -1.908,1.226a5.845,5.845 0 0 0 -1.3,1.92c-0.322,0.752 -0.483,1.59 -0.483,2.515s0.16,1.763 0.483,2.515c0.322,0.751 0.76,1.391 1.313,1.92a5.916,5.916 0 0 0 1.92,1.226a6.243,6.243 0 0 0 2.328,0.433c0.942,0 1.739,-0.136 2.391,-0.408a5.602,5.602 0 0 0 1.672,-1.053c0.33,-0.298 0.616,-0.673 0.855,-1.128c0.24,-0.454 0.425,-0.962 0.557,-1.523l-5.574,0l0,-2.85l0,0.001zm24.104,9.339a10.21,10.21 0 0 1 -1.833,0.582c-0.644,0.14 -1.313,0.21 -2.007,0.21c-1.32,0 -2.547,-0.24 -3.679,-0.718a9.043,9.043 0 0 1 -2.935,-1.97a9.122,9.122 0 0 1 -1.945,-2.948a9.353,9.353 0 0 1 -0.706,-3.63c0,-1.287 0.235,-2.497 0.706,-3.628a9.122,9.122 0 0 1 1.945,-2.949a9.043,9.043 0 0 1 2.935,-1.97c1.132,-0.478 2.358,-0.718 3.68,-0.718c1.32,0 2.547,0.24 3.678,0.719a9.043,9.043 0 0 1 2.936,1.97a9.122,9.122 0 0 1 1.945,2.948a9.353,9.353 0 0 1 0.706,3.629c0,1.37 -0.256,2.643 -0.768,3.815a8.8,8.8 0 0 1 -2.156,3.023l1.363,2.031l-2.477,1.66l-1.388,-2.056zm-3.765,-5.649l2.477,-1.684l1.932,2.923a5.789,5.789 0 0 0 1.053,-1.796c0.256,-0.686 0.384,-1.441 0.384,-2.267c0,-0.908 -0.152,-1.738 -0.458,-2.49a5.635,5.635 0 0 0 -1.263,-1.92a5.833,5.833 0 0 0 -1.883,-1.239a5.998,5.998 0 0 0 -2.317,-0.445c-0.825,0 -1.598,0.148 -2.316,0.445a5.833,5.833 0 0 0 -1.883,1.24a5.635,5.635 0 0 0 -1.263,1.92c-0.306,0.75 -0.459,1.58 -0.459,2.489c0,0.908 0.153,1.738 0.459,2.49a5.635,5.635 0 0 0 1.263,1.92a5.833,5.833 0 0 0 1.883,1.238a5.98,5.98 0 0 0 2.316,0.446c0.364,0 0.71,-0.033 1.04,-0.099c0.331,-0.066 0.653,-0.157 0.967,-0.272l-1.932,-2.899zm12.114,-11.692l3.345,0l0,14.567l7.506,0l0,3.171l-10.85,0l0,-17.738l-0.001,0z" fill="#13114a"/>
   <path id="svg_4" d="m111.291251,6.475251l3.654,0l0,18.398l-3.602,0l0,-11.427l-0.052,0l-4.483,7.928l-2.358,0l-4.482,-7.928l-0.052,0l0,11.427l-3.628,0l0,-18.398l3.68,0l5.648,10.469l0.052,0l5.623,-10.469zm13.357,18.605c-1.986,0 -3.601,-0.613 -4.845,-1.84c-1.244,-1.226 -1.866,-2.79 -1.866,-4.69c0,-1.9 0.622,-3.463 1.866,-4.69c1.244,-1.226 2.859,-1.84 4.845,-1.84c1.97,0 3.585,0.605 4.846,1.814c1.261,1.21 1.891,2.781 1.891,4.716s-0.63,3.507 -1.891,4.716c-1.261,1.21 -2.876,1.814 -4.846,1.814zm0,-3.032c0.933,0 1.715,-0.328 2.345,-0.984c0.631,-0.657 0.946,-1.495 0.946,-2.514c0,-1.036 -0.31,-1.878 -0.933,-2.526c-0.621,-0.648 -1.407,-0.972 -2.358,-0.972c-0.967,0 -1.757,0.333 -2.37,0.998c-0.614,0.665 -0.92,1.498 -0.92,2.5c0,0.985 0.31,1.814 0.933,2.488c0.621,0.673 1.407,1.01 2.357,1.01zm18.54,-16.246l3.395,0l0,19.07l-3.24,0l0,-1.528l-0.051,0c-0.916,1.157 -2.211,1.736 -3.887,1.736c-1.762,0 -3.213,-0.6 -4.353,-1.801c-1.14,-1.2 -1.71,-2.768 -1.71,-4.703c0,-1.9 0.566,-3.468 1.697,-4.703c1.131,-1.235 2.552,-1.853 4.262,-1.853c1.607,0 2.877,0.545 3.81,1.633l0.077,0l0,-7.851zm-5.493,15.287c0.605,0.64 1.382,0.96 2.332,0.96s1.745,-0.32 2.384,-0.96c0.639,-0.639 0.959,-1.468 0.959,-2.487c0,-1.02 -0.316,-1.866 -0.946,-2.54c-0.63,-0.673 -1.43,-1.01 -2.397,-1.01c-0.933,0 -1.706,0.324 -2.32,0.972c-0.612,0.648 -0.919,1.507 -0.919,2.578c0,1.02 0.302,1.848 0.907,2.487zm20.483,-8.861l3.394,0l0,12.645l-3.394,0l0,-1.555l-0.052,0c-0.967,1.175 -2.22,1.762 -3.757,1.762c-3.092,0 -4.638,-1.745 -4.638,-5.234l0,-7.618l3.368,0l0,6.71c0,1.14 0.177,1.944 0.532,2.41c0.354,0.467 0.937,0.7 1.749,0.7c0.777,0 1.438,-0.324 1.982,-0.972c0.544,-0.647 0.816,-1.55 0.816,-2.707l0,-6.141zm6.802,12.645l0,-19.071l3.394,0l0,19.07l-3.394,0l0,0.001zm18.695,-6.452c0,0.673 -0.026,1.08 -0.078,1.217l-8.887,0c0.207,0.76 0.596,1.356 1.166,1.788c0.57,0.432 1.26,0.648 2.073,0.648c1.226,0.017 2.237,-0.458 3.031,-1.425l2.203,2.047c-1.261,1.59 -3.084,2.384 -5.468,2.384c-1.883,0 -3.437,-0.605 -4.664,-1.814c-1.226,-1.21 -1.84,-2.79 -1.84,-4.742c0,-1.9 0.592,-3.459 1.775,-4.677c1.184,-1.218 2.682,-1.827 4.496,-1.827c1.831,0 3.321,0.6 4.47,1.801c1.149,1.2 1.723,2.734 1.723,4.6zm-6.09,-3.42c-0.708,0 -1.312,0.19 -1.813,0.57c-0.501,0.38 -0.846,0.923 -1.037,1.632l5.571,0c-0.38,-1.469 -1.286,-2.203 -2.72,-2.203l-0.001,0.001zm12.84,10.079c-1.987,0 -3.697,-0.613 -5.13,-1.84l1.658,-2.358c1.036,0.985 2.202,1.477 3.498,1.477c0.484,0 0.864,-0.095 1.14,-0.285c0.276,-0.19 0.415,-0.44 0.415,-0.751c0,-0.277 -0.165,-0.51 -0.493,-0.7c-0.328,-0.19 -0.933,-0.423 -1.814,-0.7c-1.226,-0.414 -2.18,-0.928 -2.863,-1.541c-0.682,-0.614 -1.023,-1.473 -1.023,-2.579c0,-1.122 0.432,-2.034 1.295,-2.733c0.864,-0.7 1.952,-1.05 3.265,-1.05c1.728,0 3.265,0.527 4.612,1.581l-1.632,2.488c-0.95,-0.899 -1.96,-1.348 -3.032,-1.348c-0.31,0 -0.596,0.082 -0.855,0.246a0.793,0.793 0 0 0 -0.388,0.713c0,0.242 0.15,0.462 0.453,0.66c0.302,0.2 0.79,0.428 1.464,0.687c0.691,0.26 1.2,0.454 1.529,0.583c0.328,0.13 0.717,0.32 1.166,0.57c0.449,0.25 0.764,0.493 0.946,0.726c0.18,0.233 0.345,0.54 0.492,0.92c0.147,0.38 0.22,0.812 0.22,1.295c0,1.175 -0.419,2.125 -1.257,2.85c-0.837,0.726 -2.06,1.089 -3.666,1.089z" fill="#115EE1"/>
  </g>
 </g>
</svg>