<?xml version="1.0" encoding="utf-8"?>
<svg version="1.1" id="Warstwa_1" xmlns="http://www.w3.org/2000/svg" xmlns:xlink="http://www.w3.org/1999/xlink" x="0px" y="0px"
	 viewBox="0 0 174.7 71.2" style="enable-background:new 0 0 174.7 71.2;" xml:space="preserve">
<style type="text/css">
	.st0{fill-rule:evenodd;clip-rule:evenodd;fill:#E535AB;}
	.st1{fill:none;stroke:#E535AB;stroke-width:0.75;}
	.st2{fill:#050713;}
	.st3{fill:#6D7A99;}
</style>
<g>
	<g transform="translate(6.000000, 20.000000)">
		<path id="Fill-2" class="st0" d="M32.5,43.1c0,0.3,0,0.5-0.1,0.7c0,0,0,0.1,0,0.1c-0.4,2.3-2.4,4-4.8,4c-2.1,0-4-1.4-4.6-3.3
			L2.8,33c-2-1.2-3.2-3.3-3.2-5.6V7.6C0.3,7.9,1.1,8,2,8c0.7,0,1.5-0.1,2.2-0.3v19.7c0,0.7,0.4,1.3,1,1.7L24,40
			c0.9-1,2.2-1.7,3.7-1.7c1.6,0,3,0.8,3.9,2c0,0,0,0,0,0.1c0.1,0.1,0.1,0.2,0.2,0.3c0,0,0,0.1,0.1,0.1c0,0.1,0.1,0.2,0.1,0.3
			c0,0,0,0.1,0.1,0.1c0,0.1,0.1,0.2,0.1,0.3c0,0.1,0,0.1,0.1,0.2c0,0.1,0.1,0.2,0.1,0.2c0,0.1,0,0.2,0.1,0.2c0,0.1,0,0.1,0,0.2
			c0,0.1,0,0.2,0,0.3c0,0.1,0,0.1,0,0.2C32.5,42.8,32.5,43,32.5,43.1L32.5,43.1z M57.4,0.5c0,1.5-0.6,2.8-1.7,3.7v23.1
			c0,2.3-1.2,4.5-3.2,5.6L35.1,43.1c0-1.6-0.6-3.2-1.5-4.4L50.2,29c0.6-0.3,1-1,1-1.7V5.2c-2-0.6-3.5-2.5-3.5-4.7
			c0-1.1,0.4-2.1,1-2.9c0,0,0,0,0,0c0.1-0.1,0.2-0.3,0.4-0.4l0,0c0.3-0.3,0.6-0.5,0.9-0.7c0,0,0.1,0,0.1-0.1
			c0.1-0.1,0.3-0.2,0.4-0.2c0,0,0.1,0,0.1-0.1c0.2-0.1,0.3-0.1,0.5-0.2c0,0,0,0,0,0c0.5-0.1,1-0.2,1.5-0.2
			C55.2-4.3,57.4-2.2,57.4,0.5L57.4,0.5z M-0.4,4.8c-1.5-0.8-2.5-2.4-2.5-4.2c0-2.7,2.2-4.9,4.9-4.9c0.7,0,1.4,0.2,2,0.4l20.5-11.9
			c1-0.6,2.1-0.9,3.2-0.9c1.1,0,2.2,0.3,3.2,0.9L48.4-5.7c-1.3,0.9-2.3,2.1-2.8,3.6l-16.9-9.8c-0.3-0.2-0.6-0.3-1-0.3
			c-0.3,0-0.7,0.1-1,0.3L6.7-0.3c0,0.3,0.1,0.6,0.1,0.8c0,2.1-1.3,3.9-3.2,4.6c0,0,0,0,0,0C3.4,5.2,3.3,5.2,3.1,5.3c0,0-0.1,0-0.1,0
			c-0.1,0-0.3,0.1-0.4,0.1c0,0-0.1,0-0.1,0c-0.2,0-0.4,0-0.5,0c-0.2,0-0.4,0-0.6,0c-0.1,0-0.1,0-0.2,0c-0.1,0-0.3-0.1-0.4-0.1
			c0,0-0.1,0-0.1,0C0.3,5.1-0.1,5-0.4,4.8L-0.4,4.8z"/>
		<g transform="translate(12.304928, 12.345165)">
			<path id="Fill-1" class="st0" d="M16.5,17.5V2L29-3.4v14.8l-3-1.3c-0.4-0.2-0.8,0-1,0.4c-0.2,0.4,0,0.8,0.4,1l2.5,1.1L16.5,17.5z
				 M6.5,10.5c-0.2-0.4-0.6-0.6-1-0.4l-3,1.3V-3.4L15,2v15.4L3.6,12.5l2.5-1.1C6.5,11.3,6.6,10.8,6.5,10.5L6.5,10.5z M15-9.4v1.9
				c0,0.4,0.3,0.8,0.8,0.8c0.4,0,0.8-0.3,0.8-0.8v-1.9l11.4,4.9L15.8,0.7L3.6-4.5L15-9.4z M34.6,13.9l-4.1-1.8V-4.5
				c0-0.3-0.2-0.6-0.5-0.7l-13.6-5.8v-5.5c0-0.4-0.3-0.8-0.8-0.8c-0.4,0-0.8,0.3-0.8,0.8v5.5L1.4-5.2C1.2-5.1,1-4.8,1-4.5v16.6
				l-4.1,1.8c-0.4,0.2-0.6,0.6-0.4,1c0.2,0.4,0.6,0.6,1,0.4l4.2-1.9l13.7,5.9c0.2,0.1,0.4,0.1,0.6,0l13.7-5.9l4.2,1.9
				c0.4,0.2,0.8,0,1-0.4C35.1,14.5,35,14.1,34.6,13.9L34.6,13.9z"/>
			<path id="Stroke-3" class="st1" d="M16.5,17.5V2L29-3.4v14.8l-3-1.3c-0.4-0.2-0.8,0-1,0.4c-0.2,0.4,0,0.8,0.4,1l2.5,1.1
				L16.5,17.5z M6.5,10.5c-0.2-0.4-0.6-0.6-1-0.4l-3,1.3V-3.4L15,2v15.4L3.6,12.5l2.5-1.1C6.5,11.3,6.6,10.8,6.5,10.5z M15-9.4v1.9
				c0,0.4,0.3,0.8,0.8,0.8c0.4,0,0.8-0.3,0.8-0.8v-1.9l11.4,4.9L15.8,0.7L3.6-4.5L15-9.4z M34.6,13.9l-4.1-1.8V-4.5
				c0-0.3-0.2-0.6-0.5-0.7l-13.6-5.8v-5.5c0-0.4-0.3-0.8-0.8-0.8c-0.4,0-0.8,0.3-0.8,0.8v5.5L1.4-5.2C1.2-5.1,1-4.8,1-4.5v16.6
				l-4.1,1.8c-0.4,0.2-0.6,0.6-0.4,1c0.2,0.4,0.6,0.6,1,0.4l4.2-1.9l13.7,5.9c0.2,0.1,0.4,0.1,0.6,0l13.7-5.9l4.2,1.9
				c0.4,0.2,0.8,0,1-0.4C35.1,14.5,35,14.1,34.6,13.9z"/>
		</g>
	</g>
	<path id="Modules" class="st2" d="M74.9,50.6v-6.2l2.8,5.7h2.2l2.8-5.7v6.2H86V37.4h-3.4l-3.8,8.4l-3.8-8.4h-3.4v13.3H74.9z
		 M88.6,44c0,3.8,3.2,6.9,7,6.9c3.9,0,7-3.1,7-6.9c0-3.8-3.2-6.9-7-6.9C91.8,37.1,88.6,40.2,88.6,44z M92,44c0-2,1.6-3.6,3.6-3.6
		c2,0,3.6,1.6,3.6,3.6s-1.6,3.6-3.6,3.6C93.6,47.6,92,46,92,44z M105.2,50.6h6.2c4.1,0,6.3-3,6.3-6.6c0-3.6-2.1-6.6-6.3-6.6h-6.2
		V50.6z M111.1,40.7c2,0,3.1,1.3,3.1,3.3c0,2-1.1,3.3-3.1,3.3h-2.5v-6.7H111.1z M128.9,37.4v7.3c0,1.9-0.9,3-2.7,3
		c-1.8,0-2.7-1.1-2.7-3v-7.3h-3.4v7.5c0,3.4,2.1,6.1,6.1,6.1c4,0,6.1-2.6,6.1-6.1v-7.5H128.9z M135.3,50.6h9.7v-3.3h-6.4v-10h-3.4
		V50.6z M147.4,50.6h10.2v-3.3h-6.8v-1.7h5.6v-3.1h-5.6v-1.9h6.8v-3.3h-10.2V50.6z M159.9,46.6h3.3v0.1c0,0.5,0.7,1.2,2.2,1.2
		c1.3,0,1.7-0.4,1.7-0.8c0-0.6-0.7-0.9-2.3-1.4l-0.8-0.3c-2-0.7-4.1-1.8-4.1-4.2c0-2.5,2.2-4.1,5.2-4.1c3.1,0,5.4,1.6,5.4,4.3v0.2
		h-3.3v-0.1c0-0.6-0.7-1.4-2-1.4c-1.2,0-1.6,0.5-1.6,0.9c0,0.5,0.5,0.7,1.7,1.2l0.9,0.3c1.9,0.7,4.5,1.8,4.5,4.5
		c0,2.6-2.2,3.9-5.3,3.9c-3.2,0-5.6-1.5-5.6-4.1V46.6z"/>
	<path id="GraphQL" class="st3" d="M75,24.4h2.1v0.2c-0.4,0.6-1.1,1-1.8,1c-1.3,0-2.3-1-2.3-2.3s1-2.3,2.3-2.3
		c0.7,0,1.4,0.3,1.8,0.9l1.8-1.2c-0.8-1.1-2.2-1.8-3.6-1.8c-2.5,0-4.6,2-4.6,4.5s2.1,4.5,4.6,4.5c0.9,0,1.7-0.3,2.2-1v0.8h1.7v-5H75
		V24.4z M82.8,19v8.6H85v-2.3h1.1l1.6,2.3h2.6L88.5,25c1.2-0.5,1.7-1.6,1.7-2.8c0-1.7-1-3.1-3.2-3.1H82.8z M86.8,21
		c0.9,0,1.2,0.5,1.2,1.2c0,0.6-0.3,1.1-1.2,1.1H85V21H86.8z M96.4,19l-3.5,8.6h2.4l0.5-1.3h3.4l0.5,1.3h2.4L98.5,19H96.4z
		 M98.4,24.4h-1.9l0.9-2.5L98.4,24.4z M105.2,27.6h2.2v-1.9h1.6c2.3,0,3.4-1.5,3.4-3.3c0-1.7-1.1-3.3-3.4-3.3h-3.8V27.6z M108.8,21
		c0.9,0,1.3,0.6,1.3,1.3c0,0.8-0.3,1.3-1.3,1.3h-1.5V21H108.8z M121.3,19v3.3h-3.5V19h-2.2v8.6h2.2v-3.2h3.5v3.2h2.2V19H121.3z
		 M126.9,23.3c0,2.2,1.7,4,3.8,4.4c1.5,0.5,2.5,2,4.2,2c0.8,0,1.8-0.3,2.4-1.2l-1.7-1.3c-0.2,0.4-0.6,0.4-0.7,0.4
		c-0.4,0-0.7-0.2-1.1-0.5c1.3-0.8,2.2-2.2,2.2-3.8c0-2.5-2-4.5-4.6-4.5C129,18.9,126.9,20.9,126.9,23.3z M129.2,23.3
		c0-1.3,1-2.3,2.3-2.3c1.3,0,2.3,1,2.3,2.3s-1,2.3-2.3,2.3C130.2,25.7,129.2,24.6,129.2,23.3z M139.5,27.6V19h2.2v6.5h4.1v2.1H139.5
		z"/>
</g>
</svg>
