<svg width="400" height="400" xmlns="http://www.w3.org/2000/svg">

 <g>
  <title>background</title>
  <rect fill="none" id="canvas_background" height="402" width="582" y="-1" x="-1"/>
 </g>
 <g>
  <title>Layer 1</title>
  <g id="svg_1">
   <g id="svg_2">
    <g id="svg_3">
     <rect id="svg_4" height="320.3" width="16.6" fill="#E535AB" transform="matrix(-0.866,-0.5,0.5,-0.866,163.3196,363.3136) " y="-0.4" x="122"/>
    </g>
   </g>
   <g id="svg_5">
    <g id="svg_6">
     <rect id="svg_7" height="16.6" width="320.3" fill="#E535AB" y="272.2" x="39.8"/>
    </g>
   </g>
   <g id="svg_8">
    <g id="svg_9">
     <rect id="svg_10" height="16.6" width="185" fill="#E535AB" transform="matrix(-0.866,-0.5,0.5,-0.866,83.0693,663.3409) " y="312.2" x="37.9"/>
    </g>
   </g>
   <g id="svg_11">
    <g id="svg_12">
     <rect id="svg_13" height="16.6" width="185" fill="#E535AB" transform="matrix(-0.866,-0.5,0.5,-0.866,463.3409,283.0693) " y="71.1" x="177.1"/>
    </g>
   </g>
   <g id="svg_14">
    <g id="svg_15">
     <rect id="svg_16" height="185" width="16.6" fill="#E535AB" transform="matrix(-0.5,-0.866,0.866,-0.5,126.7903,232.1221) " y="-13" x="122.1"/>
    </g>
   </g>
   <g id="svg_17">
    <g id="svg_18">
     <rect id="svg_19" height="16.6" width="320.3" fill="#E535AB" transform="matrix(-0.5,-0.866,0.866,-0.5,266.0828,473.3766) " y="151.6" x="109.6"/>
    </g>
   </g>
   <g id="svg_20">
    <g id="svg_21">
     <rect id="svg_22" height="185" width="16.6" fill="#E535AB" y="107.5" x="52.5"/>
    </g>
   </g>
   <g id="svg_23">
    <g id="svg_24">
     <rect id="svg_25" height="185" width="16.6" fill="#E535AB" y="107.5" x="330.9"/>
    </g>
   </g>
   <g id="svg_26">
    <g id="svg_27">
     <rect id="svg_28" height="160.9" width="14.5" fill="#E535AB" transform="matrix(-0.5,-0.866,0.866,-0.5,126.7953,714.2875) " y="240.1" x="262.4"/>
    </g>
   </g>
   <path id="svg_29" d="m369.5,297.9c-9.6,16.7 -31,22.4 -47.7,12.8c-16.7,-9.6 -22.4,-31 -12.8,-47.7c9.6,-16.7 31,-22.4 47.7,-12.8c16.8,9.7 22.5,31 12.8,47.7" fill="#E535AB"/>
   <path id="svg_30" d="m90.9,137c-9.6,16.7 -31,22.4 -47.7,12.8c-16.7,-9.6 -22.4,-31 -12.8,-47.7c9.6,-16.7 31,-22.4 47.7,-12.8c16.7,9.7 22.4,31 12.8,47.7" fill="#E535AB"/>
   <path id="svg_31" d="m30.5,297.9c-9.6,-16.7 -3.9,-38 12.8,-47.7c16.7,-9.6 38,-3.9 47.7,12.8c9.6,16.7 3.9,38 -12.8,47.7c-16.8,9.6 -38.1,3.9 -47.7,-12.8" fill="#E535AB"/>
   <path id="svg_32" d="m309.1,137c-9.6,-16.7 -3.9,-38 12.8,-47.7c16.7,-9.6 38,-3.9 47.7,12.8c9.6,16.7 3.9,38 -12.8,47.7c-16.7,9.6 -38.1,3.9 -47.7,-12.8" fill="#E535AB"/>
   <path id="svg_33" d="m200,395.8c-19.3,0 -34.9,-15.6 -34.9,-34.9c0,-19.3 15.6,-34.9 34.9,-34.9c19.3,0 34.9,15.6 34.9,34.9c0,19.2 -15.6,34.9 -34.9,34.9" fill="#E535AB"/>
   <path id="svg_34" d="m200,74c-19.3,0 -34.9,-15.6 -34.9,-34.9c0,-19.3 15.6,-34.9 34.9,-34.9c19.3,0 34.9,15.6 34.9,34.9c0,19.3 -15.6,34.9 -34.9,34.9" fill="#E535AB"/>
  </g>
  <text stroke="#000" transform="matrix(2.805432594268558,0,0,2.6170013719195206,-456.99449550689314,-209.0300155185949) " xml:space="preserve" text-anchor="start" font-family="Helvetica, Arial, sans-serif" font-size="24" id="svg_35" y="194.995984" x="174.430646" stroke-width="0" fill="#000000">MODULES</text>
 </g>
</svg>