<svg xmlns="http://www.w3.org/2000/svg" width="196" height="31" viewBox="0 0 196 31">
    <g fill="none" fill-rule="evenodd">
        <path fill="#FFF" fill-rule="nonzero" stroke="#FFF" stroke-width="1.5" d="M9.736 8.264a.432.432 0 0 0-.432 0l-6.049 3.492a.432.432 0 0 0-.216.374v6.985c0 .154.082.297.216.374l6.049 3.492a.432.432 0 0 0 .432 0l6.049-3.492a.432.432 0 0 0 .216-.374V12.13a.432.432 0 0 0-.216-.374L9.736 8.264zm7.371 12.758c-.097.079-.202.15-.313.215l-6.049 3.492a2.45 2.45 0 0 1-2.45 0l-6.049-3.492a2.45 2.45 0 0 1-1.225-2.122V12.13a2.45 2.45 0 0 1 1.225-2.122l6.049-3.492a2.45 2.45 0 0 1 2.45 0l6.049 3.492c.157.09.302.197.432.317l2.886-1.649a2.379 2.379 0 0 1-.042-.445v-3.38c0-.85.454-1.635 1.19-2.06l2.927-1.69a2.378 2.378 0 0 1 2.379 0l2.927 1.69a2.378 2.378 0 0 1 1.19 2.06v3.38c0 .85-.454 1.635-1.19 2.06l-2.927 1.69a2.378 2.378 0 0 1-2.379 0l-2.928-1.69a2.385 2.385 0 0 1-.095-.058l-3.147 1.798c.002.033.002.066.002.1v6.984c0 .086-.004.173-.013.258l4.65 2.937 1.928-1.113a1.297 1.297 0 0 1 1.297 0l2.564 1.48c.401.232.648.66.648 1.123v2.96c0 .464-.247.892-.648 1.124l-2.564 1.48a1.297 1.297 0 0 1-1.297 0l-2.564-1.48a1.297 1.297 0 0 1-.649-1.123V23.8c0-.029.001-.057.003-.084l-4.267-2.695zm6.37 2.811l-.376.594v2.084l2.131 1.23 2.131-1.23V24.05l-2.13-1.23-1.757 1.013zm2.152-21.11a.505.505 0 0 0-.505 0l-2.928 1.69a.505.505 0 0 0-.252.438v3.38c0 .18.096.347.252.437l2.928 1.69c.156.09.349.09.505 0l2.927-1.69a.505.505 0 0 0 .253-.437v-3.38a.505.505 0 0 0-.253-.437l-2.927-1.69z"/>
        <path fill="#FFF" d="M45.95 15.112h8.695a7.203 7.203 0 0 1 .173 1.56c0 1.14-.173 2.214-.52 3.221a7.461 7.461 0 0 1-1.635 2.7 8.206 8.206 0 0 1-2.849 1.958c-1.107.462-2.37.693-3.79.693a9.592 9.592 0 0 1-3.642-.693 9.066 9.066 0 0 1-2.973-1.933 9.273 9.273 0 0 1-2.007-2.935c-.495-1.132-.743-2.366-.743-3.704s.248-2.572.743-3.704A9.273 9.273 0 0 1 39.41 9.34a9.066 9.066 0 0 1 2.973-1.933 9.592 9.592 0 0 1 3.642-.694c1.437 0 2.72.248 3.852.744a8.627 8.627 0 0 1 2.91 2.056l-2.303 2.254a6.147 6.147 0 0 0-1.932-1.4c-.71-.321-1.561-.482-2.552-.482-.81 0-1.577.144-2.304.433a5.776 5.776 0 0 0-1.908 1.226 5.845 5.845 0 0 0-1.3 1.92c-.322.752-.483 1.59-.483 2.515s.16 1.763.483 2.515c.322.751.76 1.391 1.313 1.92a5.916 5.916 0 0 0 1.92 1.226 6.243 6.243 0 0 0 2.328.433c.942 0 1.739-.136 2.391-.408a5.602 5.602 0 0 0 1.672-1.053c.33-.298.616-.673.855-1.128.24-.454.425-.962.557-1.523H45.95v-2.85zm24.104 9.34c-.578.247-1.189.441-1.833.582-.644.14-1.313.21-2.007.21-1.32 0-2.547-.24-3.679-.718a9.043 9.043 0 0 1-2.935-1.97 9.122 9.122 0 0 1-1.945-2.948 9.353 9.353 0 0 1-.706-3.63c0-1.287.235-2.497.706-3.628A9.122 9.122 0 0 1 59.6 9.4a9.043 9.043 0 0 1 2.935-1.97c1.132-.478 2.358-.718 3.68-.718 1.32 0 2.547.24 3.678.719a9.043 9.043 0 0 1 2.936 1.97 9.122 9.122 0 0 1 1.945 2.948 9.353 9.353 0 0 1 .706 3.629c0 1.37-.256 2.643-.768 3.815a8.8 8.8 0 0 1-2.156 3.023l1.363 2.031-2.477 1.66-1.388-2.056zm-3.765-5.649l2.477-1.684 1.932 2.923a5.789 5.789 0 0 0 1.053-1.796c.256-.686.384-1.441.384-2.267 0-.908-.152-1.738-.458-2.49a5.635 5.635 0 0 0-1.263-1.92 5.833 5.833 0 0 0-1.883-1.239 5.998 5.998 0 0 0-2.317-.445c-.825 0-1.598.148-2.316.445a5.833 5.833 0 0 0-1.883 1.24 5.635 5.635 0 0 0-1.263 1.92c-.306.75-.459 1.58-.459 2.489 0 .908.153 1.738.459 2.49a5.635 5.635 0 0 0 1.263 1.92 5.833 5.833 0 0 0 1.883 1.238c.718.298 1.49.446 2.316.446.364 0 .71-.033 1.04-.099.331-.066.653-.157.967-.272l-1.932-2.899zM78.403 7.11h3.345v14.567h7.506v3.171h-10.85V7.11z"/>
        <path fill="#115EE1" d="M111.423 6.607h3.654v18.398h-3.602V13.578h-.052l-4.483 7.928h-2.358l-4.482-7.928h-.052v11.427H96.42V6.607h3.68l5.648 10.469h.052l5.623-10.469zm13.357 18.605c-1.986 0-3.601-.613-4.845-1.84-1.244-1.226-1.866-2.79-1.866-4.69 0-1.9.622-3.463 1.866-4.69 1.244-1.226 2.859-1.84 4.845-1.84 1.97 0 3.585.605 4.846 1.814 1.261 1.21 1.891 2.781 1.891 4.716s-.63 3.507-1.891 4.716c-1.261 1.21-2.876 1.814-4.846 1.814zm0-3.032c.933 0 1.715-.328 2.345-.984.631-.657.946-1.495.946-2.514 0-1.036-.31-1.878-.933-2.526-.621-.648-1.407-.972-2.358-.972-.967 0-1.757.333-2.37.998-.614.665-.92 1.498-.92 2.5 0 .985.31 1.814.933 2.488.621.673 1.407 1.01 2.357 1.01zm18.54-16.246h3.395v19.07h-3.24v-1.528h-.051c-.916 1.157-2.211 1.736-3.887 1.736-1.762 0-3.213-.6-4.353-1.801-1.14-1.2-1.71-2.768-1.71-4.703 0-1.9.566-3.468 1.697-4.703 1.131-1.235 2.552-1.853 4.262-1.853 1.607 0 2.877.545 3.81 1.633h.077V5.934zm-5.493 15.287c.605.64 1.382.96 2.332.96s1.745-.32 2.384-.96c.639-.639.959-1.468.959-2.487 0-1.02-.316-1.866-.946-2.54-.63-.673-1.43-1.01-2.397-1.01-.933 0-1.706.324-2.32.972-.612.648-.919 1.507-.919 2.578 0 1.02.302 1.848.907 2.487zm20.483-8.861h3.394v12.645h-3.394V23.45h-.052c-.967 1.175-2.22 1.762-3.757 1.762-3.092 0-4.638-1.745-4.638-5.234V12.36h3.368v6.71c0 1.14.177 1.944.532 2.41.354.467.937.7 1.749.7.777 0 1.438-.324 1.982-.972.544-.647.816-1.55.816-2.707V12.36zm6.802 12.645V5.934h3.394v19.07h-3.394zm18.695-6.452c0 .673-.026 1.08-.078 1.217h-8.887c.207.76.596 1.356 1.166 1.788.57.432 1.26.648 2.073.648 1.226.017 2.237-.458 3.031-1.425l2.203 2.047c-1.261 1.59-3.084 2.384-5.468 2.384-1.883 0-3.437-.605-4.664-1.814-1.226-1.21-1.84-2.79-1.84-4.742 0-1.9.592-3.459 1.775-4.677 1.184-1.218 2.682-1.827 4.496-1.827 1.831 0 3.321.6 4.47 1.801 1.149 1.2 1.723 2.734 1.723 4.6zm-6.09-3.42c-.708 0-1.312.19-1.813.57-.501.38-.846.923-1.037 1.632h5.571c-.38-1.469-1.286-2.203-2.72-2.203zm12.84 10.079c-1.987 0-3.697-.613-5.13-1.84l1.658-2.358c1.036.985 2.202 1.477 3.498 1.477.484 0 .864-.095 1.14-.285.276-.19.415-.44.415-.751 0-.277-.165-.51-.493-.7-.328-.19-.933-.423-1.814-.7-1.226-.414-2.18-.928-2.863-1.541-.682-.614-1.023-1.473-1.023-2.579 0-1.122.432-2.034 1.295-2.733.864-.7 1.952-1.05 3.265-1.05 1.728 0 3.265.527 4.612 1.581l-1.632 2.488c-.95-.899-1.96-1.348-3.032-1.348-.31 0-.596.082-.855.246a.793.793 0 0 0-.388.713c0 .242.15.462.453.66.302.2.79.428 1.464.687.691.26 1.2.454 1.529.583.328.13.717.32 1.166.57.449.25.764.493.946.726.18.233.345.54.492.92.147.38.22.812.22 1.295 0 1.175-.419 2.125-1.257 2.85-.837.726-2.06 1.089-3.666 1.089z"/>
    </g>
</svg>
