<?xml version="1.0" encoding="UTF-8"?>
<svg width="852px" height="817px" viewBox="0 0 852 817" version="1.1" xmlns="http://www.w3.org/2000/svg" xmlns:xlink="http://www.w3.org/1999/xlink">
    <!-- Generator: Sketch 51.3 (57544) - http://www.bohemiancoding.com/sketch -->
    <title>hexagonal@1.5x</title>
    <desc>Created with Sketch.</desc>
    <defs></defs>
    <g id="Grids" stroke="none" stroke-width="1" fill="none" fill-rule="evenodd">
        <g id="hexagonal" transform="translate(1.000000, 1.000000)" stroke="#342892">
            <polygon id="Stroke-1" points="425.155324 815.317742 562.190598 736.194031 562.190598 577.953914 425.155324 498.838836 288.118059 577.953914 288.118059 736.194031"></polygon>
            <polygon id="Stroke-3" points="569.042594 566.084859 706.079859 486.969781 706.079859 328.729664 569.042594 249.607281 432.005328 328.729664 432.005328 486.969781"></polygon>
            <polygon id="Stroke-4" points="281.266195 566.084859 418.303461 486.969781 418.303461 328.729664 281.266195 249.607281 144.229594 328.729664 144.229594 486.969781"></polygon>
            <polygon id="Stroke-5" points="569.042594 566.084859 706.079859 486.969781 706.079859 328.729664 569.042594 249.607281 432.005328 328.729664 432.005328 486.969781"></polygon>
            <polygon id="Stroke-6" points="712.937633 316.862336 849.976227 237.744602 849.976227 79.5071406 712.937633 0.383429688 575.892398 79.5071406 575.892398 237.744602"></polygon>
            <polygon id="Stroke-8" points="425.155324 316.862336 562.190598 237.744602 562.190598 79.5071406 425.155324 0.383429688 288.118059 79.5071406 288.118059 237.744602"></polygon>
            <polygon id="Stroke-11" points="281.266195 566.084859 418.303461 486.969781 418.303461 328.729664 281.266195 249.607281 144.229594 328.729664 144.229594 486.969781"></polygon>
            <polygon id="Stroke-12" points="425.155324 316.862336 562.190598 237.744602 562.190598 79.5071406 425.155324 0.383429688 288.118059 79.5071406 288.118059 237.744602"></polygon>
            <polygon id="Stroke-14" points="137.370559 316.862336 274.415793 237.744602 274.415793 79.5071406 137.370559 0.383429688 0.331964844 79.5071406 0.331964844 237.744602"></polygon>
            <polygon id="Stroke-17" points="425.155324 573.316898 525.268059 515.517562 525.268059 399.916234 425.155324 342.116234 325.041262 399.916234 325.041262 515.517562"></polygon>
            <polygon id="Stroke-18" points="540.28457 373.907563 640.398633 316.107563 640.398633 200.506898 540.28457 142.70557 440.168516 200.506898 440.168516 316.107563"></polygon>
            <polygon id="Stroke-19" points="310.024484 373.907563 410.138547 316.107563 410.138547 200.506898 310.024484 142.70557 209.910422 200.506898 209.910422 316.107563"></polygon>
        </g>
    </g>
</svg>