<?xml version="1.0" encoding="UTF-8" standalone="no"?>
<!-- Created with Inkscape (http://www.inkscape.org/) -->
<svg
   xmlns:svg="http://www.w3.org/2000/svg"
   xmlns="http://www.w3.org/2000/svg"
   version="1.0"
   width="885.82672"
   height="175.39369"
   id="svg8461">
  <defs
     id="defs8463"><clipPath
   id="clp70">
<path
   d="M 178.54,632.58 L 239.43,632.58 L 239.43,678.21 L 178.54,678.21 L 178.54,632.58 z "
   id="path2292" />

</clipPath>
<clipPath
   id="clp71">
<path
   d="M 178.54,632.58 L 239.43,632.58 L 239.43,678.21 L 178.54,678.21 L 178.54,632.58 z "
   id="path2316" />

</clipPath>
<clipPath
   id="clp72">
<path
   d="M 178.54,632.58 L 239.43,632.58 L 239.43,678.21 L 178.54,678.21 L 178.54,632.58 z "
   id="path2328" />

</clipPath>
<clipPath
   id="clp17">
<path
   d="M 45.19,647.41 L 131.79,647.41 L 131.79,663.18 L 45.19,663.18 L 45.19,647.41 z "
   id="path162" />

</clipPath>
<clipPath
   id="clp4">
<path
   d="M 45.29,692.27 L 131.66,692.27 L 131.66,714.87 L 45.29,714.87 L 45.29,692.27 z "
   id="path26" />

</clipPath>
<clipPath
   id="clp5">
<path
   d="M 45.29,692.27 L 131.66,692.27 L 131.66,714.87 L 45.29,714.87 L 45.29,692.27 z "
   id="path42" />

</clipPath>
<clipPath
   id="clp6">
<path
   d="M 45.29,692.27 L 131.66,692.27 L 131.66,714.87 L 45.29,714.87 L 45.29,692.27 z "
   id="path52" />

</clipPath>
<clipPath
   id="clp7">
<path
   d="M 45.29,692.27 L 131.66,692.27 L 131.66,714.87 L 45.29,714.87 L 45.29,692.27 z "
   id="path62" />

</clipPath>
<clipPath
   id="clp8">
<path
   d="M 45.29,692.27 L 131.66,692.27 L 131.66,714.87 L 45.29,714.87 L 45.29,692.27 z "
   id="path72" />

</clipPath>
<clipPath
   id="clp9">
<path
   d="M 45.29,692.27 L 131.66,692.27 L 131.66,714.87 L 45.29,714.87 L 45.29,692.27 z "
   id="path82" />

</clipPath>
<clipPath
   id="clp10">
<path
   d="M 45.29,692.27 L 131.66,692.27 L 131.66,714.87 L 45.29,714.87 L 45.29,692.27 z "
   id="path92" />

</clipPath>
<clipPath
   id="clp11">
<path
   d="M 45.29,692.27 L 131.66,692.27 L 131.66,714.87 L 45.29,714.87 L 45.29,692.27 z "
   id="path102" />

</clipPath>
<clipPath
   id="clp12">
<path
   d="M 45.29,692.27 L 131.66,692.27 L 131.66,714.87 L 45.29,714.87 L 45.29,692.27 z "
   id="path112" />

</clipPath>
<clipPath
   id="clp13">
<path
   d="M 45.29,692.27 L 131.66,692.27 L 131.66,714.87 L 45.29,714.87 L 45.29,692.27 z "
   id="path122" />

</clipPath>
<clipPath
   id="clp14">
<path
   d="M 45.29,692.27 L 131.66,692.27 L 131.66,714.87 L 45.29,714.87 L 45.29,692.27 z "
   id="path132" />

</clipPath>
<clipPath
   id="clp15">
<path
   d="M 45.29,692.27 L 131.66,692.27 L 131.66,714.87 L 45.29,714.87 L 45.29,692.27 z "
   id="path142" />

</clipPath>
<clipPath
   id="clp16">
<path
   d="M 45.29,692.27 L 131.66,692.27 L 131.66,714.87 L 45.29,714.87 L 45.29,692.27 z "
   id="path152" />

</clipPath>

<clipPath
   id="clipPath6577">
<path
   d="M 45.29,692.27 L 131.66,692.27 L 131.66,714.87 L 45.29,714.87 L 45.29,692.27 z "
   id="path6579" />

</clipPath>



<clipPath
   id="clipPath6588">
<path
   d="M 45.29,692.27 L 131.66,692.27 L 131.66,714.87 L 45.29,714.87 L 45.29,692.27 z "
   id="path6590" />

</clipPath>



<clipPath
   id="clipPath6596">
<path
   d="M 45.29,692.27 L 131.66,692.27 L 131.66,714.87 L 45.29,714.87 L 45.29,692.27 z "
   id="path6598" />

</clipPath>



<clipPath
   id="clipPath6604">
<path
   d="M 45.29,692.27 L 131.66,692.27 L 131.66,714.87 L 45.29,714.87 L 45.29,692.27 z "
   id="path6606" />

</clipPath>



<clipPath
   id="clipPath6612">
<path
   d="M 45.29,692.27 L 131.66,692.27 L 131.66,714.87 L 45.29,714.87 L 45.29,692.27 z "
   id="path6614" />

</clipPath>



<clipPath
   id="clipPath6620">
<path
   d="M 45.29,692.27 L 131.66,692.27 L 131.66,714.87 L 45.29,714.87 L 45.29,692.27 z "
   id="path6622" />

</clipPath>



<clipPath
   id="clipPath6628">
<path
   d="M 45.29,692.27 L 131.66,692.27 L 131.66,714.87 L 45.29,714.87 L 45.29,692.27 z "
   id="path6630" />

</clipPath>



<clipPath
   id="clipPath6636">
<path
   d="M 45.29,692.27 L 131.66,692.27 L 131.66,714.87 L 45.29,714.87 L 45.29,692.27 z "
   id="path6638" />

</clipPath>



<clipPath
   id="clipPath6644">
<path
   d="M 45.29,692.27 L 131.66,692.27 L 131.66,714.87 L 45.29,714.87 L 45.29,692.27 z "
   id="path6646" />

</clipPath>



<clipPath
   id="clipPath6652">
<path
   d="M 45.29,692.27 L 131.66,692.27 L 131.66,714.87 L 45.29,714.87 L 45.29,692.27 z "
   id="path6654" />

</clipPath>



<clipPath
   id="clipPath6660">
<path
   d="M 45.29,692.27 L 131.66,692.27 L 131.66,714.87 L 45.29,714.87 L 45.29,692.27 z "
   id="path6662" />

</clipPath>



<clipPath
   id="clipPath6668">
<path
   d="M 45.29,692.27 L 131.66,692.27 L 131.66,714.87 L 45.29,714.87 L 45.29,692.27 z "
   id="path6670" />

</clipPath>



<clipPath
   id="clipPath6676">
<path
   d="M 45.29,692.27 L 131.66,692.27 L 131.66,714.87 L 45.29,714.87 L 45.29,692.27 z "
   id="path6678" />

</clipPath>

































<clipPath
   id="clipPath6684">
<path
   d="M 45.19,647.41 L 131.79,647.41 L 131.79,663.18 L 45.19,663.18 L 45.19,647.41 z "
   id="path6686" />

</clipPath>





<clipPath
   id="clipPath7915">
<path
   d="M 178.54,632.58 L 239.43,632.58 L 239.43,678.21 L 178.54,678.21 L 178.54,632.58 z "
   id="path7917" />

</clipPath>



<clipPath
   id="clipPath7930">
<path
   d="M 178.54,632.58 L 239.43,632.58 L 239.43,678.21 L 178.54,678.21 L 178.54,632.58 z "
   id="path7932" />

</clipPath>



<clipPath
   id="clipPath7939">
<path
   d="M 178.54,632.58 L 239.43,632.58 L 239.43,678.21 L 178.54,678.21 L 178.54,632.58 z "
   id="path7941" />

</clipPath>











</defs>
  <g
     transform="translate(-267.15397,-292.83237)"
     id="layer1">
    <g
       transform="translate(17.716496,17.654231)"
       id="g9023">
      <path
         d="M 325.33728,329.10101 L 306.71366,329.10101 L 314.66777,307.22471 L 318.15074,307.22471 L 325.33728,329.10101 z M 368.44708,352.51253 L 345.81272,294.17568 L 291.95668,294.17568 L 267.15397,352.51253 L 299.1433,352.51253 L 301.92576,344.64475 L 329.58782,344.64475 L 332.05367,352.51253 L 368.44708,352.51253"
         style="fill:#2a428f;fill-rule:nonzero;stroke:none"
         id="path186" />
      <path
         d="M 376.94808,294.17568 L 410.0984,294.17568 L 410.0984,352.51253 L 376.94808,352.51253 L 376.94808,294.17568 z "
         style="fill:#2a428f;fill-rule:nonzero;stroke:none"
         id="path188" />
      <path
         d="M 499.33074,329.19701 L 516.63989,352.51253 L 477.31048,352.51253 L 460.47147,324.30359 L 460.47147,323.91977 L 474.22093,323.91977 C 479.40218,323.91977 484.11327,321.52106 484.11327,315.76415 C 484.11327,310.19916 478.85529,308.56802 474.45121,308.56802 L 460.24119,308.56802 L 460.24119,352.51253 L 427.09095,352.51253 L 427.09095,294.17568 L 489.37125,294.17568 C 507.60153,294.17568 516.71663,300.31641 516.71663,312.40596 C 516.71663,322.0008 508.53224,327.46988 499.33074,329.19701"
         style="fill:#2a428f;fill-rule:nonzero;stroke:none"
         id="path190" />
      <path
         d="M 600.71977,311.44647 L 600.71977,321.23323 L 638.96493,321.23323 L 638.96493,336.39314 L 600.71977,336.39314 L 600.71977,352.51253 L 567.56952,352.51253 L 567.56952,294.17568 L 641.97774,294.17568 L 641.97774,311.44647 L 600.71977,311.44647"
         style="fill:#2a428f;fill-rule:nonzero;stroke:none"
         id="path192" />
      <path
         d="M 725.04057,329.19701 L 742.34973,352.51253 L 703.02032,352.51253 L 686.17172,324.30359 L 686.17172,323.91977 L 699.93077,323.91977 C 705.10243,323.91977 709.82311,321.52106 709.82311,315.76415 C 709.82311,310.19916 704.56513,308.56802 700.16105,308.56802 L 685.94144,308.56802 L 685.94144,352.51253 L 652.80079,352.51253 L 652.80079,294.17568 L 715.0715,294.17568 C 733.30178,294.17568 742.42647,300.31641 742.42647,312.40596 C 742.42647,322.0008 734.23248,327.46988 725.04057,329.19701"
         style="fill:#2a428f;fill-rule:nonzero;stroke:none"
         id="path194" />
      <path
         d="M 803.4115,329.10101 L 784.84543,329.10101 L 792.79955,307.22471 L 796.27292,307.22471 L 803.4115,329.10101 z M 846.58844,352.51253 L 823.94449,294.17568 L 770.08853,294.17568 L 745.28574,352.51253 L 777.26548,352.51253 L 780.04801,344.64475 L 807.72918,344.64475 L 810.22388,352.51253 L 846.58844,352.51253"
         style="fill:#2a428f;fill-rule:nonzero;stroke:none"
         id="path196" />
      <path
         d="M 910.29838,352.51253 L 882.47326,327.75778 L 882.08944,327.75778 L 882.08944,352.51253 L 855.03189,352.51253 L 855.03189,294.17568 L 887.84642,294.17568 L 912.31334,316.53172 L 912.79308,316.53172 L 912.79308,294.17568 L 939.75464,294.17568 L 939.75464,352.51253 L 910.29838,352.51253"
         style="fill:#2a428f;fill-rule:nonzero;stroke:none"
         id="path198" />
      <path
         d="M 1001.7375,353.85584 C 967.77167,353.85584 950.21305,342.24604 950.21305,323.05628 C 950.21305,303.7706 966.81219,292.83237 1001.2578,292.83237 C 1011.8122,292.83237 1025.7247,294.46351 1032.729,296.57439 L 1031.0019,314.90059 C 1025.5329,313.07761 1017.3772,311.63838 1011.1405,311.63838 C 992.14268,311.63838 985.61812,316.91555 985.61812,323.1522 C 985.61812,329.48484 992.14268,334.66608 1011.1405,334.66608 C 1017.3772,334.66608 1026.0126,333.32277 1031.5776,331.59572 L 1033.3047,350.01783 C 1026.3964,352.12871 1012.1,353.85584 1001.7375,353.85584"
         style="fill:#2a428f;fill-rule:nonzero;stroke:none"
         id="path200" />
      <path
         d="M 1043.7631,352.51253 L 1043.7631,294.17568 L 1115.8206,294.17568 L 1115.8206,309.62342 L 1076.8654,309.62342 L 1076.8654,316.91555 L 1112.8462,316.91555 L 1112.8462,328.81318 L 1076.8654,328.81318 L 1076.8654,336.77696 L 1117.3558,336.77696 L 1117.3558,352.51253 L 1043.7631,352.51253"
         style="fill:#2a428f;fill-rule:nonzero;stroke:none"
         id="path202" />
      <path
         d="M 1074.4667,432.9176 L 1117.5477,381.77688 L 987.44117,381.77688 L 944.26423,432.9176 L 1074.4667,432.9176"
         style="fill:#e03e32;fill-rule:nonzero;stroke:none"
         id="path204" />
      <path
         d="M 516.69745,381.77688 L 473.56854,432.9176 L 667.95104,432.9176 L 711.08002,381.77688 L 516.69745,381.77688"
         style="fill:#2a428f;fill-rule:nonzero;stroke:none"
         id="path206" />
      <path
         d="M 915.76746,381.77688 L 872.68651,432.9176 L 891.0127,432.9176 L 934.18964,381.77688 L 915.76746,381.77688"
         style="fill:#2a428f;fill-rule:nonzero;stroke:none"
         id="path208" />
      <path
         d="M 734.51072,381.77688 L 691.38174,432.9176 L 760.5032,432.9176 L 803.60341,381.77688 L 734.51072,381.77688"
         style="fill:#2a428f;fill-rule:nonzero;stroke:none"
         id="path210" />
      <path
         d="M 838.24091,381.77688 L 795.14071,432.9176 L 829.60548,432.9176 L 872.68651,381.77688 L 838.24091,381.77688"
         style="fill:#2a428f;fill-rule:nonzero;stroke:none"
         id="path212" />
    </g>
  </g>
</svg>
