<?xml version="1.0" encoding="UTF-8"?>
<svg width="180px" height="78px" viewBox="0 0 180 78" version="1.1" xmlns="http://www.w3.org/2000/svg" xmlns:xlink="http://www.w3.org/1999/xlink">
    <!-- Generator: Sketch 51.3 (57544) - http://www.bohemiancoding.com/sketch -->
    <title>msj@1.5x</title>
    <desc>Created with Sketch.</desc>
    <defs></defs>
    <g id="msj" stroke="none" stroke-width="1" fill="none" fill-rule="evenodd">
        <g id="Group-3" transform="translate(50.000000, 27.000000)" fill="#CED3D9">
            <g id="Group-2" transform="translate(0.000000, 16.285714)">
                <path d="M14.1958591,5.2628865 C14.1958591,3.79596869 14.3507906,2.58754403 14.151681,1.44076321 C13.9581194,0.327270059 14.4703796,0.520626223 14.9559276,0.581242661 C14.9559276,2.40425636 14.9682564,4.16295499 14.9454481,5.92124266 C14.9409276,6.27014677 15.1737358,6.79391389 14.7825029,6.94370841 C14.3090783,7.12514677 14.0029139,6.63528376 13.7294207,6.29809198 C12.6196262,4.92939335 11.5242153,3.54898239 10.2446947,1.94994129 C10.3157906,3.76432485 10.1251057,5.3068591 10.4053796,6.86809198 C10.0747632,6.99240705 9.70798239,6.9428865 9.39503718,6.89172211 C9.65209198,4.81062622 9.61325636,2.75007828 9.42647554,0.61555773 C10.036955,0.427338552 10.5582564,0.565626223 11.0345577,1.22192759 C11.9768865,2.51994129 13.006955,3.75425636 14.1958591,5.2628865" id="Fill-25"></path>
                <path d="M4.72453033,0.616728963 C4.84822896,0.59885225 4.97911937,0.577276908 5.11062622,0.56145499 C5.7938454,0.480701566 6.07535225,0.521386497 5.98000978,1.4573454 C5.79918787,3.23453718 5.92761252,5.04316732 5.92761252,6.91898924 C5.0668591,6.55857828 4.1078865,6.98515362 3.11562622,7.09364677 C1.81966732,7.23522211 0.910831703,6.36748239 0.839941292,5.02405773 C0.786105675,4.00261937 0.822064579,2.97604403 0.82165362,1.95193444 C0.821448141,1.51118102 0.822886497,1.07124951 0.614941292,0.648989237 C1.06309198,0.49405773 1.49994129,0.564331703 1.97891389,0.592276908 C1.71343444,2.04172896 1.83610568,3.48501663 1.8568591,4.9233728 C1.8718591,5.9723454 2.31322896,6.35679746 3.30446184,6.35844129 C4.35302348,6.36070157 4.88316047,5.9273454 4.877818,4.91207143 C4.87021526,3.4913865 5.04569472,2.06042759 4.72453033,0.616728963" id="Fill-27"></path>
                <path d="M48.3280098,1.56807828 C47.7173249,1.27198239 47.1547221,1.02211937 46.516092,1.11499609 C46.0911605,1.1768454 45.6982838,1.30609198 45.5986262,1.79266732 C45.5092427,2.23013307 45.7669139,2.51574951 46.1115029,2.7089002 C46.6767769,3.02513307 47.2638317,3.30273581 47.8330098,3.61239335 C48.4695851,3.9588317 48.940544,4.42979061 48.8823933,5.22663992 C48.8265029,5.9918454 48.3600646,6.455818 47.7080783,6.77924266 C46.7891742,7.23540705 45.8437632,7.15444814 44.9071879,6.88465362 C44.3657495,6.7289002 44.4068454,6.24170841 44.3530098,5.70499609 C45.1714344,6.11554403 45.9142427,6.45499609 46.7583523,6.31444814 C47.2603386,6.230818 47.6973933,6.01074951 47.8042427,5.47198239 C47.9080098,4.94965362 47.5445166,4.66177691 47.1327358,4.43903718 C46.5321194,4.11417417 45.9179413,3.81253033 45.3335577,3.46116047 C44.7282153,3.09705088 44.4072564,2.56259883 44.5389687,1.82451663 C44.6708865,1.08437965 45.1847906,0.740818004 45.8530098,0.55465362 C46.4221879,0.396434442 46.9934207,0.388626223 47.5812975,0.450475538 C48.2468454,0.520338552 48.6086947,0.759516634 48.3280098,1.56807828" id="Fill-32"></path>
                <path d="M34.2835714,5.81611937 C34.3565166,6.65509198 34.1253523,6.9779002 33.3926125,6.94461252 C32.4083659,6.89961252 31.4202153,6.93331115 30.4696673,6.93331115 C30.6811057,4.80947554 30.6334344,2.74974951 30.5134344,0.560571429 C31.352818,0.560571429 32.2871331,0.543105675 33.2206262,0.567968689 C33.6991879,0.580708415 33.6983659,0.614818004 33.6052838,1.4108454 C33.3398043,1.34673581 33.0796673,1.24379061 32.8143933,1.22961252 C32.4190509,1.20824266 31.867544,1.0679002 31.6988454,1.47474951 C31.5293249,1.88447554 31.562818,2.42961252 31.6593933,2.8829002 C31.743229,3.27516047 32.1821331,3.04153033 32.4603523,3.07851663 C32.7845988,3.12166732 33.1961742,2.99509198 33.1807632,3.53961252 C33.1651468,4.09605088 32.7449413,3.84927006 32.4989824,3.83406458 C31.917681,3.79831115 31.4524755,3.85009198 31.6265166,4.61324266 C31.7623386,5.20892759 31.1072701,6.24063992 32.4934344,6.1728317 C33.0747358,6.14447554 33.6486399,6.13933855 34.2835714,5.81611937" id="Fill-34"></path>
                <path d="M22.3973659,0.650633072 C23.2090098,0.342413894 23.5848317,0.63645499 23.8129139,1.46227691 C24.1790783,2.78946869 24.6767495,4.08008513 25.2259961,5.7023454 C25.6661331,3.8493317 26.7944207,2.54166047 26.6649687,0.813989237 C26.6421605,0.512345401 26.6871605,0.50905773 27.9204481,0.637687867 C27.1289413,2.6423454 26.3390783,4.62604403 25.5658591,6.61611252 C25.3844207,7.0833728 25.1438043,7.08193444 24.8209961,6.78255088 C24.4856536,6.47124951 24.3149002,6.06398924 24.1661331,5.64193444 C23.5794892,3.97713992 22.9875029,2.31419472 22.3973659,0.650633072" id="Fill-36"></path>
                <path d="M64.3151742,6.93421526 C65.2854481,4.26072211 63.6938043,2.49853033 62.3431879,0.604831703 C64.4639413,0.232091977 64.1707221,2.39311937 65.3403112,3.15010568 C65.6857221,2.58031115 66.1291468,1.9649002 66.4476399,1.29092759 C66.7868865,0.572365949 66.7353112,0.547913894 67.7458591,0.623530333 C67.2204481,1.47072211 66.7903796,2.31236595 66.2205851,3.04531115 C65.4691468,4.01209198 65.4886673,5.09928376 65.6754481,6.15935225 C65.7975029,6.85161252 65.696818,7.03140705 65.0353796,6.93853033 C64.8389413,6.91079061 64.6355166,6.93421526 64.3151742,6.93421526" id="Fill-38"></path>
                <path d="M55.9132016,1.42921526 C56.0469687,0.746818004 56.3529276,0.510516634 56.9878591,0.541338552 C58.2127221,0.600516634 59.4427221,0.558598826 60.684229,0.558598826 C60.6864892,1.22579061 60.5664892,1.56935225 59.8154618,1.30428376 C59.1714892,1.076818 58.714092,1.22435225 58.7802564,2.10996869 C58.8986125,3.69544814 58.6222427,5.29962622 58.9908728,6.90565362 L57.6277221,6.90565362 C57.9369687,5.21558513 57.7222427,3.52942074 57.7949824,1.85044814 C57.8171742,1.33736595 57.5911468,1.17668102 57.1195714,1.25147554 C56.7527906,1.30942074 56.3849824,1.35996869 55.9132016,1.42921526" id="Fill-40"></path>
                <path d="M19.7293386,6.90292074 L18.4613249,6.90292074 C18.7329687,4.80990705 18.6729687,2.72716732 18.5011879,0.602304305 C18.8638591,0.517646771 19.3286536,0.522167319 19.7455714,0.608879648 C19.5528317,2.70107143 19.5961879,4.75463307 19.7293386,6.90292074" id="Fill-42"></path>
                <path d="M51.9405646,0.585824853 L53.1050166,0.585824853 C52.9476194,2.69548239 52.9130988,4.7774002 53.136044,6.89486595 L51.871318,6.89486595 C52.0640577,4.80678376 51.9695372,2.72979746 51.9405646,0.585824853" id="Fill-44"></path>
                <path d="M40.3302769,4.3388454 C40.0202084,3.95521526 40.0128112,3.74768102 40.4839755,3.50357143 C41.1632906,3.15158513 41.4729481,2.5559002 41.284729,1.79151663 C41.0827427,0.970831703 40.4247975,0.654187867 39.674592,0.594804305 C38.8631536,0.530900196 38.0426742,0.580420744 37.3705509,0.580420744 C37.3705509,2.51069472 37.3619207,4.38179061 37.3818523,6.25268102 C37.384318,6.4758317 36.9750029,6.86213307 37.3800029,6.87651663 C37.7572632,6.88966732 38.419318,7.39576321 38.604044,6.54405088 C38.1663728,4.90144814 38.5132221,3.2288454 38.418907,1.57247554 C38.3958933,1.16562622 38.7314413,1.20322896 38.9997975,1.19131115 C39.5582906,1.16624266 40.0454824,1.32343444 40.2287701,1.89548924 C40.4371262,2.54521526 40.1539755,2.99829746 39.5609618,3.32439335 C39.2942495,3.47110568 38.8165098,3.3659002 38.7992495,3.86932485 C39.3534276,4.60329746 39.9182906,5.32966732 40.4582906,6.07391389 C40.8953454,6.67637965 41.4337016,7.0168591 42.2679481,6.87569472 C41.6100029,6.00857143 40.9910988,5.15665362 40.3302769,4.3388454" id="Fill-46"></path>
            </g>
            <g id="Group">
                <path d="M11.1105205,9.23549119 L9.42661644,9.23549119 C9.59860274,6.91850489 8.96880822,4.69213503 8.8549726,2.34473777 C8.41031507,2.66179256 8.36983562,3.12062818 8.2120274,3.502409 C7.49469863,5.23562818 6.76442466,6.96453229 6.09456164,8.7164501 C5.83236986,9.40234051 5.56935616,9.34583366 5.24408219,8.83028571 C4.97284932,8.4004227 4.74743836,7.93603914 4.54832877,7.46713503 C3.83038356,5.77562818 3.13216438,4.07590215 2.40579452,2.32953229 C1.76839726,3.95323092 1.34120548,8.3693953 1.74291781,9.22275147 L4.10958905e-05,9.22275147 C0.820931507,6.45432681 1.10141096,3.61069667 1.36668493,0.593436399 C1.17106849,0.698847358 1.22469863,0.645833659 1.28058904,0.643367906 C3.12065753,0.559943249 3.11942466,0.561176125 3.81558904,2.27692955 C4.42771233,3.78514873 5.04271233,5.29213503 5.73271233,6.98651859 C6.41408219,5.27323092 7.02928767,3.72823092 7.64264384,2.18281996 C8.32360274,0.466655577 8.32278082,0.466244618 10.065863,0.693710372 C10.0890822,3.57453229 10.5267534,6.36884736 11.1105205,9.23549119" id="Fill-4"></path>
                <path d="M119.768301,9.23528571 L117.909534,9.23528571 C118.464123,7.99562818 118.137205,6.72001174 118.221041,5.47665558 C118.238301,5.22268297 118.105767,5.10658708 117.853027,5.10699804 C116.587274,5.10864188 115.321521,5.10699804 114.055767,5.10699804 C113.837342,5.10699804 113.624466,5.14562818 113.639466,5.42261448 C113.707479,6.67090215 113.387753,7.94980626 113.937822,9.21391585 L112.125082,9.21391585 C112.28063,6.38590215 112.349671,3.5564501 112.064671,0.678093933 L113.946452,0.678093933 C113.445082,1.60603914 113.684671,2.59973777 113.625288,3.56508023 C113.601247,3.95795695 113.756589,4.10960078 114.159123,4.10323092 C115.356247,4.08473777 116.553781,4.09295695 117.75111,4.09809393 C118.024808,4.09932681 118.238301,4.0364501 118.217959,3.71508023 C118.153644,2.70555969 118.457342,1.65761448 117.862068,0.662682975 L119.805904,0.662682975 C119.491726,3.51514873 119.542274,6.34891585 119.768301,9.23528571" id="Fill-6"></path>
                <path d="M34.9058014,2.828909 C34.7831301,4.9578816 34.4897055,7.05952544 34.8905959,9.20164873 L33.5286781,9.20164873 C33.8270342,6.38411448 33.8331986,3.55527886 33.5181986,0.674867906 C34.4122397,0.418635029 35.1260753,0.708155577 35.7786781,1.61370352 C37.0729932,3.41041585 38.4998425,5.11158023 39.9889521,6.83123777 C39.9495,4.78322407 40.3473082,2.7399364 39.7863493,0.675689824 L41.2234726,0.675689824 C40.7551849,3.21171722 41.1061438,5.78637476 40.9871712,8.34562133 C40.9707329,8.70007339 41.1971712,9.22610078 40.8371712,9.37425147 C40.3992945,9.55445695 40.0035411,9.13938845 39.7277877,8.80363503 C38.3617603,7.14027886 37.0216233,5.45616928 35.6722397,3.77945695 C35.4170342,3.46240215 35.1612123,3.14575832 34.9058014,2.828909" id="Fill-9"></path>
                <path d="M23.6643288,0.65372407 L25.6340548,0.65372407 C25.2329589,2.86694325 25.3283014,5.07358708 25.5298767,7.27221722 C25.6194658,8.24865558 26.4298767,8.50653229 27.262274,8.52050489 C28.1797397,8.53612133 29.2435068,8.39434051 29.3896027,7.33694325 C29.692274,5.14550489 29.7004932,2.92509393 29.3197397,0.68023092 L31.1174795,0.68023092 C30.757274,3.51132681 30.8035068,6.36132681 31.0843973,9.21091585 C30.6937808,9.00255969 29.9536438,9.80701174 29.5698082,8.83098434 C29.4915205,8.63208023 29.227274,8.88235421 29.0706986,8.96762818 C28.3628219,9.35310763 27.6161096,9.52981996 26.8065205,9.49057339 C25.1704932,9.4114638 24.1305616,8.41098434 24.0798082,6.77105284 C24.0397397,5.4724227 24.057411,4.17194325 24.0611096,2.87228571 C24.0631644,2.12249119 24.096863,1.37187476 23.6643288,0.65372407" id="Fill-11"></path>
                <path d="M54.1654726,7.69659393 C55.2070479,8.17371722 56.2077329,8.5998816 57.3508151,8.44762133 C58.0212945,8.35864873 58.6453356,8.16426517 58.8321164,7.40727886 C59.0250616,6.62522407 58.5462945,6.19947065 57.9339658,5.870909 C57.1229384,5.43570352 56.2923904,5.03337476 55.5041712,4.56036106 C54.7165685,4.0879638 54.2620479,3.39775832 54.4120479,2.42358023 C54.5684178,1.40810078 55.2596507,0.908991194 56.1660205,0.636319961 C57.1761575,0.332210372 58.196774,0.405155577 59.2110205,0.615155577 C60.1648562,0.812621331 59.3034863,1.55707339 59.6768425,1.96104599 C58.7934863,1.62282681 58.0003356,1.23816928 57.0810205,1.38858023 C56.511637,1.48166243 55.9995822,1.65200489 55.8645822,2.29762133 C55.7396507,2.89453914 56.0830068,3.28556654 56.5525274,3.54858023 C57.2955411,3.96447065 58.066089,4.33042955 58.8201986,4.72721037 C59.7189658,5.20001859 60.3923219,5.83844325 60.3183493,6.95871722 C60.2439658,8.08844325 59.5295137,8.73940215 58.5660205,9.15303229 C57.3409521,9.67864873 56.0867055,9.55268982 54.8519795,9.18899119 C54.1153356,8.97200489 54.4184178,8.20741585 54.1654726,7.69659393" id="Fill-13"></path>
                <path d="M94.1229041,2.04151174 C93.343726,1.58473092 92.6210548,1.28781311 91.803863,1.37164873 C91.208589,1.43267613 90.6170137,1.55164873 90.4413288,2.24164873 C90.2650274,2.93349804 90.6998219,3.34301859 91.2328356,3.63726517 C91.9193425,4.0159638 92.634411,4.34308708 93.3320137,4.7028816 C94.269,5.18637476 95.0013288,5.8539775 94.8876986,7.00630626 C94.7699589,8.19911448 93.9568767,8.86651174 92.8914658,9.24603229 C91.749,9.6528816 90.5931781,9.53329256 89.4605753,9.20637476 C88.684274,8.98240215 88.9216027,8.23979941 88.5913973,7.53603229 C89.7414658,8.12925147 90.6926301,8.57904599 91.794411,8.46007339 C92.5532466,8.37829256 93.2418082,8.17301859 93.4179041,7.31966243 C93.5810548,6.52959393 93.0122877,6.15110078 92.4233836,5.82952544 C91.6148219,5.38774462 90.7811918,4.98952544 89.9927671,4.51548434 C89.1868767,4.03116928 88.8262603,3.29534736 88.9900274,2.33801859 C89.148863,1.40884051 89.7961233,0.937881605 90.6120822,0.669114481 C91.6470822,0.32842955 92.7067397,0.386991194 93.7561233,0.616100783 C94.2583151,0.72603229 94.2531781,0.749456947 94.1229041,2.04151174" id="Fill-15"></path>
                <path d="M106.184486,9.24011448 L104.291815,9.24011448 C104.62613,6.37223777 104.510856,3.52531996 104.381815,0.629087084 C105.195103,0.629087084 106.185103,0.614292564 107.174692,0.632169276 C109.071678,0.666689824 110.249897,1.65381311 110.174075,3.12134736 C110.096815,4.61168982 108.802911,5.45723777 106.843048,5.27538845 C107.074829,4.91703229 107.498116,4.93244325 107.800582,4.73744325 C108.660103,4.18326517 108.988664,3.25799119 108.575856,2.44860763 C108.214007,1.73949804 106.918459,1.32771722 106.130856,1.62566243 C105.860856,1.72778571 105.865788,1.8909364 105.865993,2.09127886 C105.869692,4.14463503 105.863322,6.19799119 105.894349,8.25114188 C105.899281,8.57312818 106.077842,8.89244325 106.184486,9.24011448" id="Fill-17"></path>
                <path d="M101.25189,1.81334736 C100.991342,1.74368982 100.731411,1.67218297 100.470452,1.60458023 C99.8236027,1.43773092 98.960589,1.34937476 98.6593562,1.82526517 C98.3474384,2.31800489 98.4485342,3.16375832 98.5749041,3.81533366 C98.6920274,4.41985421 99.3310685,4.11019667 99.7081233,4.09108708 C100.497575,4.05163503 100.905658,4.23512818 100.615521,5.15074462 C100.566411,5.15731996 100.477438,5.1879364 100.393603,5.17807339 C99.7954521,5.10718297 98.9038767,4.77944325 98.6723014,5.25327886 C98.2827123,6.04971722 98.4953836,7.05348434 98.5890822,7.96499119 C98.6174384,8.24218297 98.9649041,8.19903229 99.1954521,8.22348434 C100.250178,8.33547065 101.285589,8.27033366 102.321,7.71225147 C102.274973,8.93218297 101.829288,9.38834736 100.696479,9.29115558 C99.4434658,9.18327886 98.1740137,9.26629256 96.9830548,9.26629256 C97.3013425,6.40047065 97.2968219,3.57779941 96.9865479,0.629785714 C98.2455205,0.629785714 99.6236712,0.56773092 100.992575,0.653210372 C101.795178,0.703552838 101.148123,1.40670352 101.25189,1.81334736" id="Fill-19"></path>
                <path d="M47.0996096,9.2499364 L45.0863219,9.2499364 C45.5211164,6.85445695 45.2116644,4.45322407 45.3059795,2.06452544 C45.3201575,1.70431996 45.1555685,1.58411448 44.8157055,1.5978816 C44.175637,1.62356654 43.5331027,1.6159638 42.9166644,1.88062133 C42.8525548,0.853840509 43.2896096,0.56082681 44.2381027,0.60582681 C45.9090616,0.684936399 47.5861849,0.627813112 49.260637,0.627813112 C49.310774,1.64370352 48.965774,1.89315558 47.9661164,1.6609638 C46.7124863,1.37000489 46.6868014,1.47952544 46.6865959,2.78945695 C46.6863904,4.328909 46.6929658,5.86836106 46.6835137,7.40781311 C46.6796096,8.02733366 46.6845411,8.63863503 47.0996096,9.2499364" id="Fill-21"></path>
                <path d="M61.3992945,1.83280626 C61.3789521,0.648833659 62.1125137,0.582874755 63.0211438,0.613491194 C64.6175137,0.66732681 66.2169658,0.628696673 67.8127192,0.628696673 C67.8381986,1.57205284 67.6129932,1.92013503 66.5971027,1.66862818 C65.259637,1.33780626 65.2265548,1.4524638 65.2259384,2.82773777 C65.2253219,4.26198434 65.2314863,5.69664188 65.2234726,7.13088845 C65.219363,7.84308023 65.2275822,8.54972407 65.6181986,9.24013503 L63.5810753,9.24013503 C64.1650479,7.59013503 63.794774,5.90849119 63.8983356,4.25581996 C63.9069658,4.11979256 63.8995685,3.98273777 63.8995685,3.84609393 C63.899363,1.29753229 63.899363,1.29753229 61.3992945,1.83280626" id="Fill-23"></path>
                <path d="M73.324726,11.8623816 C74.3286986,11.1871761 74.5362329,10.2392994 74.540137,9.22114873 C74.5489726,6.8614227 74.5497945,4.50149119 74.5393151,2.14135421 C74.5370548,1.66628571 74.4994521,1.18484736 74.1213699,0.69272407 L76.265137,0.69272407 C75.8576712,1.34594325 75.8833562,2.06162818 75.884589,2.77957339 C75.8893151,5.10518982 75.9020548,7.4314227 75.8673288,9.75662818 C75.8461644,11.1602583 74.889863,11.9725186 73.324726,11.8623816" id="Fill-30"></path>
                <path d="M68.4666781,7.8414775 C68.9415411,7.93127202 69.2583904,8.19777886 69.2386644,8.66503914 C69.2172945,9.1733953 68.8864726,9.49764188 68.3600342,9.43949119 C67.902226,9.38894325 67.6188699,9.07229941 67.6585274,8.59065558 C67.6979795,8.11353229 68.0234589,7.89120352 68.4666781,7.8414775" id="Fill-48"></path>
                <path d="M82.6588973,8.51008708 C80.8015685,8.47967613 79.4786918,6.93570352 79.4982123,4.82173092 C79.516911,2.78501859 80.8603356,1.3719364 82.7717055,1.37768982 C84.6849247,1.38344325 86.021363,2.9389227 85.9806781,5.11268982 C85.9428699,7.13707339 84.5696507,8.54152544 82.6588973,8.51008708 M82.7850616,0.424676125 C80.1185548,0.416045988 77.9904041,2.43405969 77.9745822,4.98673092 C77.9585548,7.5459775 79.9704041,9.45755284 82.6905411,9.46803229 C85.351089,9.47851174 87.5075959,7.43378571 87.4997877,4.90844325 C87.4915685,2.31858023 85.5097192,0.433717221 82.7850616,0.424676125" id="Fill-52"></path>
                <path d="M17.1825,8.51088845 C15.3218836,8.4923953 13.9864726,6.95766928 13.9932534,4.84595695 C14.0000342,2.81376517 15.3405822,1.38362818 17.2449658,1.37664188 C19.112363,1.36986106 20.492774,2.89760078 20.5061301,4.98568297 C20.5190753,7.03534051 19.1098973,8.53020352 17.1825,8.51088845 M17.2166096,0.424450098 C14.5445548,0.438833659 12.4696233,2.4773953 12.5008562,5.05801174 C12.532089,7.65034051 14.5110616,9.48280626 17.2632534,9.46801174 C19.8525,9.45403914 21.9845548,7.41732681 22.0042808,4.9384227 C22.0248288,2.32903914 19.9889384,0.409450098 17.2166096,0.424450098" id="Fill-54"></path>
            </g>
        </g>
        <g id="Group" transform="translate(6.000000, 15.000000)">
            <path d="M36.5467368,18.4160128 C36.5467368,23.8666012 36.5107966,29.3176504 36.5591777,34.7678932 C36.5923533,38.4973826 34.9243583,41.3224916 32.0947568,43.5488272 C28.9919174,45.9902282 25.517235,47.8372332 22.0357561,49.6633882 C20.9672256,50.2239175 19.8779604,50.7449356 18.8020575,51.2916417 C18.5869921,51.4009598 18.4064847,51.4523359 18.1616995,51.3311529 C13.7433558,49.1464019 9.36049151,46.8979493 5.35868578,43.9904773 C3.23441118,42.4471211 1.56376672,40.5365296 0.752347047,37.9770557 C0.441671455,36.9971087 0.343757383,35.9843316 0.342951032,34.9672923 C0.332929239,23.5280489 0.336500222,12.0886902 0.32117955,0.649446762 C0.320603585,0.207451121 0.445242439,0.115181507 0.867309687,0.115642279 C12.5945357,0.127276775 24.3217617,0.127276775 36.0489878,0.115181507 C36.4603421,0.114720735 36.546852,0.237631694 36.5461609,0.623758717 C36.5349871,6.55447167 36.5383277,12.4852998 36.5383277,18.4160128 L36.5467368,18.4160128 Z" id="Fill-1" fill="#CED3D9"></path>
            <path d="M1.57980159,18.7675473 C1.57922563,13.1818375 1.58533086,7.59612765 1.56839748,2.01041781 C1.56689997,1.52222976 1.66089748,1.36453051 2.19032463,1.36545205 C13.0162804,1.38491968 23.8422362,1.38549564 34.668192,1.37328518 C35.1810314,1.37270922 35.3386154,1.48939975 35.3378091,2.03023101 C35.3205301,12.7217565 35.2567132,23.4139732 35.3611932,34.1045772 C35.398631,37.9486837 33.8419124,40.7838144 30.845857,42.9681046 C27.2384722,45.598307 23.2780208,47.6258194 19.3308165,49.6780984 C18.6720276,50.0206824 18.1800382,49.9939577 17.5429056,49.6636993 C13.7810469,47.7140573 10.0214921,45.7641849 6.53793982,43.3321146 C5.22278104,42.4140262 4.05714281,41.3483755 3.12811106,40.0252684 C2.10289312,38.5651968 1.58106872,36.9585996 1.58072314,35.179213 C1.57991679,29.7085809 1.58037756,24.2380641 1.57980159,18.7675473" id="Fill-50" fill="#FEFEFE"></path>
            <path d="M3.07382058,19.4969035 C3.07382058,14.1600106 3.08038659,8.82323288 3.06241647,3.48645517 C3.06091896,3.01312702 3.16850925,2.88652989 3.65404786,2.88733624 C13.5214825,2.90300249 23.3888019,2.9012746 33.2562365,2.89067684 C33.678419,2.89021606 33.8433754,2.95530012 33.8426842,3.44037796 C33.8262116,13.8836625 33.8107758,24.3270623 33.8427994,34.7702316 C33.8508629,37.3582733 32.7330298,39.3493848 30.8624102,40.975104 C28.8118592,42.7573705 26.4370398,44.0663088 24.0884843,45.4033543 C22.3607041,46.3868724 20.6003243,47.31049 18.8234719,48.20266 C18.6131294,48.308292 18.4405703,48.3928437 18.193942,48.2657858 C14.2822172,46.2527877 10.3429613,44.2844844 6.80699618,41.6310131 C5.13381747,40.3754091 3.80126454,38.8447242 3.2635435,36.7543163 C3.12991959,36.2345654 3.0752029,35.7024888 3.07577886,35.1618879 C3.08073217,29.940188 3.07865869,24.7186034 3.07865869,19.4969035 L3.07382058,19.4969035 Z" id="Fill-56" fill="#CED3D9"></path>
            <path d="M15.748037,20.287957 C16.0892387,20.8199184 16.4298645,21.3522254 16.7722182,21.8834956 C16.8525077,22.0081345 16.9046901,22.1692895 17.1039741,22.1499371 C17.3377007,22.1272441 17.3391982,21.9415529 17.3823956,21.7747534 C17.6874267,20.5971351 17.9969504,19.4205535 18.3477132,18.0813194 C18.6900668,19.3866868 18.9886472,20.5318207 19.292296,21.6756874 C19.3384884,21.8499745 19.3001291,22.0845075 19.5526322,22.139109 C19.8476416,22.2029259 19.8853097,21.9295729 19.9912873,21.7702609 C20.3156708,21.2829944 20.6224299,20.7842086 21.0185787,20.1597472 C21.1030152,20.8605816 20.8320812,21.3423188 20.7817418,21.8536606 C20.7558234,22.1164159 20.4597773,22.4232902 20.7656148,22.6343238 C21.0594722,22.8370635 21.284905,22.4970137 21.5157518,22.3669608 C22.4572244,21.8367273 23.3836067,21.2796538 24.3940799,20.8143892 C23.8072866,21.8136887 23.217268,22.8111451 22.6370407,23.8141308 C22.5390114,23.9836949 22.3227941,24.1458867 22.487405,24.3781158 C22.6563931,24.6164502 22.883093,24.4385922 23.0652132,24.4025367 C23.7189336,24.273175 24.3653969,24.1077578 25.0602412,24.0552298 C24.4686098,24.4282248 23.8738682,24.7964969 23.2878813,25.1782466 C23.1572524,25.263259 22.9381553,25.2941308 22.9736347,25.5320044 C23.0113028,25.7840467 23.2229124,25.7817428 23.4071061,25.8290872 C24.4270251,26.0906905 25.4459074,26.3560953 26.4642138,26.6235735 C26.6090114,26.6617024 26.7487406,26.7184925 26.9891484,26.8000492 C25.7418383,27.1224745 24.5953221,27.4132217 23.4530681,27.7202111 C23.2863838,27.7650212 23.0436721,27.7200959 22.9889554,27.9803169 C22.9267512,28.2765934 23.193423,28.315759 23.3534261,28.422543 C23.8471434,28.7516494 24.3509977,29.0654352 24.8509355,29.3852111 C24.8761627,29.4968331 24.8471341,29.5536233 24.7218041,29.512845 C24.1228003,29.385787 23.5241422,29.257462 22.9246777,29.1329384 C22.7849485,29.1039097 22.6424548,28.9851457 22.5042231,29.1502173 C22.3548178,29.3285361 22.4687437,29.471721 22.5550233,29.618477 C23.1285693,30.5928948 23.7045345,31.5658151 24.2758919,32.5416152 C24.3189741,32.6151083 24.4143539,32.6845697 24.3233514,32.8316712 C23.3224392,32.2436108 22.3234853,31.6535922 21.32073,31.0702547 C21.1477101,30.9696912 20.9791827,30.7668362 20.7517916,30.9196974 C20.5071216,31.0843082 20.6915457,31.3144639 20.7274859,31.4962385 C20.8567325,32.1511108 21.0227256,32.798726 21.079631,33.4995604 C20.7534043,32.9832653 20.4428439,32.4560268 20.0934635,31.956089 C19.9525824,31.7543861 19.9249361,31.3641121 19.5941017,31.4105349 C19.2264056,31.461911 19.2967885,31.8653169 19.22606,32.1198935 C18.9301291,33.1866961 18.6671434,34.262599 18.3517449,35.4927453 C18.0053595,34.1711357 17.7012499,33.0117179 17.3977163,31.8523001 C17.3506023,31.6722534 17.3640799,31.448779 17.1168757,31.401665 C16.8487063,31.3506345 16.8231335,31.6071694 16.7287904,31.7496631 C16.3777972,32.2793207 16.0460413,32.8216494 15.7071434,33.3591401 L15.5652256,33.2808088 C15.7088713,32.6406812 15.8542449,32.0008991 15.9946652,31.3599651 C16.0253066,31.2197752 16.1418819,31.0695635 15.9781926,30.9370915 C15.8052879,30.7972472 15.6568041,30.9012665 15.506938,30.9896196 C14.5161627,31.5730722 13.5253875,32.1565249 12.532654,32.7367522 C12.4764398,32.7696974 12.4209168,32.8474527 12.2931677,32.7576021 C12.8796154,31.7603761 13.4709012,30.7621133 14.0528564,29.7582061 C14.1519224,29.5873748 14.3584635,29.4261046 14.2150482,29.1908804 C14.0507829,28.9212136 13.8296123,29.1293674 13.6473769,29.1618518 C13.0825855,29.2626457 12.5235538,29.3955785 11.9622182,29.5160704 C11.8359666,29.558807 11.8113153,29.4979851 11.8335475,29.3895884 C12.3829031,29.0403232 12.9341017,28.6938225 13.4802319,28.3394888 C13.5991111,28.2624247 13.7740893,28.2151955 13.7222524,28.0022036 C13.6768663,27.8160517 13.5355245,27.7939346 13.3809355,27.754193 C12.1951385,27.450429 11.0115301,27.1380255 9.66238939,26.7851893 C10.510786,26.5575679 11.2111596,26.3664626 11.9132611,26.182269 C12.4130837,26.0512945 12.9145189,25.9261949 13.4169909,25.8060486 C13.5816017,25.7666526 13.7037063,25.6916619 13.732735,25.518066 C13.7623396,25.3410143 13.6030276,25.3021943 13.4975108,25.2346912 C12.8746621,24.8363537 12.2487032,24.4428543 11.6668632,23.9524776 C12.3162063,24.103726 12.9632456,24.2669545 13.6166204,24.3987354 C13.8035787,24.4365187 14.0313153,24.6078107 14.2013402,24.3895199 C14.372517,24.1697316 14.1662063,23.9946382 14.0661036,23.822655 C13.481499,22.8173655 12.8897524,21.8162229 12.3676976,20.7275336 C13.1318881,21.1749433 13.8963091,21.6218923 14.6600388,22.0699932 C14.9408794,22.2348344 15.2178035,22.4063568 15.5007175,22.5675118 C15.6444784,22.6494141 15.7813277,22.7769328 15.968862,22.6322503 C16.1451073,22.4960922 16.0262281,22.3545199 15.9978906,22.2167491 C15.8748645,21.6172846 15.7460787,21.018972 15.6194815,20.4201986 C15.5754778,20.2917584 15.6386036,20.2673375 15.748037,20.287957" id="Fill-58" fill="#FFFFFF"></path>
            <path d="M15.7712599,8.87922821 C14.7301453,11.2444866 13.6908738,13.6106666 12.6441148,15.9735059 C12.5653228,16.1513639 12.5683178,16.4501747 12.2994573,16.4370427 C12.0866957,16.4266753 12.0637723,16.1586211 11.9852107,15.9937799 C10.9233614,13.7658316 9.86842363,11.5346578 8.80956934,9.29979795 C8.75611977,9.3351622 8.70750832,9.35209558 8.70716274,9.3699505 C8.66891865,11.2305483 8.61915527,13.0910308 8.60671442,14.951859 C8.60153073,15.7302182 8.80081467,15.9060028 9.61880035,16.0733783 C9.75392177,16.1010246 9.9830407,16.0548322 9.96403385,16.2777307 C9.94352949,16.5182537 9.73065278,16.4065165 9.5964529,16.3967251 C8.67617581,16.3291068 7.75647469,16.3259966 6.8363128,16.3974163 C6.71351703,16.4069773 6.53300956,16.50109 6.49188565,16.3162052 C6.44120072,16.0880078 6.66202575,16.0882382 6.79887507,16.0799443 C7.59359175,16.0315632 7.88341741,15.7955327 7.91647781,14.7273478 C7.97891243,12.7130825 8.01427669,10.6978957 8.04722189,8.6828241 C8.06346411,7.69320081 7.73792862,7.29578487 6.78171131,7.05445548 C6.62804381,7.01575062 6.34305626,7.06885461 6.37795975,6.84549533 C6.42081155,6.57041438 6.69301268,6.74343431 6.86038814,6.74608375 C7.22428291,6.7518434 7.60084891,6.86058562 7.94896224,6.79792061 C8.87810919,6.63054514 9.27241492,7.07772447 9.62168017,7.88257814 C10.5822748,10.0961273 11.6400924,12.2674007 12.6996378,14.541887 C13.3918327,12.9629362 14.0532711,11.4632382 14.7068763,9.95996918 C15.1193825,9.01112422 15.5540058,8.07022758 15.8637599,7.08025872 C15.9208956,6.89767777 15.97423,6.77511239 16.2079566,6.79216096 C16.9368981,6.84526494 17.6651484,6.82418462 18.3907493,6.72396669 C18.511126,6.70737889 18.6942829,6.65415971 18.6999274,6.85943369 C18.7037287,6.99202086 18.5614654,7.01413792 18.4410886,7.02899782 C18.2321285,7.05480106 18.0240899,7.08912858 17.8169728,7.12668151 C17.4434018,7.19429981 17.2513751,7.43205822 17.2217705,7.79986955 C17.1972343,8.10570704 17.1720071,8.41327242 17.1783427,8.71934029 C17.2211945,10.791778 17.2592082,12.8645613 17.3270569,14.9361927 C17.3558551,15.814194 17.5129784,15.9478179 18.3748527,16.0623197 C18.45088,16.0724567 18.5270226,16.0825937 18.60305,16.0933067 C18.7381715,16.1126591 18.8950644,16.1252151 18.8505998,16.3206977 C18.8139685,16.4823135 18.6702076,16.4243714 18.5650363,16.4131977 C17.7227449,16.3239231 16.8776889,16.3511087 16.0335544,16.3565227 C15.6888969,16.3587114 15.3444697,16.3920022 14.9999274,16.4092811 C14.8927979,16.4146952 14.755603,16.4764387 14.7127512,16.3164356 C14.6719728,16.1640352 14.7910824,16.136504 14.906621,16.0973384 C15.9442798,15.7457693 15.9745756,15.7154735 15.9788377,14.6323135 C15.9865556,12.7166535 15.9810264,10.8011087 15.9810264,8.88544863 L15.7712599,8.87922821 Z" id="Fill-60" fill="#FFFFFF"></path>
            <path d="M22.4718078,16.6356354 C21.4802262,16.6240009 20.7158053,16.3596329 20.0157773,15.8781261 C19.7713377,15.7099443 19.6414,15.529552 19.6805656,15.2172637 C19.7352823,14.7802214 19.7521005,14.3383409 19.7872343,13.8987643 C19.795989,13.7893309 19.773296,13.6453397 19.9292673,13.6290974 C20.1379971,13.6074412 20.0987163,13.7828801 20.1224461,13.9067126 C20.1548153,14.0759312 20.1848807,14.2464169 20.2302667,14.4125252 C20.6374741,15.905542 22.3215961,16.6200844 23.6813346,15.8789324 C24.6160108,15.3695489 24.804697,14.1362923 24.0790961,13.2481541 C23.7460731,12.840486 23.3075332,12.5631012 22.8640401,12.292628 C22.3241304,11.9634063 21.7708583,11.6522699 21.2536416,11.2901031 C20.4354255,10.7170177 19.8917144,9.97160367 20.0822437,8.90722011 C20.2909734,7.74100592 21.0103539,6.98683717 22.1254224,6.64033655 C22.9823433,6.37412547 23.8359236,6.49208313 24.6542549,6.84226993 C25.0424554,7.00837827 25.3834267,8.22758126 25.1597219,8.58053269 C25.1062723,8.66496918 25.0319728,8.65886395 24.9632026,8.64895735 C24.8147188,8.62753144 24.8263533,8.48434651 24.7871876,8.38401339 C24.3726079,7.31951463 23.7874274,6.93177491 22.6851453,7.0144835 C22.0298122,7.06367092 21.4798807,7.32896046 21.2268016,7.96482597 C20.9673869,8.61658811 21.1583769,9.20626121 21.6305531,9.70907877 C21.9898402,10.0916348 22.4409361,10.3486304 22.8822406,10.6196796 C23.3556839,10.9104268 23.8458302,11.1792874 24.2928944,11.5065507 C25.3603881,12.2880202 25.7030874,13.2344461 25.391951,14.4155202 C25.0937163,15.5471765 24.1141148,16.4265601 22.961263,16.5908253 C22.7528788,16.62043 22.5416148,16.629415 22.4718078,16.6356354" id="Fill-62" fill="#FFFFFF"></path>
            <path d="M28.1721808,6.83534682 C28.8455992,6.82935679 29.5154467,6.79883064 30.1839118,6.72948443 C30.2925388,6.71819552 30.4426353,6.68928207 30.4564585,6.84801806 C30.4692449,6.99477397 30.3273271,7.0008792 30.2145531,7.02714321 C29.1225233,7.27999191 29.1082393,7.29911395 29.0750637,8.42339788 C29.0110164,10.5890268 29.1660662,12.758457 28.9882082,14.9212061 C28.8041297,17.1599826 27.6526602,18.3870187 25.4934822,19.2453219 C25.4020189,19.2817229 25.2818726,19.3986438 25.1978969,19.2462435 C25.0991764,19.0671183 25.2596403,19.0045685 25.3762157,18.9564178 C27.0447866,18.2674483 27.5807798,16.8920436 27.6543881,15.2278499 C27.755182,12.9466824 27.7071465,10.6647086 27.6849143,8.38331071 C27.6760444,7.47455293 27.5961005,7.09280324 26.5454249,7.02887111 C26.4132985,7.0208076 26.2433888,7.01228331 26.2778315,6.82152366 C26.3052474,6.66912329 26.461334,6.72441594 26.5661596,6.73052117 C27.101692,6.76185367 27.6368788,6.79975218 28.1721808,6.83534682" id="Fill-64" fill="#FFFFFF"></path>
            <path d="M16.0328056,39.3746697 C15.4642129,39.8983372 14.9901936,39.9759773 14.4705578,39.6821199 C13.9858256,39.4080757 13.7262957,38.8166747 13.842871,38.2524592 C14.0165821,37.4115501 14.8256979,36.8287886 15.722706,36.8983652 C16.6191381,36.9678266 17.2810373,37.6385956 17.3355236,38.5517307 C17.3693903,39.1213602 17.2303523,39.6575837 16.9391444,40.1469237 C16.2586992,41.2904449 15.1755391,41.8333496 13.823749,42.2356037 C14.0852371,41.8730912 14.3819744,41.8408372 14.6165074,41.7172351 C15.9233723,41.0283808 16.6334221,39.9880725 16.5696051,38.4761641 C16.5555516,38.1423347 16.472267,37.8279729 16.2728679,37.5602643 C16.0207104,37.2215968 15.6717907,37.1009897 15.2570958,37.1790906 C14.8584127,37.2541965 14.691498,37.5515097 14.6059096,37.9010053 C14.3532913,38.9307158 14.8489669,39.4702799 16.0328056,39.3746697" id="Fill-66" fill="#FBFBFC"></path>
            <path d="M26.2547814,38.8466248 C26.2552421,39.9954449 25.3320852,40.9144549 24.1623,40.9295451 C23.072574,40.9434835 22.1999868,40.0547693 22.2134644,38.9444237 C22.2274028,37.7979075 23.1756718,36.8776304 24.3319794,36.8884586 C25.4032745,36.8985956 26.2543206,37.7651927 26.2547814,38.8466248" id="Fill-68" fill="#FBFCFC"></path>
            <path d="M21.1642403,39.5975221 C21.2970578,39.9407973 21.1932689,40.2019399 21.1870485,40.4633129 C21.1799065,40.7607413 21.0237048,40.8505918 20.7441313,40.8466753 C19.8999968,40.8346952 19.0556319,40.8389573 18.2113822,40.8380358 C18.0989538,40.8379206 17.9607222,40.8754735 17.9167185,40.7335557 C17.8577396,40.5440632 18.0483841,40.5243652 18.1496388,40.4664231 C18.5665223,40.227628 18.9768399,39.9803085 19.3369333,39.6593808 C19.6896543,39.345019 19.962201,38.9764013 20.012886,38.4921298 C20.0525124,38.1147575 19.9962982,37.7449879 19.6394302,37.5292313 C19.2973069,37.3224598 18.9434339,37.3862768 18.5999283,37.5693185 C18.4716033,37.637628 18.3976494,37.8041971 18.2180634,37.7866877 C18.5149159,37.0269897 19.3746014,36.6703521 20.0611518,37.0183502 C20.7228206,37.3536771 20.8969924,38.1349163 20.4669769,38.8519928 C20.1660927,39.3537737 19.7234059,39.7203179 19.2435117,40.0741908 C20.1329171,40.3659748 20.841815,40.2036678 21.1642403,39.5975221" id="Fill-70" fill="#FBFCFC"></path>
            <path d="M11.1118517,40.7909564 C11.7716774,40.6814078 11.834112,40.2325006 11.8109582,39.703995 C11.7925273,39.2835405 11.7791649,38.8592846 11.8145292,38.4410187 C11.8580721,37.9256451 11.7008337,37.7109253 11.1710609,37.8871706 C11.1041338,37.9095181 11.0233835,37.8902808 10.9133741,37.8220866 C11.416998,37.4928649 11.9626674,37.2408225 12.5073,36.8330392 C12.5073,37.8497329 12.5255005,38.7780735 12.5002733,39.7052621 C12.4857589,40.2350349 12.5510734,40.6628618 13.1902795,40.7909564 L11.1118517,40.7909564 Z" id="Fill-72" fill="#FCFCFC"></path>
            <path d="M24.721781,29.659009 C24.775103,29.5678254 24.8284249,29.4766418 24.8816043,29.3852111 C25.0268851,29.4529192 25.1697423,29.5260638 25.221781,29.8260554 C25.0297366,29.9503518 24.8683451,29.8712766 24.721781,29.659009" id="Fill-74" fill="#C1AB42"></path>
            <path d="M11.8931058,29.3896115 C11.9450701,29.4827591 11.9968952,29.5759067 12.0488595,29.6690544 C11.9199935,29.8835994 11.7712056,29.9428983 11.5488595,29.8413521 C11.6356525,29.5725982 11.7429247,29.4372033 11.8931058,29.3896115" id="Fill-76" fill="#BDA743"></path>
            <path d="M16.0154388,20.3518575 C15.9233233,20.4063073 15.8312077,20.4607571 15.7390922,20.5150648 C15.5209369,20.3692018 15.4555645,20.2065632 15.5731852,20.0150648 C15.8819703,20.0628327 15.9441236,20.2094065 16.0154388,20.3518575" id="Fill-78" fill="#C6AE42"></path>
            <path d="M17.9101525,26.3782814 C17.772036,25.2592964 17.1889289,24.4895766 16.3656444,23.8670735 C16.487173,23.697279 16.6457938,23.7407067 16.744975,23.7757254 C17.4129794,24.0110648 17.8924127,23.891264 18.1286736,23.1526463 C18.1999781,22.9299782 18.4279451,22.8475 18.5164134,23.1297229 C18.7726027,23.9463263 19.3280634,23.9750093 20.0047073,23.7666252 C20.0572353,23.7504981 20.1195547,23.759944 20.1764601,23.7661644 C20.2085989,23.7696202 20.2388947,23.7905853 20.345909,23.8355106 C19.6587826,24.3342964 19.1386861,24.9316874 18.895168,25.7189166 C18.8359588,25.9102522 18.6633997,26.1538854 18.8093492,26.309972 C18.9615192,26.4728549 19.2057284,26.2943057 19.3941842,26.2367092 C20.1838324,25.995495 20.7831817,25.4755137 21.2566251,24.8242123 C21.324589,24.8712111 21.3492403,24.8799658 21.3498162,24.8899875 C21.3937048,25.6728394 21.6744302,26.3120455 22.2714756,26.8754545 C21.1875093,27.1168991 21.0935117,27.8352428 21.4180105,28.6949284 C21.1379762,28.771071 21.1090628,28.5682161 21.0242807,28.4692653 C20.5371294,27.9004421 19.9479171,27.5040629 19.2219706,27.297637 C18.846787,27.1909682 18.6920827,27.1826743 18.8272041,27.6618773 C19.0725653,28.5320455 19.5863262,29.1910648 20.3624968,29.7679514 C20.0339663,29.87151 19.778353,29.831538 19.5386363,29.7552802 C19.1401836,29.6285679 18.8641811,29.6666968 18.7205354,30.1288512 C18.6593679,30.3257161 18.5533903,30.627061 18.3113698,30.6134682 C18.119343,30.6026401 18.0034588,30.3254857 17.945056,30.1329981 C17.8080914,29.6814415 17.5391157,29.6203892 17.1345578,29.7534371 C16.9038262,29.8292341 16.6552396,29.867363 16.3130012,29.7745174 C17.1693461,29.1103144 17.7781413,28.3389819 17.9073878,27.2237983 C16.80165,27.3558095 16.0110802,27.9253238 15.3933,28.7936488 C15.3397353,28.7090971 15.3024127,28.6768431 15.307942,28.6551868 C15.5193212,27.8171575 15.4659868,27.0991594 14.3296076,26.7966625 C15.4808467,26.4684776 15.5785304,25.7501339 15.2965379,24.812693 C15.9995609,25.6357472 16.7820672,26.2257659 17.9101525,26.3782814" id="Fill-80" fill="#CED3D9"></path>
            <path d="M25.5439943,38.9323515 C25.549178,39.885113 25.1965721,40.4548577 24.6020609,40.5904399 C23.8583748,40.7598889 23.2036176,40.2721616 23.0050248,39.400496 C22.7597789,38.3230956 23.1089289,37.387037 23.8359121,37.2231174 C24.3694862,37.1027407 24.8165503,37.2697705 25.1456568,37.7162587 C25.4415877,38.1175912 25.5154264,38.5860813 25.5439943,38.9323515" id="Fill-82" fill="#CED3D9"></path>
        </g>
    </g>
</svg>