<?xml version="1.0" encoding="UTF-8"?>
<svg width="180px" height="78px" viewBox="0 0 180 78" version="1.1" xmlns="http://www.w3.org/2000/svg" xmlns:xlink="http://www.w3.org/1999/xlink">
    <!-- Generator: Sketch 51.3 (57544) - http://www.bohemiancoding.com/sketch -->
    <title>schneider@1.5x</title>
    <desc>Created with Sketch.</desc>
    <defs></defs>
    <g id="schneider" stroke="none" stroke-width="1" fill="none" fill-rule="evenodd">
        <path d="M74.3521114,50.4739295 C74.1161149,51.1375597 73.8289661,51.804385 73.491663,52.4678284 L68.5810158,52.4678284 L67.8625553,54.6836518 L72.1650139,54.6836518 C71.5450982,55.5779935 70.8316465,56.4517764 70.0272881,57.2876719 C64.3822415,63.1550992 56.3423265,64.9911649 52.1296391,61.3817562 C47.9169518,57.7712072 49.0847352,50.0437655 54.7286414,44.1797594 C60.3736881,38.3111917 68.4136031,36.4739856 72.6262904,40.0845347 C74.8264858,41.9702463 75.558714,44.979253 74.9522996,48.2592465 L69.6230116,48.2592465 L68.9056915,50.4739295 L74.3521114,50.4739295 Z M88.6447661,45.7468016 L82.3211734,45.7468016 L82.3211734,50.254856 L88.4098409,50.254856 L88.4098409,52.1867165 L82.3211734,52.1867165 L82.3211734,56.8122335 L88.8203898,56.8122335 L88.8203898,58.7452343 L80.2136893,58.7452343 L80.2136893,43.817222 L88.6447661,43.817222 L88.6447661,45.7468016 Z M93.4746452,58.7459186 L93.4746452,43.8167658 L95.4065056,43.8167658 L95.4065056,58.7459186 L93.4746452,58.7459186 Z M102.89925,54.1204015 C103.192336,56.0511215 104.30424,57.0478429 106.176799,57.0478429 C107.348003,57.0478429 108.461047,56.6350132 109.631111,55.8766383 L109.631111,57.7491972 C108.401745,58.509853 107.348003,58.9204018 105.709229,58.9204018 C102.664325,58.9204018 100.966249,56.4023689 100.966249,53.7098527 C100.966249,50.7242502 102.841089,48.7342287 105.533605,48.7342287 C108.109799,48.7342287 109.806735,50.4904655 109.806735,54.1204015 L102.89925,54.1204015 Z M105.591766,50.3730029 C104.071595,50.3730029 103.192336,51.2522617 102.957411,52.8317343 L107.876015,52.8317343 C107.816713,51.3081419 106.939735,50.3730029 105.591766,50.3730029 Z M122.072566,51.4844498 C120.959522,50.7237941 120.200007,50.4900093 119.378909,50.4900093 C117.564511,50.4900093 116.393307,51.837978 116.393307,53.8279995 C116.393307,55.8773225 117.680833,57.1066883 119.671995,57.1066883 C120.490812,57.1066883 121.31077,56.8717631 122.30635,56.4623546 L122.30635,58.3349136 C121.603856,58.6268594 120.37335,58.9210861 119.378909,58.9210861 C116.451468,58.9210861 114.402145,56.8717631 114.402145,54.0013424 C114.402145,50.7830956 116.276984,48.7337726 119.203285,48.7337726 C120.37335,48.7337726 121.135146,48.9675573 122.072566,49.3792466 L122.072566,51.4844498 Z M130.795018,48.9107647 L133.899224,48.9107647 L133.899224,50.6658611 L130.795018,50.6658611 L130.795018,55.6996461 C130.795018,56.8126897 131.613835,57.163937 132.201148,57.163937 C132.903643,57.163937 133.604997,56.9301522 134.423814,56.4625827 L134.423814,58.2769806 C133.72246,58.6270875 132.669858,58.9201738 132.023243,58.9201738 C129.915759,58.9201738 128.863158,57.5756263 128.863158,55.8171087 L128.863158,50.6658611 L127.166222,50.6658611 L127.166222,50.4309359 L130.795018,46.8603013 L130.795018,48.9107647 Z M140.894976,48.9107647 L140.894976,51.1915917 C141.890557,49.4364953 142.824556,48.7340006 143.761975,48.7340006 C144.522631,48.7340006 145.283287,49.0841076 146.103244,49.8459038 L145.048362,51.5451198 C144.46447,50.9589473 143.702674,50.6065596 143.236245,50.6065596 C141.890557,50.6065596 140.894976,51.9545283 140.894976,53.592162 L140.894976,58.7456905 L138.963116,58.7456905 L138.963116,48.9107647 L140.894976,48.9107647 Z M151.604941,58.7459186 L151.604941,48.9109928 L153.536801,48.9109928 L153.536801,58.7459186 L151.604941,58.7459186 Z M166.096061,51.4844498 C164.984158,50.7237941 164.221221,50.4900093 163.402404,50.4900093 C161.588006,50.4900093 160.417942,51.837978 160.417942,53.8279995 C160.417942,55.8773225 161.704329,57.1066883 163.695491,57.1066883 C164.513167,57.1066883 165.333124,56.8717631 166.328705,56.4623546 L166.328705,58.3349136 C165.627351,58.6268594 164.397985,58.9210861 163.402404,58.9210861 C160.473823,58.9210861 158.42564,56.8717631 158.42564,54.0013424 C158.42564,50.7830956 160.299339,48.7337726 163.227921,48.7337726 C164.397985,48.7337726 165.158641,48.9675573 166.096061,49.3792466 L166.096061,51.4844498 Z M27.3948693,21.8983611 C23.6987892,20.2573061 21.4829658,19.6813973 19.3469714,19.6813973 C17.0478979,19.6813973 15.569922,20.5013546 15.569922,21.7341415 C15.569922,25.5921603 28.544406,24.5270141 28.544406,33.3937289 C28.544406,38.2393457 24.4377771,41.114328 18.772203,41.114328 C14.2550253,41.114328 12.0392019,39.9636509 9.5759088,38.6498945 L9.5759088,33.1473995 C13.1875983,35.6118331 15.4057025,36.4329307 18.2795444,36.4329307 C20.7428375,36.4329307 22.0565938,35.6118331 22.0565938,34.0528878 C22.0565938,29.9451185 9,31.4253752 9,22.3089099 C9,17.8738419 12.8591592,15 18.772203,15 C21.646045,15 24.1925882,15.5747684 27.3948693,16.9729153 L27.3948693,21.8983611 Z M45.6242645,39.9634228 C43.4084412,40.7024107 41.6008858,41.1141 39.7933305,41.1141 C33.7172075,41.1141 29.7759385,37.5822394 29.7759385,32.1629946 C29.7759385,26.9079694 33.8825675,23.2118893 39.5481416,23.2118893 C41.2724467,23.2118893 43.5726607,23.6235786 45.3790756,24.3614261 L45.3790756,28.3859452 C43.9010998,27.6458169 42.2566236,27.1542987 40.9440077,27.1542987 C37.6607573,27.1542987 35.6068726,29.1226523 35.6068726,32.1629946 C35.6068726,35.2010561 37.6607573,37.2549408 40.7797881,37.2549408 C42.0935444,37.2549408 43.2442216,36.9242209 45.6242645,36.0232942 L45.6242645,39.9634228 Z M59.667316,37.8295951 L59.667316,30.931234 C59.667316,28.3858312 58.6010294,27.1541846 56.8755838,27.1541846 C55.6427969,27.1541846 54.5765103,27.9741419 53.2616135,29.7816973 L53.2616135,40.7855468 L47.8412283,40.7855468 L47.8412283,15.328097 L53.2616135,15.328097 L53.2616135,26.0856172 L53.3437233,26.0856172 C54.9049494,24.1161232 56.6281141,23.2117753 58.7641085,23.2117753 C61.96753,23.2117753 65.0854204,25.1003 65.0854204,29.7816973 L65.0854204,36.7610277 C63.2801459,36.7610277 61.0631821,37.4190463 59.667316,37.8295951 Z M67.632876,36.4330448 L67.632876,23.5406705 L73.0521208,23.5406705 L73.0521208,26.0039636 C74.7775664,24.0333291 76.5007311,23.211091 78.7199758,23.211091 C81.4284578,23.211091 84.9591779,24.7734575 84.9591779,29.7821534 L84.9591779,40.7848626 L79.5387926,40.7848626 L79.5387926,30.2748121 C79.5387926,27.8103785 78.3903963,26.8262017 76.8291702,26.8262017 C75.5142735,26.8262017 74.5300967,27.5651897 73.0521208,29.7000437 L73.0521208,37.2552829 C71.2457059,36.7603435 69.3583216,36.5972643 67.632876,36.4330448 Z M96.2104971,23.2114331 C101.219193,23.2114331 105.407932,26.7444341 105.079493,33.0668864 L92.759606,33.0668864 C92.9261064,36.1038074 95.0586795,37.9102224 98.4263205,37.9102224 C100.562315,37.9102224 102.287761,37.2544846 104.830883,35.4469293 L104.830883,38.8157107 C101.712992,41.1136438 98.5084303,41.1136438 97.1125642,41.1136438 C91.0353008,41.1136438 87.0928915,37.5817833 87.0928915,32.2457887 C87.0928915,26.989623 90.8733621,23.2114331 96.2104971,23.2114331 Z M92.8428562,30.1930444 L100.314845,30.1930444 C100.151766,27.8939709 98.6749307,26.4148546 96.621046,26.4148546 C94.4850516,26.4148546 93.0880451,27.8107207 92.8428562,30.1930444 Z M107.213206,40.7855468 L107.213206,23.5413548 L112.632451,23.5413548 L112.632451,40.7855468 L107.213206,40.7855468 Z M127.662188,15.3272987 L133.081433,15.3272987 L133.081433,40.7847486 L127.662188,40.7847486 L127.662188,39.3900229 C126.181932,40.6216694 124.703956,41.114328 122.897541,41.114328 C118.299394,41.114328 114.850783,37.3361382 114.850783,32.1632227 C114.850783,26.8260877 118.299394,23.210977 123.22712,23.210977 C124.787206,23.210977 126.264041,23.6238067 127.662188,24.2806848 L127.662188,15.3272987 Z M127.662188,36.1033513 L127.662188,27.8114049 C126.92206,27.2377769 125.609444,26.8260877 124.624127,26.8260877 C121.912224,26.8260877 120.271169,28.7955817 120.271169,32.2453325 C120.271169,35.3666442 121.912224,37.5003578 124.458767,37.5003578 C125.609444,37.5003578 126.593621,37.0909493 127.662188,36.1033513 Z M144.495946,23.2114331 C149.504642,23.2114331 153.60899,26.7444341 153.363801,33.0668864 L140.964085,33.0668864 C141.211555,36.1038074 143.264299,37.9102224 146.71405,37.9102224 C148.847763,37.9102224 150.572069,37.2544846 153.118612,35.4469293 L153.118612,38.8157107 C149.995019,41.1136438 146.71405,41.1136438 145.399153,41.1136438 C139.32303,41.1136438 135.380621,37.5817833 135.380621,32.2457887 C135.380621,26.989623 139.15653,23.2114331 144.495946,23.2114331 Z M141.130585,30.1930444 L148.600294,30.1930444 C148.353964,27.8939709 146.958098,26.4148546 144.825525,26.4148546 C142.689531,26.4148546 141.374634,27.8107207 141.130585,30.1930444 Z M161.492098,28.467941 L161.574207,28.467941 C163.134293,24.8539707 164.940708,23.2117753 167.076702,23.2117753 C168.142989,23.2117753 169.049618,23.6234645 170.608563,24.7741417 L169.130587,29.5365084 C167.734721,28.6321605 166.831514,28.302581 165.929447,28.302581 C163.956531,28.302581 162.643915,30.1933865 161.492098,33.311277 L161.492098,40.7855468 L156.072853,40.7855468 L156.072853,23.5413548 L161.492098,23.5413548 L161.492098,28.467941 Z M112.879693,16.2307342 C113.373492,17.6277407 112.469144,19.515125 110.826949,20.4206133 C109.182472,21.4059305 107.459308,21.0774915 106.966649,19.7637351 C106.47285,18.4499788 107.379479,16.5591733 109.021674,15.5749965 C110.663869,14.5908196 112.385894,14.9181183 112.879693,16.2307342 Z M153.655062,45.3970368 C153.830686,45.8646063 153.480579,46.5100803 152.893266,46.8601873 C152.307094,47.2114346 151.723202,47.0951124 151.546438,46.6252621 C151.371955,46.1576926 151.665041,45.5144994 152.250073,45.163252 C152.835105,44.8108643 153.420137,44.9283269 153.655062,45.3970368 Z M51.5340012,48.6055901 L55.4707085,48.6055901 L56.189169,46.3909071 L52.9310077,46.3909071 C52.4029962,47.1173505 51.9365671,47.8609001 51.5340012,48.6055901 Z M49.9498528,52.8164528 L54.4271161,52.8164528 L55.146717,50.6017698 L50.6147139,50.6017698 C50.3296105,51.3453194 50.1060895,52.0854477 49.9498528,52.8164528 Z M58.7423266,58.1766242 C61.3641372,58.1766242 64.5744011,56.2846782 65.2461047,53.7483987 L67.0114647,47.0872436 C67.1494547,46.5637938 67.3775374,46.4155401 68.0332752,46.4086976 L70.9755419,46.3790468 L71.7179511,43.2486119 L66.1139593,43.2486119 C63.5229399,43.2486119 60.3674158,45.2443354 59.7949283,47.7714917 L58.4002026,53.9034949 C58.2895825,54.3984343 57.6384064,54.7428392 57.1309224,54.739418 L53.9731175,54.7097672 L53.0744717,58.1766242 L58.7423266,58.1766242 Z" id="Combined-Shape" fill="#CED3D9"></path>
    </g>
</svg>