<?xml version="1.0" encoding="UTF-8"?>
<svg width="180px" height="78px" viewBox="0 0 180 78" version="1.1" xmlns="http://www.w3.org/2000/svg" xmlns:xlink="http://www.w3.org/1999/xlink">
    <!-- Generator: Sketch 51.3 (57544) - http://www.bohemiancoding.com/sketch -->
    <title>klm@1.5x</title>
    <desc>Created with Sketch.</desc>
    <defs></defs>
    <g id="klm" stroke="none" stroke-width="1" fill="none" fill-rule="evenodd">
        <path d="M87.9483568,11.0234742 L87.9483568,8.10798122 L90.8638498,8.10798122 L90.8638498,11.0234742 L93.7793427,11.0234742 L93.7793427,13.8309859 L90.8638498,13.8309859 L90.8638498,16.9624413 L87.9483568,16.9624413 L87.9483568,13.8309859 L85.0328638,13.8309859 L85.0328638,11.0234742 L87.9483568,11.0234742 Z M71.8591549,34.0234742 L71.8591549,27.8685446 L107.061033,27.8685446 L107.061033,34.0234742 L71.8591549,34.0234742 Z M77.0422535,21.5516432 C77.0422535,24.3844225 74.7459249,26.6807512 71.9131455,26.6807512 C69.0803662,26.6807512 66.7840376,24.3844225 66.7840376,21.5516432 C66.7840376,18.7188638 69.0803662,16.4225352 71.9131455,16.4225352 C74.7459249,16.4225352 77.0422535,18.7188638 77.0422535,21.5516432 Z M88.5962441,21.5516432 C88.5962441,24.3844225 86.2999155,26.6807512 83.4671362,26.6807512 C80.6343568,26.6807512 78.3380282,24.3844225 78.3380282,21.5516432 C78.3380282,18.7188638 80.6343568,16.4225352 83.4671362,16.4225352 C86.2999155,16.4225352 88.5962441,18.7188638 88.5962441,21.5516432 Z M100.258216,21.5516432 C100.258216,24.3844225 97.9618873,26.6807512 95.129108,26.6807512 C92.2963286,26.6807512 90,24.3844225 90,21.5516432 C90,18.7188638 92.2963286,16.4225352 95.129108,16.4225352 C97.9618873,16.4225352 100.258216,18.7188638 100.258216,21.5516432 Z M111.920188,21.5516432 C111.920188,24.3844225 109.623859,26.6807512 106.79108,26.6807512 C103.9583,26.6807512 101.661972,24.3844225 101.661972,21.5516432 C101.661972,18.7188638 103.9583,16.4225352 106.79108,16.4225352 C109.623859,16.4225352 111.920188,18.7188638 111.920188,21.5516432 Z M44,39.5305164 L52.5305164,39.5305164 L52.5305164,48.2769953 L61.1690141,39.5305164 L70.1314554,39.5305164 L59.3333333,50.4366197 L71.6431925,62.8544601 L61.1690141,62.8544601 L52.584507,54.2699531 L52.584507,62.8544601 L44,62.8544601 L44,39.5305164 Z M80.713615,57.1314554 L95.1830986,57.1314554 L95.1830986,62.8544601 L71.9671362,62.8544601 L71.9671362,39.6384977 L80.713615,39.6384977 L80.713615,57.1314554 Z M98.2065728,39.6384977 L112.676056,39.6384977 L116.887324,52.7042254 L121.206573,39.6384977 L135.892019,39.6384977 L135.892019,62.8274648 L127.14554,62.8274648 L127.14554,45.685446 L121.206573,62.8274648 L112.676056,62.8274648 L106.84507,45.685446 L106.84507,62.8274648 L98.2065728,62.8274648 L98.2065728,39.6384977 Z" id="Combined-Shape" fill="#CED3D9"></path>
    </g>
</svg>