<svg xmlns="http://www.w3.org/2000/svg" width="34" height="34" viewBox="0 0 34 34">
    <path fill="#115EE1" fill-rule="nonzero" d="M33.448 17.932l-7.414-3.583V4.817a.996.996 0 0 0-.568-.9L17.431.098a.996.996 0 0 0-.858 0L8.603 3.92a1 1 0 0 0-.565.896v9.512L.567 17.933a1 1 0 0 0-.564.897v10.136c0 .376.212.72.548.89l8.02 4.039c.303.152.702.148 1.014-.06l7.417-3.752 7.503 3.81c.303.154.7.15 1.013-.055l7.942-3.981a.984.984 0 0 0 .537-.89V18.828a.987.987 0 0 0-.55-.897zM8.038 31.395L1.995 28.35v-7.905l6.043 3.043v7.906zm.98-9.643l-5.766-2.904 5.78-2.788 5.726 2.788-5.74 2.904zm6.989 6.6l-5.977 3.024v-7.904l5.977-3.023v7.904zm0-11.115L10.03 14.33V6.44l5.977 3.029v7.769zm-4.72-12.395L17.005 2.1l5.749 2.734-5.75 2.906-5.717-2.898zm12.755 1.573v7.893L18 17.238v-7.77l6.043-3.053zm-.066 24.974l-5.977-3.035v-7.902l5.977 3.035v7.902zm.983-9.637l-5.707-2.899 5.764-2.783 5.743 2.775-5.8 2.907zm7.059 6.598l-6.05 3.033v-7.908l6.05-3.033v7.908z"/>
</svg>
