<svg xmlns="http://www.w3.org/2000/svg" width="100" height="100" viewBox="0 0 100 100">
    <g fill="none" fill-rule="nonzero">
        <path fill="#86B3FE" d="M13.477 77.734h19.336v20.313H13.477zM87.478 78.64a10.156 10.156 0 0 0 0 18.502 10.156 10.156 0 0 0 0-18.503zM48.268 1.953h19.311v15.625H48.268z"/>
        <path fill="#243265" d="M99.428 45.144c.763-.763.763-2 0-2.763L84.67 27.623c-.763-.763-2-.763-2.763 0L67.721 41.809H55.557a5.886 5.886 0 0 0-3.604-3.603V19.53h15.625a1.953 1.953 0 0 0 1.953-1.953V1.953A1.953 1.953 0 0 0 67.578 0H32.422a1.953 1.953 0 0 0-1.953 1.953v5.86h-7.563a5.869 5.869 0 0 0-5.523-3.907 5.866 5.866 0 0 0-5.86 5.86 5.869 5.869 0 0 0 3.907 5.523v16.34H7.227a1.953 1.953 0 0 0-1.954 1.952v20.313c0 1.078.875 1.953 1.954 1.953h8.203V63a1.953 1.953 0 0 0 3.906 0v-7.153h8.203a1.953 1.953 0 0 0 1.953-1.953V33.58a1.953 1.953 0 0 0-1.953-1.953h-8.203V15.29a5.887 5.887 0 0 0 3.57-3.57h7.563v5.86c0 1.078.874 1.952 1.953 1.952h15.625v18.692a5.869 5.869 0 0 0-3.882 5.515c0 3.23 2.629 5.86 5.86 5.86a5.87 5.87 0 0 0 5.515-3.882h12.18L81.336 59.33v16.611c-5.751.937-10.156 5.938-10.156 11.95 0 6.677 5.432 12.109 12.11 12.109 6.677 0 12.109-5.432 12.109-12.11 0-6.011-4.405-11.012-10.156-11.949v-16.61l14.186-14.187zM25.586 51.94H9.18V35.535h16.406V51.94zm-8.203-40.222a1.955 1.955 0 0 1-1.953-1.953c0-1.077.876-1.954 1.953-1.954s1.953.877 1.953 1.954a1.955 1.955 0 0 1-1.953 1.953zm16.992-7.813h31.25v11.719h-31.25V3.906zm15.65 41.785a1.955 1.955 0 0 1-1.953-1.953c0-1.077.876-1.953 1.953-1.953s1.953.876 1.953 1.953a1.955 1.955 0 0 1-1.953 1.953zm33.263-13.925l11.997 11.996L83.379 55.67c-.03-.002-.06-.005-.09-.005-.031 0-.06.003-.09.005L71.291 43.762l11.996-11.996zm8.204 56.125c0 4.523-3.68 8.203-8.204 8.203-4.523 0-8.203-3.68-8.203-8.203 0-4.413 3.503-8.021 7.874-8.195.107.018.217.03.33.03.112 0 .222-.012.33-.03 4.37.174 7.873 3.782 7.873 8.195zM18.764 71.584c.363-.363.572-.867.572-1.38 0-.515-.209-1.018-.572-1.382a1.968 1.968 0 0 0-1.381-.572c-.514 0-1.018.209-1.381.572a1.967 1.967 0 0 0-.572 1.381c0 .514.209 1.018.572 1.381a1.96 1.96 0 0 0 1.38.572 1.96 1.96 0 0 0 1.382-.572z"/>
        <path fill="#243265" d="M64.975 86.719c-.516 0-1.018.209-1.381.572a1.96 1.96 0 0 0-.573 1.38c0 .515.208 1.018.573 1.382.363.363.865.572 1.38.572.514 0 1.018-.209 1.381-.572.364-.364.573-.867.573-1.381s-.21-1.018-.573-1.381a1.968 1.968 0 0 0-1.38-.572zM57.422 86.719H34.766v-8.985a1.953 1.953 0 0 0-1.953-1.953H1.953A1.953 1.953 0 0 0 0 77.734v20.313C0 99.125.874 100 1.953 100h30.86a1.953 1.953 0 0 0 1.953-1.953v-7.422h22.656a1.953 1.953 0 0 0 0-3.906zm-26.563 9.375H3.906V79.688H30.86v16.406z"/>
        <path fill="#243265" d="M41.225 81.85c.363-.364.572-.868.572-1.381 0-.514-.21-1.018-.572-1.381a1.968 1.968 0 0 0-1.381-.572c-.514 0-1.018.208-1.381.572a1.968 1.968 0 0 0-.572 1.38c0 .514.209 1.018.572 1.381.363.364.867.573 1.38.573.514 0 1.018-.21 1.382-.573zM49.648 81.85c.364-.364.573-.868.573-1.381 0-.514-.21-1.018-.573-1.381a1.968 1.968 0 0 0-1.38-.572c-.514 0-1.018.208-1.381.572a1.96 1.96 0 0 0-.573 1.38c0 .514.207 1.018.573 1.381.363.364.867.573 1.38.573a1.97 1.97 0 0 0 1.381-.573zM58.07 81.85c.366-.364.573-.868.573-1.381a1.96 1.96 0 0 0-.573-1.381 1.964 1.964 0 0 0-1.38-.572c-.514 0-1.018.208-1.381.572a1.968 1.968 0 0 0-.573 1.38c0 .514.21 1.018.573 1.381.363.364.867.573 1.38.573.516 0 1.018-.21 1.381-.573zM58.072 24.277a1.97 1.97 0 0 0-1.383-.57c-.513 0-1.017.207-1.38.57a1.968 1.968 0 0 0-.573 1.381 1.961 1.961 0 0 0 1.953 1.955c.516 0 1.018-.209 1.383-.574.364-.363.57-.865.57-1.38a1.97 1.97 0 0 0-.57-1.382zM56.69 32.129c-.514 0-1.018.209-1.381.572a1.968 1.968 0 0 0-.573 1.381c0 .514.21 1.018.573 1.38.363.364.867.573 1.38.573.516 0 1.018-.209 1.381-.572a1.96 1.96 0 0 0 .573-1.381 1.96 1.96 0 0 0-.573-1.38 1.964 1.964 0 0 0-1.38-.573z"/>
    </g>
</svg>
