<svg xmlns="http://www.w3.org/2000/svg" width="93" height="72" viewBox="0 0 93 72">
    <path fill="#4F86E5" fill-rule="evenodd" d="M31.392 34.272c4.8 3.264 7.2 8.16 7.2 14.688 0 6.336-2.016 11.616-6.048 15.84s-9.024 6.336-14.976 6.336c-4.992 0-9.168-1.584-12.528-4.752C1.68 63.216 0 58.848 0 53.28c0-3.264.576-6.336 1.728-9.216 1.152-2.88 2.784-5.952 4.896-9.216L27.648 0h19.008L31.392 34.272zm45.792 0c4.8 3.264 7.2 8.16 7.2 14.688 0 6.336-2.016 11.616-6.048 15.84s-9.024 6.336-14.976 6.336c-4.992 0-9.168-1.584-12.528-4.752-3.36-3.168-5.04-7.536-5.04-13.104 0-3.264.576-6.336 1.728-9.216 1.152-2.88 2.784-5.952 4.896-9.216L73.44 0h19.008L77.184 34.272z" opacity=".536"/>
</svg>
