<svg xmlns="http://www.w3.org/2000/svg" width="46" height="46" viewBox="0 0 46 46">
    <path fill="#243265" fill-rule="nonzero" d="M30.533 29.527l-17.523-4.25.85-3.505 17.523 4.25-.85 3.505zm1.175-4.193L15.652 17.13l1.64-3.211 16.056 8.204-1.64 3.211zm2.473-4.343L20.602 9.13l2.373-2.716 13.578 11.862-2.372 2.716zm3.735-3.817L27.791 2.254 30.775.23 40.9 15.149l-2.984 2.025zM30.252 33.91l-18.003-.983.196-3.6 18.004.982-.197 3.601zm3.733 8.482v-14.94h3.603L37.591 46H5V27.437h3.607v14.955h25.378zM12.2 35.194h18.153V38.8H12.199v-3.606z"/>
</svg>
