<svg xmlns="http://www.w3.org/2000/svg" xmlns:xlink="http://www.w3.org/1999/xlink" width="447" height="342" viewBox="0 0 447 342">
    <defs>
        <path id="b" d="M455.585 227.41h-298.95a7.161 7.161 0 0 1-7.16-7.163V35.867a7.161 7.161 0 0 1 7.16-7.163h298.95a7.161 7.161 0 0 1 7.16 7.163v184.38a7.161 7.161 0 0 1-7.16 7.163"/>
        <filter id="a" width="103.2%" height="105%" x="-2.4%" y="-3.8%" filterUnits="objectBoundingBox">
            <feOffset dx="-5" dy="-5" in="SourceAlpha" result="shadowOffsetOuter1"/>
            <feColorMatrix in="shadowOffsetOuter1" values="0 0 0 0 0.835294118 0 0 0 0 0.854901961 0 0 0 0 0.949019608 0 0 0 0.406787817 0"/>
        </filter>
    </defs>
    <g fill="none" fill-rule="evenodd">
        <path fill="#E6ECF4" d="M424.313 282.486c20.048-12.25 26.367-38.437 14.112-58.484-2.732-4.472-6.187-8.22-10.087-11.273a158.908 158.908 0 0 1 17.496-20.718 200.265 200.265 0 0 1 9.308-8.704 78.948 78.948 0 0 1 3.688 3.3l10.45-6.387c5.344-3.268 12.326-1.585 15.595 3.763l10.353 16.94c3.269 5.345 1.58 12.327-3.763 15.592l-10.45 6.387a81.817 81.817 0 0 1 3.347 24.146l11.809 3.297c6.034 1.683 9.561 7.94 7.878 13.974l-5.335 19.126c-1.686 6.034-7.943 9.56-13.977 7.878l-11.799-3.292a81.684 81.684 0 0 1-11.229 14.86l6.39 10.447c3.267 5.348 1.582 12.33-3.764 15.598l-16.94 10.354c-5.344 3.263-12.329 1.58-15.595-3.768l-6.386-10.447a81.537 81.537 0 0 1-18.587 3.206c-3.56-12.76-5.143-26.105-4.666-39.595 7.564.003 15.225-1.965 22.152-6.2" opacity=".52"/>
        <path fill="#E3EAFF" d="M394.709 331.84H29.549c-9.908 0-17.941-8.032-17.941-17.94V64.832c0-9.908 8.033-17.942 17.941-17.942h365.16c9.908 0 17.941 8.034 17.941 17.942V313.9c0 9.909-8.033 17.942-17.941 17.942"/>
        <path fill="#FDFDFD" d="M393.153 328.093H31.104c-7.852 0-14.22-6.368-14.22-14.22V64.86c0-7.852 6.368-14.22 14.22-14.22h362.05c7.851 0 14.217 6.368 14.217 14.22v249.012c0 7.852-6.366 14.22-14.218 14.22"/>
        <path fill="#E3EAFF" d="M1.87 317.066C.715 319.195 0 321.598 0 324.191c0 8.305 6.731 15.038 15.04 15.038h394.179c8.305 0 15.038-6.733 15.038-15.038 0-2.593-.714-4.996-1.872-7.125H1.87z"/>
        <path fill="#747199" fill-opacity=".126" d="M1.87 331.315c2.546 4.692 7.456 7.914 13.17 7.914h394.179c5.715 0 10.623-3.222 13.166-7.914H1.87z"/>
        <path fill="#323076" fill-opacity=".04" d="M394.709 46.892H127.097v178.837a7.161 7.161 0 0 0 7.164 7.161h278.39V64.834c0-9.909-8.034-17.942-17.942-17.942"/>
        <path fill="#E3EAFF" d="M443.054 224.834h-298.95a7.16 7.16 0 0 1-7.16-7.16V33.292a7.16 7.16 0 0 1 7.16-7.161h298.95a7.163 7.163 0 0 1 7.163 7.16v184.383a7.161 7.161 0 0 1-7.163 7.16"/>
        <g transform="translate(0 -16)">
            <use fill="#000" filter="url(#a)" xlink:href="#b"/>
            <use fill="#FFF" xlink:href="#b"/>
        </g>
        <path fill="#323076" fill-opacity=".172" d="M91.633 148.308H59.856a4.473 4.473 0 0 1-4.475-4.478v-33.563a4.473 4.473 0 0 1 4.475-4.475h31.777a4.475 4.475 0 0 1 4.475 4.475v33.563a4.475 4.475 0 0 1-4.475 4.478"/>
        <path fill="#E3EAFF" d="M89.283 210.067H57.507a4.475 4.475 0 0 1-4.475-4.477v-33.563a4.473 4.473 0 0 1 4.475-4.475h31.776a4.475 4.475 0 0 1 4.475 4.475v33.563a4.477 4.477 0 0 1-4.475 4.477M89.283 270.484H57.507a4.475 4.475 0 0 1-4.475-4.478v-33.563a4.473 4.473 0 0 1 4.475-4.475h31.776a4.475 4.475 0 0 1 4.475 4.475v33.563a4.477 4.477 0 0 1-4.475 4.478"/>
        <path fill="#243265" d="M82.293 244.543c0-5.345-4.336-9.68-9.68-9.68-5.349 0-9.684 4.335-9.684 9.68 0 0-1.362 10.253 9.683 18.406 11.043-8.153 9.68-18.406 9.68-18.406"/>
        <path fill="#F9FBFC" d="M73.18 251.53a7.014 7.014 0 0 1-7.559-7.556c.27-3.398 3.022-6.153 6.423-6.42a7.015 7.015 0 0 1 7.557 7.557c-.27 3.4-3.023 6.15-6.42 6.42"/>
        <path fill="#243265" d="M85.813 188.247c0 7.396-5.995 13.394-13.391 13.394-7.397 0-13.394-5.998-13.394-13.394 0-7.394 5.997-13.392 13.394-13.392 7.396 0 13.391 5.998 13.391 13.392"/>
        <path fill="#F9FBFC" d="M83.22 188.247c0 5.966-4.834 10.801-10.798 10.801-5.967 0-10.802-4.835-10.802-10.801 0-5.965 4.835-10.8 10.802-10.8 5.964 0 10.799 4.835 10.799 10.8"/>
        <path fill="#F9FBFC" d="M83.22 188.247c0 5.966-4.834 10.801-10.798 10.801-5.967 0-10.802-4.835-10.802-10.801 0-5.965 4.835-10.8 10.802-10.8 5.964 0 10.799 4.835 10.799 10.8"/>
        <path fill="#243265" d="M72.392 189.198a.52.52 0 0 1-.518-.518v-7.606a.517.517 0 0 1 1.036 0v7.606a.52.52 0 0 1-.518.518"/>
        <path fill="#243265" d="M72.017 188.39a.517.517 0 0 1 .73-.059l4.693 3.962a.52.52 0 0 1 .06.73.515.515 0 0 1-.73.06l-4.69-3.962a.518.518 0 0 1-.063-.73"/>
        <path fill="#CED6FF" d="M72.12 179.217h.388v-1.036h-.389zM72.12 198.14h.388v-1.036h-.389zM62.335 188.356h1.036v-.388h-1.036zM81.256 188.356h1.036v-.388h-1.036zM66.127 181.699l-.274.275-.736-.733.277-.275zM79.508 195.08l-.274.275-.736-.733.277-.275zM65.851 194.347l.275.274-.733.736-.274-.277zM79.233 180.966l.274.274-.733.736-.274-.278z"/>
        <path fill="#115EE1" d="M89.283 146.965H57.507a4.473 4.473 0 0 1-4.475-4.478v-33.563a4.475 4.475 0 0 1 4.475-4.475h31.776a4.476 4.476 0 0 1 4.475 4.475v33.563a4.475 4.475 0 0 1-4.475 4.478"/>
        <path fill="#FFF" fill-rule="nonzero" d="M77.164 130.581h2.747l-4.385-11.38H72.49l-4.384 11.38h2.747l.716-1.927h4.143l-.75-2.133h-2.728l1.775-4.897 3.156 8.957zm9.058-8.425a.66.66 0 1 0-1.274.354c.276.992.415 2.018.415 3.05 0 6.287-5.115 11.402-11.402 11.402-6.288 0-11.403-5.115-11.403-11.403 0-6.287 5.115-11.403 11.403-11.403 2.663 0 5.24.947 7.274 2.63a1.59 1.59 0 1 0 .982-.9 12.76 12.76 0 0 0-8.256-3.051c-7.017 0-12.725 5.708-12.725 12.724s5.708 12.724 12.725 12.724c7.016 0 12.724-5.708 12.724-12.724 0-1.15-.156-2.295-.463-3.403z"/>
        <path fill="#F7D3A9" d="M51.074 142.6l3.357-2.346 1.51-5.54-1.679-.337-1.004 2.015 1.004-9.566-1.678.336-1.675 9.23-2.018 4.364 1.847 1.173M70.932 152.56l.448-4.03 4.923-4.92 1.12 1.563-1.793 2.015 9.4-2.237v2.014l-8.727 3.357-1.79 3.133z"/>
        <path fill="#323076" d="M9.661 252.135l18.304 89.546 13.853-1.484-9.398-3.462 3.462-.99-4.946-83.61z"/>
        <path fill="#323076" d="M38.851 250.653S62.105 272.42 58.64 298.64c-3.96 20.78-12.37 28.694-12.37 28.694l-2.472-.492 3.835 10.141L36.5 325.108s13.73-18.923 5.195-38.587c-8.533-19.666-27.086-26.718-27.086-26.718s15.955-14.47 17.066-14.099c1.114.37 7.176 4.95 7.176 4.95"/>
        <path fill="#115EE1" d="M48.745 139.216s-38.217 46.38-42.671 55.656c0 0-1.855 3.338-1.855 12.988 0 9.644 3.339 45.266 3.339 45.266l38.962 2.227s-12.617-43.414-12.987-44.528c-.373-1.11-6.68-7.79-12.617-9.276l32.651-58.995-4.822-3.338z"/>
        <path fill="#F7D3A9" d="M24.545 197.07s1.623 4.815 2.52 7.728c0 0-7.954-.168-10.753-3.864l2.968-7.111 5.265 3.247z"/>
        <path fill="#F7D3A9" d="M30.592 182.018s2.351 13.697 0 16.81c-2.352 3.112-10.414-2.181-13.775-7.158-3.362-4.983-4.032-16.189 1.68-17.124 5.71-.935 10.75 2.489 12.095 7.472"/>
        <path fill="#115EE1" d="M26.976 207.374S57.618 188.1 60.09 184.146c2.47-3.954 9.39-33.36 9.39-33.36l5.93 1.483s-3.46 32.864-4.448 36.324c-.99 3.46-31.137 35.583-38.054 35.583-6.917 0-9.39-8.896-5.93-16.802"/>
        <path fill="#243265" d="M14.097 175.159s4.027-5.594 11.188-4.252c7.16 1.344 8.95-.223 8.95-.223s-1.564 7.831-6.487 9.62c-4.924 1.793-6.268 1.345-6.268 1.345s2.686 2.685 3.357 4.698c.673 2.014-2.238-2.46-3.357-.894-1.118 1.564 0 4.923 2.238 4.698 2.24-.223.896 1.567 0 3.356-.894 1.79-2.238 4.03-3.58 3.357-1.343-.671-6.041-3.357-7.83-8.95-1.79-5.594-2.238-10.966 1.789-12.755"/>
        <path fill="#E3EAFF" d="M259.344 191.941h-87.27a3.357 3.357 0 0 1-3.356-3.356V36.873a3.357 3.357 0 0 1 3.357-3.357h87.269a3.356 3.356 0 0 1 3.356 3.357v151.712a3.356 3.356 0 0 1-3.356 3.356"/>
        <path fill="#323076" d="M243.009 59.696h-55.496a2.684 2.684 0 0 1-2.683-2.685v-8.054a2.684 2.684 0 0 1 2.683-2.686h55.496a2.686 2.686 0 0 1 2.685 2.686v8.054a2.686 2.686 0 0 1-2.685 2.685"/>
        <path fill="#115EE1" d="M205.194 134.32h-12.086a5.145 5.145 0 0 1 0-10.29h12.086a5.145 5.145 0 0 1 0 10.29"/>
        <path fill="#323076" d="M240.103 134.32h-12.089a5.145 5.145 0 0 1 0-10.29h12.089a5.145 5.145 0 0 1 0 10.29"/>
        <path fill="#F9FBFC" d="M183.489 83.415h65.336V73.12H183.49zM183.489 100.87h65.336V90.574H183.49z"/>
        <path fill="#CDD4FF" d="M197.584 109.708h37.593v-2.349h-37.593z"/>
        <path fill="#E3EAFF" d="M456.37 162.627H338.892c-7.23 0-13.09-5.86-13.09-13.09 0-7.229 5.86-13.09 13.09-13.09H456.37c7.228 0 13.091 5.861 13.091 13.09 0 7.23-5.863 13.09-13.09 13.09M365.296 120.935H303.87a5.295 5.295 0 0 1-5.294-5.296V78.927a5.294 5.294 0 0 1 5.294-5.296h61.426a5.294 5.294 0 0 1 5.293 5.296v36.712a5.295 5.295 0 0 1-5.293 5.296"/>
        <path fill="#115EE1" d="M334.654 96.918h-.143a1.89 1.89 0 0 1-.917-.238l-27.759-15.422a1.895 1.895 0 0 1-.735-2.575 1.895 1.895 0 0 1 2.574-.735l26.91 14.95 26.907-14.95a1.892 1.892 0 0 1 2.574.735c.51.917.182 2.067-.735 2.575L335.57 96.68a1.89 1.89 0 0 1-.916.238"/>
        <path fill="#323076" d="M471.473 116.085h-79.886a4.697 4.697 0 0 1-4.698-4.698V5.322a4.7 4.7 0 0 1 4.698-4.7h79.886a4.7 4.7 0 0 1 4.697 4.7v106.065a4.697 4.697 0 0 1-4.697 4.698"/>
        <path fill="#4C98FF" d="M406.838 16.1h-5.951c-.316 0-.573-.516-.573-1.15 0-.635.257-1.15.573-1.15h5.95c.317 0 .573.515.573 1.15 0 .634-.256 1.15-.572 1.15M443.666 16.1h-34.03c-.315 0-.572-.516-.572-1.15 0-.635.257-1.15.573-1.15h34.029c.316 0 .572.515.572 1.15 0 .634-.256 1.15-.572 1.15"/>
        <path fill="#E535AB" d="M420.492 20.854h-10.854c-.316 0-.575-.515-.575-1.15 0-.634.26-1.152.575-1.152h10.854c.316 0 .572.518.572 1.152 0 .635-.256 1.15-.572 1.15"/>
        <path fill="#E3EAFF" d="M438.345 20.854h-15.642c-.316 0-.575-.515-.575-1.15 0-.634.259-1.152.575-1.152h15.642c.316 0 .575.518.575 1.152 0 .635-.26 1.15-.575 1.15M443.666 44.001h-34.03c-.315 0-.572-.515-.572-1.15 0-.634.257-1.15.573-1.15h34.029c.316 0 .572.516.572 1.15 0 .635-.256 1.15-.572 1.15"/>
        <path fill="#4C98FF" d="M406.838 48.756h-5.951c-.316 0-.573-.516-.573-1.15 0-.635.257-1.15.573-1.15h5.95c.317 0 .573.515.573 1.15 0 .634-.256 1.15-.572 1.15"/>
        <path fill="#E3EAFF" d="M420.492 48.756h-10.854c-.316 0-.575-.516-.575-1.15 0-.635.26-1.15.575-1.15h10.854c.316 0 .572.515.572 1.15 0 .634-.256 1.15-.572 1.15"/>
        <path fill="#E535AB" d="M438.345 48.756h-15.642c-.316 0-.575-.516-.575-1.15 0-.635.259-1.15.575-1.15h15.642c.316 0 .575.515.575 1.15 0 .634-.26 1.15-.575 1.15M452.105 25.607H409.64c-.319 0-.575-.515-.575-1.15 0-.634.256-1.15.575-1.15h42.466c.316 0 .573.516.573 1.15 0 .635-.257 1.15-.573 1.15"/>
        <path fill="#4C98FF" d="M443.203 30.362h-9.885a.609.609 0 0 1-.609-.606v-1.088c0-.336.275-.606.609-.606h9.885c.337 0 .606.27.606.606v1.088c0 .334-.27.606-.606.606"/>
        <path fill="#E3EAFF" d="M423.744 30.362h-14.106c-.316 0-.575-.515-.575-1.15 0-.634.26-1.15.575-1.15h14.106c.316 0 .573.516.573 1.15 0 .635-.257 1.15-.573 1.15"/>
        <path fill="#4C98FF" d="M431.25 30.362h-5.593c-.316 0-.573-.515-.573-1.15 0-.634.257-1.15.573-1.15h5.594c.316 0 .575.516.575 1.15 0 .635-.26 1.15-.575 1.15"/>
        <path fill="#E3EAFF" d="M406.838 34.957h-5.951c-.316 0-.573-.515-.573-1.15 0-.634.257-1.15.573-1.15h5.95c.317 0 .573.516.573 1.15 0 .635-.256 1.15-.572 1.15M452.105 34.957H409.64c-.319 0-.575-.515-.575-1.15 0-.634.256-1.15.575-1.15h42.466c.316 0 .573.516.573 1.15 0 .635-.257 1.15-.573 1.15M406.838 53.159h-5.951c-.316 0-.573-.515-.573-1.15 0-.634.257-1.15.573-1.15h5.95c.317 0 .573.516.573 1.15 0 .635-.256 1.15-.572 1.15M447.353 53.159h-13.93a.713.713 0 0 1-.712-.712v-.876c0-.393.318-.712.712-.712h13.93c.394 0 .712.319.712.712v.876a.713.713 0 0 1-.712.712M423.744 53.159h-14.106c-.316 0-.575-.515-.575-1.15 0-.634.26-1.15.575-1.15h14.106c.316 0 .573.516.573 1.15 0 .635-.257 1.15-.573 1.15M431.25 53.159h-5.593c-.316 0-.573-.515-.573-1.15 0-.634.257-1.15.573-1.15h5.594c.316 0 .575.516.575 1.15 0 .635-.26 1.15-.575 1.15"/>
        <path fill="#FC0" d="M406.838 57.754h-5.951c-.316 0-.573-.515-.573-1.15 0-.634.257-1.15.573-1.15h5.95c.317 0 .573.516.573 1.15 0 .635-.256 1.15-.572 1.15"/>
        <path fill="#4C98FF" d="M416.99 57.754h-7.353c-.316 0-.575-.515-.575-1.15 0-.634.26-1.15.575-1.15h7.352c.316 0 .575.516.575 1.15 0 .635-.259 1.15-.575 1.15M400.887 39.712c-.316 0-.572-.515-.572-1.15 0-.634.256-1.15.572-1.15h5.951c.316 0 .572.516.572 1.15 0 .635-.256 1.15-.572 1.15"/>
        <path fill="#E3EAFF" d="M449.303 39.712h-15.834a.758.758 0 0 1-.759-.756v-.788c0-.417.34-.756.76-.756h15.833c.42 0 .759.34.759.756v.788c0 .417-.34.756-.76.756"/>
        <path fill="#FC0" d="M423.744 39.712h-14.106c-.316 0-.575-.515-.575-1.15 0-.634.26-1.15.575-1.15h14.106c.316 0 .573.516.573 1.15 0 .635-.257 1.15-.573 1.15M431.25 39.712h-5.593c-.316 0-.573-.515-.573-1.15 0-.634.257-1.15.573-1.15h5.594c.316 0 .575.516.575 1.15 0 .635-.26 1.15-.575 1.15"/>
        <path fill="#E3EAFF" d="M443.666 62.643h-34.03c-.315 0-.572-.516-.572-1.15 0-.635.257-1.15.573-1.15h34.029c.316 0 .572.515.572 1.15 0 .634-.256 1.15-.572 1.15M420.492 67.397h-10.854c-.316 0-.575-.515-.575-1.15 0-.637.26-1.152.575-1.152h10.854c.316 0 .572.515.572 1.152 0 .635-.256 1.15-.572 1.15M438.345 67.397h-15.642c-.316 0-.575-.515-.575-1.15 0-.637.259-1.152.575-1.152h15.642c.316 0 .575.515.575 1.152 0 .635-.26 1.15-.575 1.15M443.666 90.544h-34.03c-.315 0-.572-.515-.572-1.15 0-.634.257-1.15.573-1.15h34.029c.316 0 .572.516.572 1.15 0 .635-.256 1.15-.572 1.15"/>
        <path fill="#E535AB" d="M406.838 95.3h-5.951c-.316 0-.573-.516-.573-1.15 0-.635.257-1.15.573-1.15h5.95c.317 0 .573.515.573 1.15 0 .634-.256 1.15-.572 1.15"/>
        <path fill="#4C98FF" d="M420.492 95.3h-10.854c-.316 0-.575-.516-.575-1.15 0-.635.26-1.15.575-1.15h10.854c.316 0 .572.515.572 1.15 0 .634-.256 1.15-.572 1.15"/>
        <path fill="#E3EAFF" d="M438.345 95.3h-15.642c-.316 0-.575-.516-.575-1.15 0-.635.259-1.15.575-1.15h15.642c.316 0 .575.515.575 1.15 0 .634-.26 1.15-.575 1.15"/>
        <path fill="#E535AB" d="M406.838 72.15h-5.951c-.316 0-.573-.515-.573-1.15 0-.634.257-1.149.573-1.149h5.95c.317 0 .573.515.573 1.15 0 .634-.256 1.15-.572 1.15M440.014 72.15h-30.259a.693.693 0 0 1-.691-.69v-.917c0-.384.31-.692.691-.692h30.259c.38 0 .694.308.694.692v.916c0 .381-.314.692-.694.692"/>
        <path fill="#E3EAFF" d="M406.838 76.905h-5.951c-.316 0-.573-.515-.573-1.15 0-.634.257-1.15.573-1.15h5.95c.317 0 .573.516.573 1.15 0 .635-.256 1.15-.572 1.15M423.744 76.905h-14.106c-.316 0-.575-.515-.575-1.15 0-.634.26-1.15.575-1.15h14.106c.316 0 .573.516.573 1.15 0 .635-.257 1.15-.573 1.15M431.25 76.905h-5.593c-.316 0-.573-.515-.573-1.15 0-.634.257-1.15.573-1.15h5.594c.316 0 .575.516.575 1.15 0 .635-.26 1.15-.575 1.15M406.838 81.5h-5.951c-.316 0-.573-.515-.573-1.15 0-.634.257-1.15.573-1.15h5.95c.317 0 .573.516.573 1.15 0 .635-.256 1.15-.572 1.15M448.132 81.5H409.84a.777.777 0 0 1-.777-.774v-.748c0-.43.35-.777.777-.777h38.292c.427 0 .777.347.777.777v.748c0 .428-.35.775-.777.775M406.838 99.702h-5.951c-.316 0-.573-.515-.573-1.15 0-.634.257-1.152.573-1.152h5.95c.317 0 .573.518.573 1.152 0 .635-.256 1.15-.572 1.15M452.06 99.702h-18.776c-.316 0-.575-.515-.575-1.15 0-.634.26-1.152.575-1.152h18.776c.316 0 .572.518.572 1.152 0 .635-.256 1.15-.572 1.15M423.744 99.702h-14.106c-.316 0-.575-.515-.575-1.15 0-.634.26-1.152.575-1.152h14.106c.316 0 .573.518.573 1.152 0 .635-.257 1.15-.573 1.15M431.25 99.702h-5.593c-.316 0-.573-.515-.573-1.15 0-.634.257-1.152.573-1.152h5.594c.316 0 .575.518.575 1.152 0 .635-.26 1.15-.575 1.15"/>
        <path fill="#FC0" d="M434.756 104.298h-25.06a.63.63 0 0 1-.633-.63v-1.04a.63.63 0 0 1 .632-.63h25.061a.63.63 0 0 1 .63.63v1.04a.63.63 0 0 1-.63.63"/>
        <path fill="#E535AB" d="M450.302 86.255h-16.813a.78.78 0 0 1-.78-.78v-.74c0-.43.35-.78.78-.78h16.813c.43 0 .78.35.78.78v.74c0 .43-.35.78-.78.78"/>
        <path fill="#FC0" d="M423.744 86.255h-14.106c-.316 0-.575-.515-.575-1.15 0-.634.26-1.15.575-1.15h14.106c.316 0 .573.516.573 1.15 0 .635-.257 1.15-.573 1.15M431.25 86.255h-5.593c-.316 0-.573-.515-.573-1.15 0-.634.257-1.15.573-1.15h5.594c.316 0 .575.516.575 1.15 0 .635-.26 1.15-.575 1.15"/>
        <path fill="#F7D3A9" d="M417.012 205.568s-1.564 4.644-2.429 7.45c0 0 7.668-.162 10.367-3.726l-2.86-6.857-5.078 3.133z"/>
        <path fill="#F79A74" d="M415.862 333.631l.655 2.922 4.234.238-.896-3.576z"/>
        <path fill="#544DB8" d="M416.516 336.552s-7.095 3.699-7.038 3.937c.062.238 11.987-1.015 11.987-1.015l-.714-2.683-4.235-.239z"/>
        <path fill="#FC0" d="M407.988 256.402s-12.164 39.719 7.156 78.003h5.726s-11.45-43.295 2.862-78.36l-15.744.357z"/>
        <path fill="#FC0" d="M418.55 257.808s1.888 41.493 32.949 71.063l5.392-1.925s-25.333-36.93-23.632-74.766l-14.71 5.628z"/>
        <path fill="#F7D3A9" d="M412.978 164.31l.016-2.448c0-.109-.013-.215-.042-.319l-.463-1.753-1.399.357-1.421-1.315a1.213 1.213 0 0 0-1.92.365c-.437.932-.937 2.134-1.092 3.048-.065.365.057.73.305 1.005l2.178 2.382c.311.342.79.474 1.236.345l1.735-.515c.513-.15.865-.62.867-1.153"/>
        <path fill="#115EE1" d="M433.962 218.019s-15.865-17.005-16.909-23.37c-1.049-6.363-3.366-30.041-3.366-30.041l-4.895.945s-1.678 33.863-.194 37.764c1.486 3.9 11.027 23.773 17.24 25.61 6.215 1.836 10.579-4.292 8.124-10.908"/>
        <path fill="#F7D3A9" d="M411.924 189.969s-3.58 11.907-1.313 14.909c2.268 3.002 10.615.282 13.855-4.52 3.24-4.803 3.887-15.613-1.621-16.511-5.506-.902-9.624 1.32-10.921 6.122"/>
        <path fill="#115EE1" d="M433.393 259.624s3.219-34.35 3.219-43.653c0-.427-.008-.826-.013-1.225-2.396-6.05-8.34-5.93-10.719-5.456-2.385.479-11.69 3.46-11.63 3.817l-.024-.031c-3.206 2.328-5.656 5.086-5.881 5.757 0 0-8.585 17.89-1.072 39.359l26.12 1.432z"/>
        <path fill="#F7D3A9" d="M387.918 166.064l-.417-2.413a1.235 1.235 0 0 0-.096-.306l-.766-1.644-1.31.598-1.635-1.044a1.209 1.209 0 0 0-1.82.697c-.27.994-.552 2.263-.544 3.193.002.368.184.71.479.932l2.558 1.963c.368.283.865.332 1.28.125l1.618-.813c.48-.239.744-.762.653-1.288"/>
        <path fill="#115EE1" d="M418.006 215.254s-18.607-13.953-20.752-20.037c-2.146-6.083-8.587-28.984-8.587-28.984l-4.651 1.792s4.294 33.633 6.438 37.212c2.147 3.58 15.03 21.47 21.469 22.184 6.443.717 9.662-6.083 6.083-12.167"/>
        <path fill="#323076" d="M425.163 183.768s-9.543-4.053-14.075 4.293c-2.382 5.25 5.25.239 6.682 1.91 1.43 1.67-1.909 5.008-.956 6.202.956 1.19 2.623-2.147 3.58-.241.952 1.911-1.433 2.147-3.103 4.294-1.67 2.149 1.432 5.249-.953 7.158-2.386 1.906-9.065 3.338-5.012 13.596 4.059 10.258-6.679 12.881-2.144 26.954 4.532 14.075 35.303 21.948 41.03 5.25 5.723-16.7-13.359-20.755-12.167-28.149 1.194-7.396 5.487-9.302-.238-16.698-5.726-7.394-9.305-11.688-7.632-16.458 1.667-4.773-2.865-8.111-5.012-8.111"/>
        <path fill="#FC0" d="M454.716 133.863c-8.599 0-15.569 6.968-15.569 15.567 0 8.598 6.97 15.568 15.57 15.568 8.597 0 15.569-6.97 15.569-15.568 0-8.599-6.972-15.567-15.57-15.567"/>
        <path fill="#323076" d="M460.684 150.122a1.903 1.903 0 1 1 0-3.805 1.903 1.903 0 0 1 0 3.805zm-5.968 7.806a4.951 4.951 0 0 1-4.902-4.28h9.804a4.953 4.953 0 0 1-4.902 4.28zm-7.872-9.708a1.903 1.903 0 1 1 3.807.001 1.903 1.903 0 0 1-3.807-.001z"/>
        <path fill="#115EE1" d="M146.495 292.494l-1.201-2.403 32.516-16.256 41.022.67 44.538-16.776h34.022l36.321-12.11.295.034 29.13 3.31 16.419-8.536 1.24 2.38-17.144 8.917-.412-.047-29.24-3.323-36.392 12.058h-33.99l-44.318 16.79-.254-.006-40.623-.665z"/>
        <path fill="#323076" d="M265.833 228.077s32.222 52.188 28.195 88.496l21.927.454-9.395-5.447 2.683-.455s-8.057-56.273-15.663-76.242c-7.969-20.915-10.294-13.162-10.294-13.162l-17.453 6.356z"/>
        <path fill="#323076" d="M254.197 224.834s1.79 36.252-.896 50.122c-2.686 13.876-10.74 41.175-10.74 41.175l20.586.448-5.407-3.818-3.432-1.999s14.658-39.382 16-58.179c1.341-18.799 3.581-29.538 3.581-29.538l-19.692 1.79z"/>
        <path fill="#F7D3A9" d="M296.321 117.54l3.356-2.35 1.51-5.539-1.678-.334-1.005 2.012 1.005-9.566-1.678.337-1.676 9.23-2.017 4.363 1.846 1.176M316.179 127.496l.448-4.027 4.923-4.923 1.119 1.567-1.792 2.015 9.398-2.24v2.015l-8.725 3.356-1.79 3.134z"/>
        <path fill="#115EE1" d="M293.992 114.153s-38.22 46.38-42.671 55.656c0 0-1.855 3.338-1.855 12.988 0 9.647 3.341 45.266 3.341 45.266l38.96 2.227s-12.617-43.412-12.987-44.525c-.373-1.111-6.68-7.79-12.618-9.277l32.652-58.994-4.822-3.34z"/>
        <path fill="#F7D3A9" d="M269.791 172.008s1.624 4.817 2.52 7.727c0 0-7.953-.165-10.753-3.863l2.97-7.112 5.263 3.248z"/>
        <path fill="#F7D3A9" d="M275.838 156.955s2.352 13.7 0 16.812c-2.351 3.11-10.413-2.18-13.775-7.16-3.358-4.98-4.032-16.189 1.681-17.124 5.71-.932 10.75 2.492 12.094 7.472"/>
        <path fill="#115EE1" d="M272.222 182.311s30.642-19.273 33.112-23.227c2.47-3.952 9.39-33.359 9.39-33.359l5.931 1.484s-3.46 32.864-4.45 36.324c-.986 3.46-31.133 35.58-38.053 35.58-6.917 0-9.388-8.893-5.93-16.802"/>
        <path fill="#243265" d="M273.663 153.902s1.567-5.37-1.787-8.056c-3.358-2.683-9.175-2.238-10.071-1.342 0 1.567 3.582 2.46 2.686 3.356-.897.896-5.594 0-6.713 4.698-1.119 4.7.445 5.597.445 5.597s-2.46 2.908.45 6.935c2.91 4.027 9.482 7.347 11.119 6.917 1.636-.43.74-6.694.74-6.694s-3.804-.448-4.03-2.909c-.222-2.46 1.793-2.685 2.686-1.79.896.897 1.12 2.91 1.792 2.461.671-.448-.225-5.146-.225-5.146s2.46-2.015 2.908-4.027"/>
        <path fill="#323076" d="M369.393 291l-23.013 6.31c-6.326 1.735-10.082 8.332-8.346 14.66l4.35 15.87c1.735 6.328 8.334 10.085 14.66 8.35l6.9-1.893 6.795 6.715 2.417-9.243 6.901-1.89c6.33-1.735 10.085-8.334 8.35-14.66l-4.354-15.87c-1.737-6.33-8.334-10.088-14.66-8.35"/>
        <path fill="#FFF" d="M354.165 317.005a2.636 2.636 0 0 1-1.846 3.243 2.64 2.64 0 0 1-3.245-1.847 2.645 2.645 0 0 1 1.849-3.245 2.64 2.64 0 0 1 3.242 1.85M365.763 313.824a2.643 2.643 0 0 1-1.849 3.245 2.64 2.64 0 1 1 1.85-3.245M377.36 310.642a2.64 2.64 0 1 1-5.092 1.4 2.64 2.64 0 0 1 5.091-1.4"/>
        <path fill="#115EE1" stroke="#FDFDFD" stroke-width="4" d="M182.145 275.216a4.252 4.252 0 1 1-8.504.001 4.252 4.252 0 0 1 8.504 0M338.333 247.211a4.252 4.252 0 1 1-8.503.001 4.252 4.252 0 0 1 8.503 0"/>
    </g>
</svg>
